<svg width="58" height="67" viewBox="0 0 58 67" fill="none" xmlns="http://www.w3.org/2000/svg">
<path fill-rule="evenodd" clip-rule="evenodd" d="M29.324 37.4012C37.9971 37.4012 45.0281 29.7988 45.0281 20.4209C45.0281 11.0429 37.9971 3.4406 29.324 3.4406C20.651 3.4406 13.62 11.0429 13.62 20.4209C13.62 29.7988 20.651 37.4012 29.324 37.4012ZM29.324 40.4885C39.5741 40.4885 47.8834 31.504 47.8834 20.4209C47.8834 9.33786 39.5741 0.353271 29.324 0.353271C19.074 0.353271 10.7647 9.33786 10.7647 20.4209C10.7647 31.504 19.074 40.4885 29.324 40.4885Z" fill="#0F4C75"/>
<path fill-rule="evenodd" clip-rule="evenodd" d="M36.0619 32.8536C38.0169 29.8001 39.3175 25.4139 39.3175 20.4209C39.3175 15.4279 38.0169 11.0418 36.0619 7.98828C34.0991 4.92267 31.6702 3.4406 29.324 3.4406C26.9777 3.4406 24.549 4.92267 22.5861 7.98828C20.6311 11.0418 19.3305 15.4279 19.3305 20.4209C19.3305 25.4139 20.6311 29.8001 22.5861 32.8536C24.549 35.9191 26.9777 37.4012 29.324 37.4012C31.6702 37.4012 34.0991 35.9191 36.0619 32.8536ZM29.324 40.4885C36.4201 40.4885 42.1728 31.504 42.1728 20.4209C42.1728 9.33786 36.4201 0.353271 29.324 0.353271C22.2278 0.353271 16.4753 9.33786 16.4753 20.4209C16.4753 31.504 22.2278 40.4885 29.324 40.4885Z" fill="#0F4C75"/>
<path fill-rule="evenodd" clip-rule="evenodd" d="M27.8964 38.9449V1.89697H30.7517V38.9449H27.8964Z" fill="#0F4C75"/>
<path fill-rule="evenodd" clip-rule="evenodd" d="M12.1923 18.8772H46.4557V21.9645H12.1923V18.8772Z" fill="#0F4C75"/>
<path fill-rule="evenodd" clip-rule="evenodd" d="M15.0476 9.61523H43.6005V12.7026H15.0476V9.61523Z" fill="#0F4C75"/>
<path fill-rule="evenodd" clip-rule="evenodd" d="M15.0476 28.1393H43.6005V31.2266H15.0476V28.1393Z" fill="#0F4C75"/>
<path d="M26.4489 65.3599H27.8766V66.9036H26.4489V65.3599ZM26.4489 57.6416V56.0979H27.8766V57.6416H26.4489ZM10.7449 65.3599V66.9036H9.31722V65.3599H10.7449ZM10.7449 57.6416H9.31722V56.0979H10.7449V57.6416ZM11.4183 57.6416L12.5868 56.7549L14.1642 59.1853H11.4183V57.6416ZM8.71473 54.2184L9.74951 53.1549L8.71473 54.2184ZM5.13579 49.3537L6.36621 48.5707L5.13579 49.3537ZM4.28163 47.8395L5.49425 47.0247L4.28163 47.8395ZM2.20569 42.9212L3.62428 42.7477L2.20569 42.9212ZM2.44711 26.8071L1.0969 26.3055L2.44711 26.8071ZM7.59613 28.0611L6.23089 28.5127L7.59613 28.0611ZM8.52207 35.1164L7.09842 35.2321L8.52207 35.1164ZM9.38761 40.7871L10.6288 40.0244L9.38761 40.7871ZM13.9172 47.9048L15.1904 47.2063L12.7677 48.82L13.9172 47.9048ZM10.9357 41.5507L12.1819 40.7976L12.1959 40.8246L12.2089 40.8524L10.9357 41.5507ZM10.72 39.0015L9.30923 38.7654L10.72 39.0015ZM15.9254 40.3796L16.958 39.3134L17.0014 39.3626L17.0406 39.4157L15.9254 40.3796ZM21.1434 47.4378L22.2585 46.4741L22.2745 46.4956L22.2896 46.5176L21.1434 47.4378ZM22.8902 51.2726L21.4636 51.3299L22.8902 51.2726ZM23.5216 57.6416V59.1853H22.2574L22.1045 57.8284L23.5216 57.6416ZM25.0213 65.3599V57.6416H27.8766V65.3599H25.0213ZM10.7449 63.8162H26.4489V66.9036H10.7449V63.8162ZM12.1725 57.6416V65.3599H9.31722V57.6416H12.1725ZM11.4183 59.1853H10.7449V56.0979H11.4183V59.1853ZM10.2496 58.5284C9.45627 57.306 8.60988 56.3398 7.67993 55.2818L9.74951 53.1549C10.6679 54.1995 11.6554 55.3198 12.5868 56.7549L10.2496 58.5284ZM7.67993 55.2818C6.46295 53.8973 5.12999 52.3868 3.90536 50.1365L6.36621 48.5707C7.40818 50.4855 8.53328 51.7712 9.74951 53.1549L7.67993 55.2818ZM3.90536 50.1365C3.63062 49.6317 3.35052 49.144 3.069 48.6542L5.49425 47.0247C5.77323 47.5102 6.07128 48.0287 6.36621 48.5707L3.90536 50.1365ZM3.069 48.6542C2.11124 46.9875 0.997779 45.1086 0.787102 43.0947L3.62428 42.7477C3.7476 43.9264 4.42803 45.1694 5.49425 47.0247L3.069 48.6542ZM0.787102 43.0947C0.669493 41.9705 0.584919 38.3132 0.598396 34.7872C0.605206 33.0039 0.637214 31.2125 0.705598 29.7413C0.739733 29.0068 0.783632 28.3362 0.840081 27.7789C0.892376 27.2626 0.966614 26.7157 1.0969 26.3055L3.79731 27.3084C3.79821 27.3057 3.79282 27.3226 3.78325 27.3662C3.77403 27.4083 3.76312 27.4651 3.75114 27.5386C3.72699 27.6866 3.70236 27.8784 3.67839 28.115C3.63045 28.5884 3.58999 29.1925 3.55729 29.8962C3.49198 31.3013 3.46038 33.0405 3.45365 34.7998C3.44006 38.3589 3.52866 41.8335 3.62428 42.7477L0.787102 43.0947ZM1.0969 26.3055C1.6186 24.6634 3.2301 23.6032 4.83642 23.6441C6.65471 23.6904 8.23905 25.0558 8.96137 27.6098L6.23089 28.5127C5.78204 26.9255 5.08576 26.7387 4.76925 26.7306C4.2408 26.7171 3.86337 27.1005 3.79731 27.3084L1.0969 26.3055ZM8.96137 27.6098C9.59533 29.8516 9.78378 32.6691 9.94567 35.0008L7.09842 35.2321C6.92929 32.7965 6.75268 30.3576 6.23089 28.5127L8.96137 27.6098ZM9.94567 35.0008C10.0316 36.2392 10.109 37.3443 10.2286 38.2677C10.3545 39.2403 10.5032 39.7854 10.6288 40.0244L8.1464 41.5498C7.72846 40.7547 7.52934 39.688 7.40087 38.6957C7.26601 37.6541 7.18238 36.4409 7.09842 35.2321L9.94567 35.0008ZM10.6288 40.0244C11.1239 40.9663 12.2129 42.6819 13.22 44.2194C13.7149 44.9752 14.1772 45.6685 14.5158 46.1729C14.685 46.425 14.8232 46.6297 14.9189 46.7711C14.9667 46.8418 15.004 46.8966 15.0291 46.9337C15.0416 46.9522 15.0512 46.9664 15.0576 46.9756C15.0608 46.9804 15.0632 46.9838 15.0648 46.9861C15.0655 46.9874 15.0661 46.9881 15.0665 46.9888C15.0666 46.9889 15.0668 46.9892 15.0668 46.9894C15.0669 46.9894 15.0669 46.9894 15.0669 46.9894C15.0669 46.9894 15.0669 46.9894 13.9172 47.9048C12.7677 48.82 12.7677 48.82 12.7675 48.8199C12.7675 48.8199 12.7675 48.8197 12.7674 48.8197C12.7673 48.8194 12.7671 48.8192 12.7668 48.8188C12.7664 48.8182 12.7657 48.8172 12.7648 48.8158C12.7631 48.8132 12.7606 48.8095 12.7571 48.8044C12.7504 48.7945 12.7404 48.7799 12.7274 48.7607C12.7013 48.7225 12.6633 48.6663 12.6145 48.5942C12.5169 48.45 12.3767 48.2421 12.2051 47.9864C11.862 47.4753 11.393 46.772 10.8898 46.0036C9.90013 44.4928 8.72437 42.6495 8.1464 41.5498L10.6288 40.0244ZM12.6442 48.6031L9.66257 42.2493L12.2089 40.8524L15.1904 47.2063L12.6442 48.6031ZM10.9357 41.5507C9.68955 42.3041 9.68927 42.3033 9.68884 42.3027C9.68884 42.3024 9.68841 42.3017 9.68812 42.3013C9.6877 42.3004 9.68727 42.2994 9.6867 42.2983C9.6857 42.2965 9.6847 42.2945 9.6837 42.2925C9.68156 42.2883 9.67941 42.284 9.67713 42.2794C9.67256 42.2703 9.66757 42.2601 9.66228 42.2489C9.65172 42.2267 9.63958 42.2006 9.62659 42.1707C9.60032 42.1108 9.56963 42.0355 9.53722 41.945C9.47226 41.7638 9.40031 41.522 9.34149 41.2216C9.22328 40.6171 9.16225 39.7916 9.30923 38.7654L12.1308 39.2379C12.0387 39.8811 12.0856 40.3302 12.135 40.5829C12.1601 40.7111 12.1868 40.7936 12.1996 40.8295C12.2061 40.8476 12.2092 40.8541 12.2069 40.8488C12.2056 40.8462 12.2032 40.8407 12.1992 40.832C12.1971 40.8279 12.1946 40.8228 12.1918 40.817C12.1904 40.8143 12.1888 40.8112 12.1872 40.8079C12.1864 40.8062 12.1855 40.8045 12.1846 40.8028C12.1842 40.8021 12.1838 40.8011 12.1834 40.8002C12.1831 40.7998 12.1828 40.7991 12.1826 40.799C12.1822 40.7982 12.1819 40.7976 10.9357 41.5507ZM9.30923 38.7654C9.48026 37.5709 10.1562 36.2458 10.9873 35.4494C11.3934 35.0601 12.0622 34.5825 12.9012 34.628C13.8784 34.6811 14.5293 35.3912 14.8837 36.1694L12.3223 37.5335C12.2841 37.4498 12.2853 37.4897 12.3665 37.5584C12.4622 37.6393 12.6025 37.703 12.758 37.7115C13.0147 37.7254 13.0602 37.5883 12.8812 37.7598C12.7371 37.8978 12.5593 38.1371 12.4042 38.4426C12.249 38.7485 12.1597 39.0366 12.1308 39.2379L9.30923 38.7654ZM14.8837 36.1694C15.2437 36.9594 15.7563 37.7452 16.2015 38.3543C16.42 38.6536 16.6139 38.8989 16.7517 39.0676C16.8203 39.1517 16.8746 39.2163 16.9104 39.2583C16.9283 39.2792 16.9415 39.2945 16.9497 39.3039C16.9537 39.3086 16.9564 39.3117 16.9578 39.3134C16.9585 39.3141 16.959 39.3146 16.959 39.3146C16.959 39.3146 16.9588 39.3144 16.9587 39.3143C16.9585 39.3141 16.9585 39.3141 16.9584 39.314C16.9583 39.3138 16.9583 39.3137 16.9581 39.3137C16.958 39.3135 16.958 39.3134 15.9254 40.3796C14.8929 41.4456 14.8927 41.4455 14.8926 41.4453C14.8926 41.4452 14.8925 41.445 14.8923 41.4449C14.8922 41.4447 14.8919 41.4444 14.8916 41.4441C14.891 41.4435 14.8905 41.4428 14.8897 41.4419C14.8883 41.4404 14.8866 41.4384 14.8845 41.4359C14.8802 41.4311 14.8746 41.4246 14.8676 41.4166C14.8536 41.4006 14.8343 41.3782 14.8102 41.3498C14.7618 41.2931 14.6942 41.2124 14.6111 41.1108C14.4455 40.9078 14.2173 40.619 13.9609 40.2681C13.4561 39.5772 12.8077 38.5988 12.3223 37.5335L14.8837 36.1694ZM17.0406 39.4157L22.2585 46.4741L20.0283 48.4017L14.8102 41.3433L17.0406 39.4157ZM21.1434 47.4378C22.2896 46.5176 22.2898 46.518 22.2899 46.5181C22.2899 46.5181 22.2901 46.5183 22.2902 46.5184C22.2904 46.5187 22.2906 46.519 22.2908 46.5193C22.2914 46.5201 22.2919 46.5209 22.2926 46.522C22.2939 46.524 22.2958 46.5266 22.2979 46.5298C22.3023 46.5363 22.3083 46.545 22.3158 46.5561C22.3306 46.5782 22.3515 46.6092 22.3774 46.6484C22.4293 46.7268 22.5019 46.8381 22.5886 46.975C22.7609 47.2478 22.9929 47.6292 23.2286 48.0608C23.462 48.4883 23.7126 48.9892 23.912 49.4977C24.1002 49.9778 24.2955 50.5937 24.3169 51.2153L21.4636 51.3299C21.4616 51.2721 21.4269 51.0691 21.2833 50.7028C21.1507 50.3649 20.9675 49.9921 20.7701 49.6308C20.5749 49.2734 20.379 48.9509 20.2311 48.7169C20.1576 48.6007 20.0969 48.5077 20.0557 48.4454C20.0351 48.4143 20.0194 48.3909 20.0093 48.3761C20.0043 48.3685 20.0007 48.3632 19.9986 48.3602C19.9976 48.3588 19.997 48.3578 19.9967 48.3574C19.9966 48.3572 19.9966 48.3572 19.9966 48.3572C19.9967 48.3574 19.9967 48.3574 19.9968 48.3575C19.9968 48.3577 19.997 48.3577 19.997 48.3578C19.997 48.3578 19.9971 48.358 21.1434 47.4378ZM24.3169 51.2153C24.3472 52.0972 24.7162 55.4809 24.9388 57.4548L22.1045 57.8284C21.8922 55.9456 21.4996 52.3796 21.4636 51.3299L24.3169 51.2153ZM26.4489 59.1853H23.5216V56.0979H26.4489V59.1853Z" fill="#0F4C75"/>
<path d="M32.1078 65.3599H30.6802V66.9036H32.1078V65.3599ZM32.1078 57.6416V56.0979H30.6802V57.6416H32.1078ZM47.8119 65.3599V66.9036H49.2395V65.3599H47.8119ZM47.8119 57.6416H49.2395V56.0979H47.8119V57.6416ZM47.1385 57.6416L45.9699 56.7549L44.3925 59.1853H47.1385V57.6416ZM49.842 54.2184L48.8072 53.1549L49.842 54.2184ZM53.4209 49.3537L52.1906 48.5707L53.4209 49.3537ZM54.2751 47.8395L53.0625 47.0247L54.2751 47.8395ZM56.351 42.9212L54.9324 42.7477L56.351 42.9212ZM56.1096 26.8071L57.4599 26.3055L56.1096 26.8071ZM50.9606 28.0611L52.3258 28.5127L50.9606 28.0611ZM50.0347 35.1164L51.4584 35.2321L50.0347 35.1164ZM49.1691 40.7871L47.928 40.0244L49.1691 40.7871ZM44.6395 47.9048L43.3663 47.2063L45.7891 48.82L44.6395 47.9048ZM47.621 41.5507L46.3748 40.7976L46.3608 40.8246L46.3478 40.8524L47.621 41.5507ZM47.8367 39.0015L49.2475 38.7654L47.8367 39.0015ZM42.6314 40.3796L41.5988 39.3134L41.5554 39.3626L41.5161 39.4157L42.6314 40.3796ZM37.4134 47.4378L36.2982 46.4741L36.2822 46.4956L36.2671 46.5176L37.4134 47.4378ZM35.6665 51.2726L37.0931 51.3299L35.6665 51.2726ZM35.0352 57.6416V59.1853H36.2994L36.4523 57.8284L35.0352 57.6416ZM33.5355 65.3599V57.6416H30.6802V65.3599H33.5355ZM47.8119 63.8162H32.1078V66.9036H47.8119V63.8162ZM46.3842 57.6416V65.3599H49.2395V57.6416H46.3842ZM47.1385 59.1853H47.8119V56.0979H47.1385V59.1853ZM48.3071 58.5284C49.1005 57.306 49.9469 56.3398 50.8767 55.2818L48.8072 53.1549C47.8888 54.1995 46.9013 55.3198 45.9699 56.7549L48.3071 58.5284ZM50.8767 55.2818C52.0938 53.8973 53.4268 52.3868 54.6514 50.1365L52.1906 48.5707C51.1486 50.4855 50.0234 51.7712 48.8072 53.1549L50.8767 55.2818ZM54.6514 50.1365C54.9261 49.6317 55.2062 49.144 55.4877 48.6542L53.0625 47.0247C52.7835 47.5102 52.4854 48.0287 52.1906 48.5707L54.6514 50.1365ZM55.4877 48.6542C56.4456 46.9875 57.559 45.1086 57.7697 43.0947L54.9324 42.7477C54.8092 43.9264 54.1288 45.1694 53.0625 47.0247L55.4877 48.6542ZM57.7697 43.0947C57.8873 41.9705 57.9718 38.3132 57.9583 34.7872C57.9516 33.0039 57.9196 31.2125 57.8512 29.7413C57.8171 29.0068 57.7731 28.3362 57.7167 27.7789C57.6643 27.2626 57.5901 26.7157 57.4599 26.3055L54.7595 27.3084C54.7585 27.3057 54.7639 27.3226 54.7735 27.3662C54.7828 27.4083 54.7936 27.4651 54.8056 27.5386C54.8297 27.6866 54.8544 27.8784 54.8783 28.115C54.9263 28.5884 54.9668 29.1925 54.9995 29.8962C55.0647 31.3013 55.0964 33.0405 55.1031 34.7998C55.1167 38.3589 55.028 41.8335 54.9324 42.7477L57.7697 43.0947ZM57.4599 26.3055C56.9381 24.6634 55.3267 23.6032 53.7203 23.6441C51.9021 23.6904 50.3177 25.0558 49.5954 27.6098L52.3258 28.5127C52.7747 26.9255 53.4711 26.7387 53.7874 26.7306C54.3159 26.7171 54.6934 27.1005 54.7595 27.3084L57.4599 26.3055ZM49.5954 27.6098C48.9614 29.8516 48.773 32.6691 48.6111 35.0008L51.4584 35.2321C51.6274 32.7965 51.8041 30.3576 52.3258 28.5127L49.5954 27.6098ZM48.6111 35.0008C48.5251 36.2392 48.4478 37.3443 48.3281 38.2677C48.2022 39.2403 48.0536 39.7854 47.928 40.0244L50.4103 41.5498C50.8283 40.7547 51.0274 39.688 51.1558 38.6957C51.2908 37.6541 51.3744 36.4409 51.4584 35.2321L48.6111 35.0008ZM47.928 40.0244C47.4328 40.9663 46.3438 42.6819 45.3368 44.2194C44.8418 44.9752 44.3795 45.6685 44.0409 46.1729C43.8717 46.425 43.7335 46.6297 43.6379 46.7711C43.5901 46.8418 43.5528 46.8966 43.5277 46.9337C43.5151 46.9522 43.5055 46.9664 43.4991 46.9756C43.496 46.9804 43.4936 46.9838 43.492 46.9861C43.4913 46.9874 43.4907 46.9881 43.4903 46.9888C43.4901 46.9889 43.49 46.9892 43.49 46.9894C43.4898 46.9894 43.4898 46.9894 43.4898 46.9894C43.4898 46.9894 43.4898 46.9894 44.6395 47.9048C45.7891 48.82 45.7891 48.82 45.7892 48.8199C45.7892 48.8199 45.7892 48.8197 45.7893 48.8197C45.7895 48.8194 45.7896 48.8192 45.7899 48.8188C45.7903 48.8182 45.7911 48.8172 45.7919 48.8158C45.7936 48.8132 45.7962 48.8095 45.7996 48.8044C45.8063 48.7945 45.8163 48.7799 45.8293 48.7607C45.8554 48.7225 45.8934 48.6663 45.9422 48.5942C46.0399 48.45 46.1801 48.2421 46.3517 47.9864C46.6948 47.4753 47.1637 46.772 47.667 46.0036C48.6566 44.4928 49.8324 42.6495 50.4103 41.5498L47.928 40.0244ZM45.9125 48.6031L48.8942 42.2493L46.3478 40.8524L43.3663 47.2063L45.9125 48.6031ZM47.621 41.5507C48.8672 42.3041 48.8675 42.3033 48.8679 42.3027C48.8679 42.3024 48.8683 42.3017 48.8686 42.3013C48.8691 42.3004 48.8695 42.2994 48.8701 42.2983C48.871 42.2965 48.8721 42.2945 48.8731 42.2925C48.8752 42.2883 48.8773 42.284 48.8796 42.2794C48.8842 42.2703 48.8892 42.2601 48.8945 42.2489C48.905 42.2267 48.9172 42.2006 48.9302 42.1707C48.9564 42.1108 48.9871 42.0355 49.0195 41.945C49.0845 41.7638 49.1564 41.522 49.2153 41.2216C49.3335 40.6171 49.3946 39.7916 49.2475 38.7654L46.4259 39.2379C46.518 39.8811 46.4712 40.3302 46.4218 40.5829C46.3967 40.7111 46.37 40.7936 46.3571 40.8295C46.3507 40.8476 46.3476 40.8541 46.3498 40.8488C46.3511 40.8462 46.3535 40.8407 46.3575 40.832C46.3597 40.8279 46.3621 40.8228 46.365 40.817C46.3664 40.8143 46.368 40.8112 46.3695 40.8079C46.3704 40.8062 46.3713 40.8045 46.3721 40.8028C46.3725 40.8021 46.373 40.8011 46.3734 40.8002C46.3737 40.7998 46.374 40.7991 46.3741 40.799C46.3745 40.7982 46.3748 40.7976 47.621 41.5507ZM49.2475 38.7654C49.0765 37.5709 48.4005 36.2458 47.5695 35.4494C47.1633 35.0601 46.4946 34.5825 45.6556 34.628C44.6784 34.6811 44.0275 35.3912 43.673 36.1694L46.2345 37.5335C46.2726 37.4498 46.2715 37.4897 46.1902 37.5584C46.0946 37.6393 45.9542 37.703 45.7988 37.7115C45.5421 37.7254 45.4965 37.5883 45.6756 37.7598C45.8196 37.8978 45.9975 38.1371 46.1525 38.4426C46.3077 38.7485 46.3971 39.0366 46.4259 39.2379L49.2475 38.7654ZM43.673 36.1694C43.3131 36.9594 42.8004 37.7452 42.3553 38.3543C42.1367 38.6536 41.9428 38.8989 41.8051 39.0676C41.7364 39.1517 41.6822 39.2163 41.6463 39.2583C41.6285 39.2792 41.6152 39.2945 41.6071 39.3039C41.6031 39.3086 41.6004 39.3117 41.5989 39.3134C41.5982 39.3141 41.5978 39.3146 41.5978 39.3146C41.5978 39.3146 41.5979 39.3144 41.5981 39.3143C41.5982 39.3141 41.5982 39.3141 41.5984 39.314C41.5985 39.3138 41.5985 39.3137 41.5986 39.3137C41.5988 39.3135 41.5988 39.3134 42.6314 40.3796C43.6639 41.4456 43.664 41.4455 43.6642 41.4453C43.6642 41.4452 43.6643 41.445 43.6644 41.4449C43.6646 41.4447 43.6649 41.4444 43.6652 41.4441C43.6657 41.4435 43.6663 41.4428 43.667 41.4419C43.6684 41.4404 43.6701 41.4384 43.6723 41.4359C43.6766 41.4311 43.6821 41.4246 43.6891 41.4166C43.7031 41.4006 43.7224 41.3782 43.7465 41.3498C43.7949 41.2931 43.8626 41.2124 43.9457 41.1108C44.1113 40.9078 44.3394 40.619 44.5958 40.2681C45.1006 39.5772 45.7491 38.5988 46.2345 37.5335L43.673 36.1694ZM41.5161 39.4157L36.2982 46.4741L38.5285 48.4017L43.7465 41.3433L41.5161 39.4157ZM37.4134 47.4378C36.2671 46.5176 36.267 46.518 36.2668 46.5181C36.2668 46.5181 36.2667 46.5183 36.2665 46.5184C36.2664 46.5187 36.2661 46.519 36.266 46.5193C36.2654 46.5201 36.2648 46.5209 36.2641 46.522C36.2628 46.524 36.261 46.5266 36.2588 46.5298C36.2544 46.5363 36.2484 46.545 36.241 46.5561C36.2261 46.5782 36.2053 46.6092 36.1793 46.6484C36.1275 46.7268 36.0548 46.8381 35.9682 46.975C35.7958 47.2478 35.5639 47.6292 35.3282 48.0608C35.0947 48.4883 34.8442 48.9892 34.6447 49.4977C34.4566 49.9778 34.2613 50.5937 34.2399 51.2153L37.0931 51.3299C37.0951 51.2721 37.1298 51.0691 37.2735 50.7028C37.4061 50.3649 37.5893 49.9921 37.7867 49.6308C37.9819 49.2734 38.1777 48.9509 38.3256 48.7169C38.3992 48.6007 38.4598 48.5077 38.5011 48.4454C38.5216 48.4143 38.5373 48.3909 38.5475 48.3761C38.5525 48.3685 38.556 48.3632 38.5582 48.3602C38.5592 48.3588 38.5598 48.3578 38.56 48.3574C38.5602 48.3572 38.5602 48.3572 38.5602 48.3572C38.56 48.3574 38.56 48.3574 38.5599 48.3575C38.5599 48.3577 38.5598 48.3577 38.5598 48.3578C38.5598 48.3578 38.5596 48.358 37.4134 47.4378ZM34.2399 51.2153C34.2096 52.0972 33.8405 55.4809 33.618 57.4548L36.4523 57.8284C36.6646 55.9456 37.0572 52.3796 37.0931 51.3299L34.2399 51.2153ZM32.1078 59.1853H35.0352V56.0979H32.1078V59.1853Z" fill="#0F4C75"/>
</svg>
