<svg width="50" height="50" viewBox="0 0 50 50" fill="none" xmlns="http://www.w3.org/2000/svg">
<g filter="url(#filter0_b_49_16)">
<rect width="50" height="50" rx="20" fill="white"/>
<path fill-rule="evenodd" clip-rule="evenodd" d="M26.3721 23.8572L25.751 25.8611C24.4637 27.5836 22.8036 27.6725 19.9154 27.5474C20.4905 27.9357 20.4117 27.7522 21.2833 27.8217L21.2634 29.8835C20.5912 30.2787 20.8707 29.9708 20.5609 30.113C19.6661 30.5236 19.8548 29.8823 19.93 33.3504C20.2676 34.961 20.5751 35.8522 21.3517 37.0357C21.8915 37.8585 22.8499 38.7681 23.8827 39.3522C25.9695 40.5324 29.1075 40.8355 31.6315 39.6919C38.284 36.6778 35.673 29.1534 36.357 24.8312L35.2226 24.9886L33.7485 24.8144C33.0385 27.354 34.2808 31.0761 33.4393 33.3694C33.3494 36.1163 29.8514 38.643 26.5632 37.6565C23.2369 36.6587 22.5724 34.2711 22.5931 30.3356C23.3717 29.8935 24.3032 30.0985 25.6365 29.3703C26.7208 28.7782 27.1803 28.4492 27.7609 27.5588C28.403 26.5744 29.5099 23.5656 29.4349 22.2234L29.3579 21.8801C29.3534 21.7935 29.3296 21.7646 29.3021 21.7123L27.385 21.3501C26.6835 21.4818 26.8886 21.5606 26.6865 22.4582C26.5683 22.9825 26.5238 23.3472 26.3721 23.8572Z" fill="#811A0A"/>
<path fill-rule="evenodd" clip-rule="evenodd" d="M13.1085 21.6826C12.7858 23.1625 14.0187 26.6626 14.7325 27.6214C15.7679 29.012 17.5264 29.9878 19.8946 30.1108L19.93 33.3502C19.8548 29.8822 19.6661 30.5234 20.5609 30.1129C20.8707 29.9707 20.5912 30.2786 21.2634 29.8833L21.2833 27.8216C20.4117 27.7521 20.4905 27.9356 19.9154 27.5473C18.5449 27.3777 17.1855 26.82 16.754 25.707C16.2664 25.0926 16.2761 24.9161 16.1348 23.9454C16.0007 23.425 15.9403 23.0492 15.8154 22.5208C15.5957 21.5913 15.8078 21.8218 15.275 21.3994L13.1085 21.6826Z" fill="#D3330B"/>
<path fill-rule="evenodd" clip-rule="evenodd" d="M25.2661 13.4233C30.5184 12.4628 27.4494 18.5161 27.385 21.3496L29.3021 21.7118C29.3904 19.5979 30.8674 16.8634 30.3991 14.5345C29.8337 11.722 27.9813 11.7183 25.2728 11.291L25.2661 13.4233Z" fill="#94B4A4"/>
<path fill-rule="evenodd" clip-rule="evenodd" d="M13.1085 21.6828L15.275 21.3996C14.8685 20.1605 14.4352 17.9325 14.1487 16.409C13.6578 13.7981 14.7661 13.4888 17.2055 13.2463L17.1946 11.409C14.3787 11.321 12.4805 12.2884 12.0607 14.732C11.6571 17.0813 13.4136 19.8853 13.1085 21.6828Z" fill="#BAD4CB"/>
<path fill-rule="evenodd" clip-rule="evenodd" d="M33.4393 33.3683C34.2808 31.0751 33.0385 27.353 33.7485 24.8135L35.2226 24.9877L34.9653 24.4822C34.7758 23.98 34.8909 23.7056 34.9524 23.0016C34.3668 22.9723 34.0773 22.7369 33.6723 22.4378C33.5724 21.003 33.8127 20.6301 35.2774 20.5578C35.224 20.5031 35.0865 20.2998 35.0592 20.239C34.7579 19.5663 34.8825 19.2631 35.0333 18.6118C31.091 18.8507 30.4562 23.1061 33.403 24.6401L33.4393 33.3683Z" fill="#BAD4CB"/>
<path fill-rule="evenodd" clip-rule="evenodd" d="M35.2774 20.5578C36.5829 21.3971 36.5727 22.6706 34.9524 23.0015C34.8909 23.7055 34.7758 23.9798 34.9653 24.4821L35.2226 24.9875L36.357 24.8302C36.9886 24.1236 37.1092 24.4018 37.6855 23.5906C38.1763 22.8996 38.322 22.0095 38.1394 21.0812C37.8658 19.6894 36.5606 18.6921 35.0333 18.6118C34.8825 19.2631 34.7579 19.5663 35.0592 20.239C35.0865 20.2998 35.224 20.5031 35.2774 20.5578Z" fill="#94B4A4"/>
<path fill-rule="evenodd" clip-rule="evenodd" d="M19.9154 27.5471C22.8036 27.6723 24.4637 27.5834 25.751 25.8607L21.1247 25.9303C19.8111 25.9493 17.6444 26.1327 16.754 25.7065C17.1855 26.8197 18.5449 27.3775 19.9154 27.5471Z" fill="#FDFDFD"/>
<path fill-rule="evenodd" clip-rule="evenodd" d="M21.1247 25.9304L25.751 25.8608L26.3721 23.8569L21.2025 23.9238L21.1247 25.9304Z" fill="#94B4A4"/>
<path fill-rule="evenodd" clip-rule="evenodd" d="M16.754 25.7065C17.6444 26.1326 19.8111 25.9493 21.1247 25.9303L21.2025 23.9233L16.1348 23.9447C16.2761 24.9156 16.2664 25.0921 16.754 25.7065Z" fill="#BAD4CB"/>
<path fill-rule="evenodd" clip-rule="evenodd" d="M17.2055 13.2457C17.3919 13.9229 19.1507 13.615 19.8435 13.5796L19.8606 11.1061C19.0418 11.0299 17.6065 10.8006 17.1946 11.4085L17.2055 13.2457Z" fill="#D3330B"/>
<path fill-rule="evenodd" clip-rule="evenodd" d="M25.2661 13.4231L25.2728 11.2906L24.1046 11.0268C23.6501 11.0093 23.0792 11.0411 22.6048 11.0367L22.609 13.6367C23.1108 13.6276 23.6383 13.6524 24.1029 13.6388L25.2661 13.4231Z" fill="#811A0A"/>
<path fill-rule="evenodd" clip-rule="evenodd" d="M34.9524 23.0018C36.5727 22.671 36.5829 21.3974 35.2774 20.5581C33.8127 20.6304 33.5724 21.0032 33.6723 22.4381C34.0773 22.7371 34.3668 22.9726 34.9524 23.0018Z" fill="#FDFDFD"/>
<path fill-rule="evenodd" clip-rule="evenodd" d="M15.2752 21.3985C14.8688 20.1592 14.4352 17.9317 14.149 16.407C13.6577 13.7978 14.7661 13.4881 17.2052 13.2454L17.1944 11.4083C14.3788 11.3204 12.4806 12.2871 12.0606 14.7304C11.6569 17.0799 13.4137 19.8837 13.1086 21.6809L15.2752 21.3985Z" fill="#3182B7"/>
<path fill-rule="evenodd" clip-rule="evenodd" d="M25.266 13.4241C30.5187 12.463 27.4496 18.5166 27.385 21.3503L29.3022 21.7122C29.3905 19.5984 30.8674 16.8641 30.3992 14.5343C29.8336 11.722 27.981 11.7191 25.2728 11.2917L25.266 13.4241Z" fill="#3182B7"/>
<path fill-rule="evenodd" clip-rule="evenodd" d="M21.2026 23.9241L16.135 23.9454C16.2763 24.9165 16.2661 25.0927 16.754 25.7074C17.6443 26.1334 19.8109 25.9502 21.1246 25.9318L21.2026 23.9241Z" fill="#3182B7"/>
<path fill-rule="evenodd" clip-rule="evenodd" d="M35.0333 18.6104C31.0909 18.8504 30.4562 23.1053 33.4029 24.6401L33.4396 33.3687C34.281 31.0757 33.0387 27.3532 33.7489 24.8133L35.2223 24.9879L34.9653 24.4825C34.7757 23.9799 34.8906 23.7059 34.9524 23.0017C34.3666 22.9718 34.0772 22.7362 33.6721 22.438C33.5722 21.0027 33.8128 20.6292 35.2773 20.5569C35.2243 20.5028 35.0863 20.2999 35.0591 20.2388C34.7581 19.5659 34.8824 19.2621 35.0333 18.6104Z" fill="#3182B7"/>
<path fill-rule="evenodd" clip-rule="evenodd" d="M26.3725 23.8579L21.2026 23.9246L21.1246 25.9312L25.7513 25.8602L26.3725 23.8579Z" fill="#0C4B75"/>
<path fill-rule="evenodd" clip-rule="evenodd" d="M35.2773 20.5573C36.5828 21.3979 36.5726 22.6718 34.9524 23.0026C34.8906 23.707 34.7757 23.9811 34.9653 24.4837L35.2223 24.9893L36.3572 24.8317C36.9885 24.1244 37.1095 24.4029 37.6858 23.5919C38.1764 22.9003 38.3219 22.0101 38.1397 21.0813C37.8659 19.6896 36.5604 18.6912 35.0333 18.6104C34.8824 19.2623 34.7581 19.5661 35.0591 20.2391C35.0863 20.3003 35.2243 20.5032 35.2773 20.5573Z" fill="#0C4B75"/>
<path fill-rule="evenodd" clip-rule="evenodd" d="M17.2052 13.2485C17.3921 13.9259 19.151 13.6177 19.8435 13.5822L19.8605 11.1087C19.0415 11.032 17.6061 10.8033 17.1944 11.411L17.2052 13.2485Z" fill="#0C4B75"/>
<path fill-rule="evenodd" clip-rule="evenodd" d="M22.6047 11.0371L22.6088 13.6365C23.111 13.6265 23.6384 13.6521 24.1032 13.6378L25.266 13.4235L25.2728 11.2912L24.1046 11.0272C23.6499 11.0088 23.079 11.0414 22.6047 11.0371Z" fill="#1A252B"/>
<path fill-rule="evenodd" clip-rule="evenodd" d="M25.7513 25.86C24.4634 27.5835 22.8038 27.6716 19.9155 27.5466C20.4905 27.9356 20.4116 27.751 21.2835 27.8206L21.2632 29.8835C20.591 30.2782 20.871 29.9701 20.5612 30.112C20.1519 30.3003 19.9693 30.2683 19.8987 30.5096L19.9298 33.3505C20.2675 34.9603 20.5754 35.8519 21.3516 37.036C21.8917 37.858 22.85 38.768 23.883 39.353C25.9694 40.5327 29.1079 40.8351 31.6318 39.6924C38.2838 36.6781 35.6729 29.1522 36.3572 24.8307L35.2223 24.9883L33.7489 24.8138C32.6698 24.4506 33.5147 25.2529 33.4396 33.3689C33.3493 36.116 29.8513 38.6431 26.5634 37.6564C23.2367 36.6584 22.572 34.2703 22.5931 30.3349C23.3719 29.8934 24.303 30.0978 25.6364 29.3695C26.721 28.7775 27.1805 28.4481 27.7608 27.5579C28.4031 26.5741 29.5101 23.5644 29.4347 22.2228L29.3579 21.879C29.3532 21.7925 29.3294 21.7641 29.3022 21.7116L27.385 21.3496C26.6837 21.4816 26.8889 21.5597 26.6864 22.457C26.5681 22.9823 26.5239 23.3471 26.3725 23.8568L25.7513 25.86Z" fill="#1A252B"/>
<path fill-rule="evenodd" clip-rule="evenodd" d="M21.2835 27.8206C20.4116 27.7509 20.4905 27.9356 19.9155 27.5465C18.5448 27.3776 17.1856 26.8196 16.754 25.7064C16.2661 25.0916 16.2763 24.9154 16.135 23.9443C16.001 23.4231 15.9405 23.0482 15.8154 22.5187C15.596 21.59 15.808 21.82 15.2752 21.3984L13.1086 21.6809C12.7858 23.1605 14.0186 26.662 14.7328 27.6204C15.7678 29.0119 17.5267 29.9874 19.8944 30.1109L19.8987 30.5099C19.9693 30.2686 20.1519 30.3006 20.5612 30.1123C20.871 29.9704 20.591 30.2785 21.2632 29.8838L21.2835 27.8206Z" fill="#0C4B75"/>
<path fill-rule="evenodd" clip-rule="evenodd" d="M19.9155 27.5458C22.8038 27.6706 24.4634 27.5827 25.7513 25.8603L21.1246 25.9312C19.8109 25.9496 17.6443 26.1326 16.754 25.707C17.1856 26.8194 18.5448 27.377 19.9155 27.5458Z" fill="#BBE0FA"/>
</g>
<defs>
<filter id="filter0_b_49_16" x="-15" y="-15" width="80" height="80" filterUnits="userSpaceOnUse" color-interpolation-filters="sRGB">
<feFlood flood-opacity="0" result="BackgroundImageFix"/>
<feGaussianBlur in="BackgroundImage" stdDeviation="7.5"/>
<feComposite in2="SourceAlpha" operator="in" result="effect1_backgroundBlur_49_16"/>
<feBlend mode="normal" in="SourceGraphic" in2="effect1_backgroundBlur_49_16" result="shape"/>
</filter>
</defs>
</svg>
