<svg width="51" height="50" viewBox="0 0 51 50" fill="none" xmlns="http://www.w3.org/2000/svg">
<g filter="url(#filter0_b_36_115)">
<rect x="0.400024" y="0.172607" width="50" height="49.7602" rx="20" fill="#BBE1FA" fill-opacity="0.5"/>
<path fill-rule="evenodd" clip-rule="evenodd" d="M19.9739 14.3462L21.8153 14.3681L21.97 16.6665L23.7677 16.6766L23.7381 18.7495C23.0532 19.1235 22.7508 18.9537 21.8493 19.018L21.8545 21.2668L19.9898 21.3314L19.9792 19.055L18.1072 18.981L18.1894 16.66L19.9649 16.6385L19.9739 14.3462ZM11.3032 23.5598L30.6328 23.5979L30.5999 11.9466L30.573 11.7903L28.0978 11.8517L11.2245 11.9856L11.3032 23.5598Z" fill="#C7FEE9"/>
<path fill-rule="evenodd" clip-rule="evenodd" d="M13.0726 33.6781C13.0856 30.4641 14.2809 28.5359 16.8734 28.3629C19.1842 28.5617 20.6398 30.4856 20.5579 33.5836C21.5937 32.4559 28.5031 33.0128 30.6163 33.0933L30.7408 26.0166L11.2305 26.1513L11.1914 32.8501C12.4741 33.6367 12.2477 32.2955 13.0726 33.6781Z" fill="#B6D6C9"/>
<path fill-rule="evenodd" clip-rule="evenodd" d="M30.5999 11.948L30.6328 23.598L11.3032 23.5599L11.2432 23.8072L30.5868 23.7555L30.5921 25.9926L11.2087 25.9171L11.2305 26.1511L30.7408 26.0164L30.6163 33.0932L30.7039 33.7855C30.7112 30.2918 31.7616 28.718 34.4043 28.2987C36.7651 28.8526 37.9745 30.1334 38.1188 33.3544L39.9575 33.0217L40.0874 26.1572L32.4959 26.0298L32.4713 15.0497L37.6299 15.1198L36.966 11.8745L33.1817 11.9122L30.5999 11.948Z" fill="#95B6A5"/>
<path fill-rule="evenodd" clip-rule="evenodd" d="M40.0874 26.157L37.6299 15.1193L32.4713 15.0492L32.4959 26.0295L40.0874 26.157Z" fill="#C7FEE9"/>
<path fill-rule="evenodd" clip-rule="evenodd" d="M11.2087 25.9163L30.5921 25.9918L30.5868 23.7545L11.2432 23.8062L11.2087 25.9163Z" fill="#D32E0A"/>
<path fill-rule="evenodd" clip-rule="evenodd" d="M30.7039 33.7855C30.848 35.7677 32.2961 37.3464 33.5533 37.6765L34.6796 37.7013C35.1787 37.557 34.8846 37.7002 35.1662 37.447L34.2005 37.4178C34.4949 36.7825 34.4182 35.8736 34.3872 34.9429C32.2478 34.8598 32.1716 30.9265 34.9084 31.1691C34.8465 31.115 34.7647 30.9255 34.7345 30.9877L34.4043 28.2977C31.7616 28.7172 30.7112 30.2912 30.7039 33.7855Z" fill="#44958A"/>
<path fill-rule="evenodd" clip-rule="evenodd" d="M13.0726 33.6778C13.3913 35.3324 13.965 36.1811 14.6623 36.8717C15.3086 37.512 17.0212 38.3043 17.7484 37.3982L16.6137 37.4725C16.9706 36.4726 16.8964 36.1044 16.8415 35.0105C14.8436 34.6214 14.4168 31.1974 17.2136 31.1389C16.7097 30.3842 16.8158 29.7317 16.8734 28.3622C14.2809 28.5352 13.0856 30.4636 13.0726 33.6778Z" fill="#44958A"/>
<path fill-rule="evenodd" clip-rule="evenodd" d="M17.2136 31.139C18.0939 31.6036 18.4738 32.1668 18.3093 33.6794C17.8741 34.7189 17.7682 34.7987 16.8415 35.0108C16.8964 36.1048 16.9706 36.4729 16.6137 37.4729L17.7484 37.3986C19.3359 37.3481 20.3163 35.6724 20.5579 33.5835C20.6398 30.4851 19.1842 28.561 16.8734 28.3622C16.8158 29.7318 16.7097 30.3843 17.2136 31.139Z" fill="#037D69"/>
<path fill-rule="evenodd" clip-rule="evenodd" d="M34.9084 31.1688C35.4798 31.6876 36.0505 31.9846 35.9018 33.3885C35.7776 34.5616 35.1474 34.8434 34.3872 34.9422C34.4182 35.8728 34.4949 36.7816 34.2005 37.4168L35.1662 37.446C36.8473 37.4394 37.9702 35.6118 38.1188 33.3538C37.9745 30.1326 36.7651 28.8517 34.4043 28.2977L34.7345 30.9874C34.7647 30.9253 34.8465 31.1147 34.9084 31.1688Z" fill="#037D69"/>
<path fill-rule="evenodd" clip-rule="evenodd" d="M19.9649 16.6386L18.1894 16.66L18.1072 18.9809L19.9792 19.0549L19.9898 21.3312L21.8545 21.2666L21.8493 19.018C22.7508 18.9537 23.0532 19.1234 23.7381 18.7495L23.7677 16.6766L21.97 16.6665L21.8153 14.3683L19.9739 14.3463L19.9649 16.6386Z" fill="#D32E0A"/>
<path fill-rule="evenodd" clip-rule="evenodd" d="M16.8415 35.0101C17.7682 34.7981 17.8741 34.7184 18.3093 33.679C18.4738 32.1669 18.0939 31.6038 17.2136 31.1393C14.4168 31.1978 14.8436 34.6211 16.8415 35.0101Z" fill="#E3FEF4"/>
<path fill-rule="evenodd" clip-rule="evenodd" d="M34.3872 34.943C35.1474 34.8441 35.7776 34.5623 35.9018 33.3888C36.0505 31.9845 35.4798 31.6873 34.9084 31.1684C32.1716 30.9258 32.2478 34.8598 34.3872 34.943Z" fill="#E3FEF4"/>
<path fill-rule="evenodd" clip-rule="evenodd" d="M30.573 11.7915L30.7405 8.97043L33.0874 8.81811L33.054 11.9634L30.573 11.7915ZM28.0978 11.8529L30.573 11.7915L30.5999 11.9478L33.1817 11.9119L33.2374 8.81674C32.2557 8.55505 29.2028 8.74995 28.1816 8.93061L28.0978 11.8529Z" fill="#F38E6E"/>
<path fill-rule="evenodd" clip-rule="evenodd" d="M30.573 11.7901L33.054 11.962L33.0874 8.81714L30.7405 8.96944L30.573 11.7901Z" fill="#D32E0A"/>
<path fill-rule="evenodd" clip-rule="evenodd" d="M17.9979 16.2826L17.9157 18.6038L19.7877 18.6777L19.7982 20.954L21.6629 20.8891L21.658 18.6405C22.5592 18.5761 22.8618 18.746 23.5467 18.3723L23.5762 16.2994L21.7785 16.2893L21.6238 13.9905L19.7824 13.9685L19.7734 16.261L17.9979 16.2826Z" fill="white"/>
<path fill-rule="evenodd" clip-rule="evenodd" d="M30.3953 23.3785L11.0515 23.4306L11.0174 25.5405L30.4006 25.6158L30.3953 23.3785Z" fill="#0C4B75"/>
<path fill-rule="evenodd" clip-rule="evenodd" d="M30.3816 11.4134L32.263 11.5438L32.8626 11.5852L32.8632 11.5354L32.8959 8.44043L30.5489 8.59284L30.3816 11.4134Z" fill="#0C4B75"/>
<path fill-rule="evenodd" clip-rule="evenodd" d="M30.3816 11.4146L30.5489 8.59223L32.8959 8.43972L32.8632 11.5366L32.9902 11.5349L33.0459 8.43798C32.0641 8.17643 29.0114 8.37128 27.9902 8.55226L27.9063 11.4757L30.3816 11.4146Z" fill="#3182B7"/>
<path fill-rule="evenodd" clip-rule="evenodd" d="M32.263 11.545L30.4084 11.5707L30.4413 23.2208L11.1117 23.1826L11.0515 23.4303L30.3953 23.3783L30.4006 25.6155L11.0174 25.5401L11.0389 25.7741L30.5493 25.6396L30.425 32.7163L30.5125 33.4084C30.5195 29.9147 31.5702 28.3411 34.2129 27.9216C36.5736 28.4758 37.783 29.7562 37.9272 32.9772L39.766 32.6444L39.8959 25.7804L32.3043 25.6528L32.2798 14.6724L37.4384 14.7427L36.7744 11.4972L32.9902 11.5349L32.8632 11.5366L32.8626 11.5864L32.263 11.545Z" fill="#0C4B75"/>
<path fill-rule="evenodd" clip-rule="evenodd" d="M30.4413 23.2201L30.4084 11.5686L30.3816 11.4126L27.9063 11.4736L11.0329 11.6078L11.1117 23.1819L30.4413 23.2201ZM23.5762 16.299L23.5467 18.372C22.8618 18.7456 22.5592 18.5757 21.658 18.6401L21.6629 20.8887L19.7982 20.9536L19.7877 18.6773L17.9157 18.6034L17.9979 16.2823L19.7734 16.2607L19.7824 13.9682L21.6238 13.9901L21.7785 16.2889L23.5762 16.299Z" fill="#3182B7"/>
<path fill-rule="evenodd" clip-rule="evenodd" d="M30.5493 25.6407L11.0389 25.7753L11 32.4725C12.2826 33.2587 12.0562 31.9181 12.8812 33.3C12.8941 30.0871 14.0894 28.1592 16.6819 27.9859C18.9928 28.1852 20.4483 30.1085 20.3664 33.2052C21.4022 32.0782 28.3116 32.6351 30.425 32.7156L30.5493 25.6407Z" fill="#1A252B"/>
<path fill-rule="evenodd" clip-rule="evenodd" d="M20.3664 33.2059C20.4483 30.1082 18.9928 28.1843 16.6819 27.985C16.6244 29.3548 16.5183 30.0071 17.0222 30.7616C17.9024 31.2266 18.2823 31.7899 18.1179 33.3023C17.6826 34.3418 17.5767 34.4213 16.65 34.6339C16.7048 35.7273 16.7791 36.0954 16.4223 37.0955L17.5569 37.0212C19.1444 36.9705 20.1247 35.2949 20.3664 33.2059Z" fill="#1A252B"/>
<path fill-rule="evenodd" clip-rule="evenodd" d="M35.7102 33.0112C35.5861 34.1847 34.9559 34.4661 34.1957 34.5649C34.2267 35.4957 34.3034 36.4043 34.009 37.04L34.9747 37.069C36.6557 37.0625 37.7788 35.2349 37.9272 32.9764C37.783 29.7551 36.5736 28.4746 34.2129 27.9204L34.5431 30.6101C34.5732 30.5479 34.6551 30.7375 34.717 30.7917C35.2884 31.3103 35.859 31.6072 35.7102 33.0112Z" fill="#1A252B"/>
<path fill-rule="evenodd" clip-rule="evenodd" d="M16.65 34.6339C14.652 34.2443 14.2253 30.8203 17.0222 30.7617C16.5183 30.0071 16.6244 29.3548 16.6819 27.985C14.0894 28.1584 12.8941 30.0869 12.8812 33.3008C13.1999 34.9556 13.7734 35.8042 14.4707 36.495C15.117 37.1348 16.8297 37.9275 17.5569 37.0212L16.4223 37.0955C16.7791 36.0954 16.7048 35.7273 16.65 34.6339Z" fill="#0C4B75"/>
<path fill-rule="evenodd" clip-rule="evenodd" d="M30.5125 33.4081C30.6565 35.3905 32.1046 36.9687 33.3617 37.2991L34.4882 37.3241C34.9872 37.1799 34.6931 37.3226 34.9747 37.0697L34.009 37.0407C34.3034 36.4049 34.2267 35.4962 34.1957 34.5655C32.0562 34.4824 31.9801 30.5491 34.717 30.7919C34.6551 30.7377 34.5732 30.5481 34.5431 30.6103L34.2129 27.9204C31.5702 28.34 30.5195 29.9138 30.5125 33.4081Z" fill="#0C4B75"/>
<path fill-rule="evenodd" clip-rule="evenodd" d="M32.3043 25.6522L39.8959 25.7798L37.4384 14.7415L32.2798 14.6713L32.3043 25.6522Z" fill="#3182B7"/>
<path fill-rule="evenodd" clip-rule="evenodd" d="M18.1179 33.3022C18.2823 31.7898 17.9024 31.2265 17.0222 30.7615C14.2253 30.8201 14.652 34.2443 16.65 34.6339C17.5767 34.4213 17.6826 34.3418 18.1179 33.3022Z" fill="white"/>
<path fill-rule="evenodd" clip-rule="evenodd" d="M34.717 30.7939C31.9801 30.5512 32.0562 34.4821 34.1957 34.5651C34.9559 34.4663 35.5861 34.1851 35.7102 33.0122C35.859 31.6089 35.2884 31.3122 34.717 30.7939Z" fill="white"/>
</g>
<defs>
<filter id="filter0_b_36_115" x="-14.6" y="-14.8274" width="80" height="79.7602" filterUnits="userSpaceOnUse" color-interpolation-filters="sRGB">
<feFlood flood-opacity="0" result="BackgroundImageFix"/>
<feGaussianBlur in="BackgroundImage" stdDeviation="7.5"/>
<feComposite in2="SourceAlpha" operator="in" result="effect1_backgroundBlur_36_115"/>
<feBlend mode="normal" in="SourceGraphic" in2="effect1_backgroundBlur_36_115" result="shape"/>
</filter>
</defs>
</svg>
