<svg width="51" height="50" viewBox="0 0 51 50" fill="none" xmlns="http://www.w3.org/2000/svg">
<g filter="url(#filter0_b_36_125)">
<rect x="0.200012" y="0.172607" width="50" height="49.7602" rx="20" fill="#BBE1FA" fill-opacity="0.5"/>
<path fill-rule="evenodd" clip-rule="evenodd" d="M17.1617 31.0781C18.1808 30.824 17.386 30.8578 18.0505 31.4419C18.4433 31.7871 18.1394 31.6758 18.6824 32.0152L23.4151 27.3113C24.4002 26.3808 25.0328 25.6722 25.8429 24.8461C26.5023 24.1737 27.6416 22.8563 28.3822 22.5322L28.419 22.2489C27.7664 21.8488 26.063 19.7074 25.3044 19.3025C25.2048 20.3261 17.0754 27.4803 15.8763 29.2294C16.8563 30.7336 17.1183 29.8109 17.1617 31.0781Z" fill="#B6D4C8"/>
<path fill-rule="evenodd" clip-rule="evenodd" d="M18.6823 32.0145C18.9622 32.4091 19.0012 32.3457 19.265 32.66C19.8066 33.305 19.579 32.6962 19.665 33.5596C20.2188 33.3926 21.0345 34.4769 21.4703 34.9062L30.6212 25.7591C31.2845 25.2232 30.7258 25.4677 31.4086 25.4139C30.9746 24.7197 30.4083 24.3286 29.8942 23.8418C29.3311 23.3086 29.0347 22.7365 28.3821 22.5325C27.6415 22.8566 26.5022 24.1738 25.8428 24.8461C25.0327 25.6722 24.4001 26.3807 23.415 27.3111L18.6823 32.0145Z" fill="#95B4A4"/>
<path fill-rule="evenodd" clip-rule="evenodd" d="M36.0409 20.3002C36.2527 21.6896 34.9484 21.8615 34.5875 21.1734C34.1418 20.3236 35.0281 19.3694 36.0409 20.3002ZM28.5075 19.7649C27.5896 19.1943 27.3972 18.4516 26.3504 17.9146C25.8089 18.2722 25.1886 18.6208 25.3044 19.3042C26.063 19.7092 27.7664 21.8505 28.419 22.2505C29.0024 21.6228 29.0126 21.6006 29.6037 21.1796C30.4711 21.6652 30.4223 21.8948 31.0426 22.5942C31.1358 21.2839 31.4534 22.1719 32.4375 20.6123C32.4711 20.6571 32.5068 20.6781 32.5179 20.7598C32.8458 23.1566 36.0006 24.3513 37.4399 22.2058C38.1719 21.1145 37.9862 19.6275 37.1341 18.8271C35.6913 17.4721 34.4548 18.6652 33.9583 18.026C33.9301 17.9998 33.6268 17.7646 33.5839 17.7364C33.5604 17.7209 33.4723 17.735 33.4544 17.6763C33.4369 17.6193 33.3669 17.646 33.3239 17.6289C32.5491 18.0971 31.978 18.7655 31.3535 19.3691C30.709 19.9919 30.3219 20.6273 29.6037 21.0073C29.1008 20.5523 28.8465 20.3488 28.5075 19.7649Z" fill="#95B4A4"/>
<path fill-rule="evenodd" clip-rule="evenodd" d="M30.5084 16.1014C30.0807 16.384 29.5619 16.2968 29.2967 15.859C28.916 15.2307 29.281 14.9769 29.6443 14.7506C30.5859 14.1638 31.3474 15.5471 30.5084 16.1014ZM28.5075 19.7632C28.8465 20.347 29.1007 20.5504 29.6036 21.0053C30.3219 20.6254 30.7089 19.9901 31.3535 19.3674C31.978 18.764 32.5491 18.0958 33.3239 17.6277C32.9951 16.7844 33.2914 17.4377 32.7577 16.8024C32.0497 16.0501 33.2491 15.1292 31.9355 13.6545C29.3194 10.7176 24.4904 15.9576 29.5988 18.0273L30.0187 18.2247L28.5075 19.7632Z" fill="#B6D4C8"/>
<path fill-rule="evenodd" clip-rule="evenodd" d="M18.3902 34.4779C18.0951 33.8565 17.9329 33.7088 17.5733 33.3456C17.445 33.2161 17.2761 33.0347 17.1606 32.9437C16.6795 32.5645 17.0982 32.8167 16.6094 32.6237C15.7652 33.2029 13.6299 35.8182 12.9711 36.612L14.1504 37.7228C14.793 37.382 15.5836 36.5371 16.2207 35.9955C17.9684 34.5098 17.4987 34.3038 18.3902 34.4779Z" fill="#B6D4C8"/>
<path fill-rule="evenodd" clip-rule="evenodd" d="M37.4579 13.6185C38.0103 15.0508 37.0545 15.3828 35.8323 15.2394C35.1184 15.2308 35.8678 14.8586 34.6954 16.0177C34.6676 16.0452 34.5864 16.1697 34.5656 16.132C34.5445 16.0934 34.4802 16.2139 34.4308 16.2461C34.6031 16.3769 34.6404 16.3225 34.7724 16.5456C34.9493 16.8446 34.877 16.7245 34.9504 17.0462C36.0526 16.5907 37.0954 17.8305 38.6785 16.1103C39.7036 14.9965 39.5309 13.5206 38.7534 12.352C37.9319 12.3678 38.5293 12.0925 37.9197 12.7035C37.3814 13.2429 37.6177 12.9132 37.4579 13.6185Z" fill="#95B4A4"/>
<path fill-rule="evenodd" clip-rule="evenodd" d="M33.8655 15.6794C34.1981 15.9793 34.0357 15.9031 34.4309 16.2463C34.4803 16.2141 34.5446 16.0936 34.5657 16.1322C34.5865 16.1699 34.6677 16.0454 34.6955 16.0179C35.8679 14.8587 35.1185 15.2309 35.8324 15.2395C35.4961 14.6725 35.3548 14.4864 35.5108 13.5252C36.4001 13.0101 36.682 12.9469 37.458 13.6186C37.6178 12.9132 37.3815 13.243 37.9198 12.7036C38.5294 12.0925 37.932 12.3678 38.7535 12.352C37.947 11.3604 36.316 10.884 34.9632 11.7669C33.3477 12.8213 33.7532 14.0887 33.8655 15.6794Z" fill="#B6D4C8"/>
<path fill-rule="evenodd" clip-rule="evenodd" d="M28.419 22.25L28.3822 22.5333C29.0348 22.7373 29.3312 23.3094 29.8943 23.8426C30.4084 24.3294 30.9747 24.7204 31.4087 25.4146C31.9828 25.5532 32.5264 24.7637 32.7825 24.3392C32.3772 23.6812 31.6096 22.8404 31.0426 22.5937C30.4223 21.8943 30.4712 21.6647 29.6037 21.1792C29.0126 21.6002 29.0024 21.6224 28.419 22.25Z" fill="#439385"/>
<path fill-rule="evenodd" clip-rule="evenodd" d="M16.6093 32.6232C17.0982 32.8163 16.6794 32.564 17.1605 32.9433C17.276 33.0343 17.4449 33.2157 17.5732 33.3452C17.9328 33.7085 18.0951 33.8562 18.3902 34.4777C19.0251 34.43 19.2385 33.9487 19.665 33.5601C19.579 32.6968 19.8066 33.3056 19.265 32.6606C19.0012 32.3463 18.9622 32.4097 18.6823 32.0151C18.1393 31.6757 18.4432 31.7869 18.0504 31.4418C17.3859 30.8578 18.1807 30.824 17.1616 31.078C16.6768 31.5197 16.6419 31.4948 16.2658 32.0825C16.6029 32.7202 15.9472 32.0932 16.6093 32.6232Z" fill="#439385"/>
<path fill-rule="evenodd" clip-rule="evenodd" d="M35.8323 15.2388C37.0545 15.3823 38.0103 15.0502 37.4579 13.6176C36.6819 12.9458 36.4 13.009 35.5107 13.5242C35.3547 14.4855 35.496 14.6717 35.8323 15.2388Z" fill="#FEFEFE"/>
<path fill-rule="evenodd" clip-rule="evenodd" d="M32.7577 16.8031C33.2914 17.4387 32.9951 16.7851 33.3239 17.6287C33.3669 17.6458 33.4369 17.6191 33.4544 17.6761C33.4723 17.7349 33.5604 17.7208 33.5839 17.7363C33.6268 17.7645 33.9301 17.9997 33.9583 18.0259L34.9504 17.0456C34.877 16.7239 34.9493 16.8439 34.7724 16.5449C34.6404 16.3218 34.6031 16.3762 34.4308 16.2453C34.0356 15.9021 34.198 15.9784 33.8654 15.6785C33.3658 15.862 32.94 16.3156 32.7577 16.8031Z" fill="#439385"/>
<path fill-rule="evenodd" clip-rule="evenodd" d="M29.6443 14.7513C29.281 14.9776 28.916 15.2313 29.2967 15.8594C29.5619 16.297 30.0807 16.3842 30.5084 16.1017C31.3474 15.5476 30.5859 14.1647 29.6443 14.7513Z" fill="#FEFEFE"/>
<path fill-rule="evenodd" clip-rule="evenodd" d="M36.0409 20.2994C35.0281 19.3688 34.1418 20.3228 34.5875 21.1724C34.9484 21.8603 36.2527 21.6884 36.0409 20.2994Z" fill="#FEFEFE"/>
<path fill-rule="evenodd" clip-rule="evenodd" d="M15.6644 31.941C15.1248 32.4333 15.0857 32.4049 14.6674 33.0594C15.0429 33.7682 14.3123 33.0708 15.0494 33.6601C15.5939 33.8749 15.1279 33.5945 15.6631 34.0172C15.7919 34.1182 15.9799 34.3203 16.1224 34.464C16.523 34.8681 16.7038 35.0332 17.0318 35.7248C17.7385 35.6707 17.9761 35.1357 18.4511 34.7031C18.3554 33.7425 18.6089 34.4199 18.0058 33.7026C17.7121 33.3527 17.6685 33.4237 17.3571 32.9841C16.7526 32.6056 17.0911 32.7293 16.6537 32.3452C15.9139 31.6963 16.7987 31.6578 15.6644 31.941Z" fill="#1A252B"/>
<path fill-rule="evenodd" clip-rule="evenodd" d="M28.154 22.4289C28.8804 22.6552 29.2103 23.2928 29.8373 23.8861C30.4094 24.4284 31.0402 24.8639 31.5232 25.6367C32.162 25.7903 32.7671 24.9108 33.052 24.4383C32.6008 23.7068 31.7469 22.7705 31.1154 22.4958C30.4253 21.7174 30.4794 21.4626 29.5139 20.9219C28.856 21.39 28.8448 21.4156 28.1948 22.1131L28.154 22.4289Z" fill="#1A252B"/>
<path fill-rule="evenodd" clip-rule="evenodd" d="M33.0245 16.0491C33.6191 16.7566 33.2891 16.0293 33.6553 16.9687C33.7028 16.9871 33.7806 16.9572 33.8005 17.0213C33.8203 17.0868 33.918 17.0711 33.9445 17.0882C33.9924 17.1195 34.3297 17.3815 34.3613 17.4113L35.4653 16.3196C35.3841 15.9622 35.4646 16.0946 35.2675 15.763C35.1202 15.5138 35.0787 15.575 34.8873 15.4285C34.4472 15.047 34.6279 15.1324 34.2579 14.798C33.7016 15.0028 33.2277 15.5068 33.0245 16.0491Z" fill="#1A252B"/>
<path fill-rule="evenodd" clip-rule="evenodd" d="M29.8373 23.885C29.2104 23.2916 28.8805 22.654 28.1541 22.4277C27.3297 22.7878 26.0616 24.2551 25.3278 25.0038C24.4264 25.9217 23.7215 26.7116 22.625 27.7462L17.3572 32.9823C17.6686 33.422 17.7123 33.351 18.0059 33.7009C18.609 34.4183 18.3555 33.7408 18.4513 34.7015C19.0676 34.5165 19.9756 35.7234 20.4605 36.2002L30.6471 26.0199C31.3847 25.4221 30.7631 25.6954 31.5232 25.6357C31.0403 24.8629 30.4095 24.4273 29.8373 23.885Z" fill="#0C4B75"/>
<path fill-rule="evenodd" clip-rule="evenodd" d="M28.1949 22.1126C28.8448 21.415 28.8561 21.3894 29.5139 20.9212C30.4795 21.462 30.4254 21.7168 31.1155 22.4954C31.219 21.0365 31.5728 22.0257 32.6682 20.2893C32.7058 20.339 32.7453 20.3633 32.758 20.453C33.1228 23.1215 36.6347 24.4509 38.2368 22.0627C39.0518 20.8486 38.8446 19.1933 37.8964 18.3023C36.2901 16.7936 34.9138 18.1216 34.3613 17.4114C34.3297 17.3815 33.9925 17.1196 33.9445 17.0883C33.918 17.0712 33.8204 17.0869 33.8006 17.0214C33.7806 16.9573 33.7028 16.9872 33.6553 16.9688C32.7929 17.4896 32.1568 18.2341 31.4619 18.9058C30.7439 19.5989 30.3137 20.3063 29.5139 20.7291C28.9544 20.2224 28.6713 19.9961 28.2939 19.3456C27.2725 18.7108 27.0579 17.8839 25.8927 17.2862C25.2901 17.6845 24.5993 18.0731 24.7287 18.8332C25.5725 19.2844 27.469 21.6669 28.1949 22.1126ZM35.0615 20.9141C34.5654 19.969 35.5518 18.9058 36.6795 19.9421C36.9152 21.4891 35.4634 21.6799 35.0615 20.9141Z" fill="#0C4B75"/>
<path fill-rule="evenodd" clip-rule="evenodd" d="M35.4653 16.3194C36.6926 15.8127 37.8535 17.1917 39.6153 15.2775C40.7563 14.038 40.5642 12.3956 39.6984 11.0949C38.7845 11.1134 39.449 10.8059 38.7706 11.4862C38.1715 12.0869 38.4348 11.7196 38.2567 12.5053C38.8717 14.0992 37.808 14.4679 36.4472 14.3084C35.6528 14.2984 36.4868 13.8844 35.1817 15.175C35.1506 15.2051 35.0602 15.3443 35.0371 15.3018C35.0141 15.259 34.9421 15.3928 34.8873 15.4285C35.0787 15.5749 35.1202 15.5137 35.2675 15.7628C35.4646 16.0944 35.3842 15.9621 35.4653 16.3194Z" fill="#0C4B75"/>
<path fill-rule="evenodd" clip-rule="evenodd" d="M17.0319 35.7254C16.7038 35.0338 16.5231 34.8687 16.1224 34.4646C15.98 34.3209 15.792 34.1188 15.6632 34.0179C15.128 33.5951 15.5939 33.8755 15.0495 33.6607C14.1098 34.3067 11.7331 37.2168 11 38.1004L12.3124 39.337C13.0277 38.957 13.9079 38.0179 14.6174 37.4146C16.5627 35.761 16.04 35.5318 17.0319 35.7254Z" fill="#3182B7"/>
<path fill-rule="evenodd" clip-rule="evenodd" d="M17.3571 32.9824L22.625 27.7462C23.7215 26.7115 24.4263 25.9216 25.3277 25.0037C26.0616 24.255 27.3296 22.7876 28.154 22.4275L28.1949 22.1116C27.469 21.666 25.5725 19.2835 24.7286 18.8323C24.6177 19.9723 15.5682 27.934 14.2339 29.881C15.3247 31.5562 15.6164 30.5287 15.6645 31.9392C16.7988 31.6559 15.914 31.6944 16.6538 32.3435C17.0912 32.7276 16.7527 32.6038 17.3571 32.9824Z" fill="#3182B7"/>
<path fill-rule="evenodd" clip-rule="evenodd" d="M28.2938 19.346C28.6713 19.9964 28.9544 20.2228 29.5139 20.7295C30.3137 20.3067 30.7439 19.5993 31.4619 18.9062C32.1568 18.2345 32.7928 17.49 33.6553 16.9691C33.2891 16.0298 33.6191 16.7571 33.0245 16.0496C32.2366 15.2127 33.5716 14.1879 32.1093 12.5455C29.1979 9.27622 23.8226 15.1102 29.5087 17.4146L29.9759 17.6337L28.2938 19.346ZM30.5209 15.2697C30.0451 15.5842 29.4678 15.4875 29.1721 15.0007C28.7485 14.3005 29.155 14.0186 29.5595 13.7651C30.6074 13.112 31.4552 14.6534 30.5209 15.2697Z" fill="#3182B7"/>
<path fill-rule="evenodd" clip-rule="evenodd" d="M35.4799 10.4445C33.6817 11.6173 34.1332 13.0279 34.2579 14.7986C34.6279 15.133 34.4473 15.0476 34.8873 15.4292C34.9422 15.3935 35.0141 15.2597 35.0371 15.3025C35.0603 15.345 35.1507 15.2057 35.1817 15.1757C36.4869 13.8849 35.6528 14.299 36.4472 14.3089C36.0731 13.6784 35.9154 13.4705 36.0889 12.4016C37.0795 11.8279 37.3929 11.7569 38.2567 12.5056C38.4348 11.7198 38.1716 12.0871 38.7706 11.4864C39.449 10.806 38.7846 11.1135 39.6984 11.095C38.801 9.99175 36.9858 9.46107 35.4799 10.4445Z" fill="#3182B7"/>
<path fill-rule="evenodd" clip-rule="evenodd" d="M30.5209 15.269C31.4553 14.6525 30.6074 13.111 29.5595 13.7642C29.155 14.0177 28.7486 14.2996 29.1721 14.9999C29.4679 15.4867 30.0452 15.5835 30.5209 15.269Z" fill="#BBE0FA"/>
<path fill-rule="evenodd" clip-rule="evenodd" d="M36.0888 12.4007C35.9153 13.4699 36.073 13.6778 36.4471 14.3084C37.8079 14.468 38.8716 14.0992 38.2566 12.5047C37.3928 11.7559 37.0794 11.8269 36.0888 12.4007Z" fill="#BBE0FA"/>
<path fill-rule="evenodd" clip-rule="evenodd" d="M36.6795 19.9423C35.5518 18.9057 34.5653 19.9693 35.0615 20.9146C35.4634 21.6806 36.9151 21.4898 36.6795 19.9423Z" fill="#BBE0FA"/>
</g>
<defs>
<filter id="filter0_b_36_125" x="-14.8" y="-14.8274" width="80" height="79.7602" filterUnits="userSpaceOnUse" color-interpolation-filters="sRGB">
<feFlood flood-opacity="0" result="BackgroundImageFix"/>
<feGaussianBlur in="BackgroundImage" stdDeviation="7.5"/>
<feComposite in2="SourceAlpha" operator="in" result="effect1_backgroundBlur_36_125"/>
<feBlend mode="normal" in="SourceGraphic" in2="effect1_backgroundBlur_36_125" result="shape"/>
</filter>
</defs>
</svg>
