<svg width="51" height="50" viewBox="0 0 51 50" fill="none" xmlns="http://www.w3.org/2000/svg">
<g filter="url(#filter0_b_34_22)">
<rect x="0.800049" y="0.172607" width="50" height="49.7602" rx="20" fill="#BBE1FA" fill-opacity="0.5"/>
<path fill-rule="evenodd" clip-rule="evenodd" d="M25.442 35.6239L25.4405 34.2585C25.1429 34.0664 25.4335 34.2312 24.9891 34.0424L24.4736 33.8534L24.3245 32.0082L22.2941 32.0419L22.2625 30.2339C22.9913 29.842 23.2817 29.9932 24.2902 30.0279L24.288 28.2673C24.6689 28.1112 24.7313 28.1498 24.9708 28.0578C25.5055 27.8525 25.1166 28.0844 25.4387 27.8236L25.4228 25.7286L18.0796 25.7397L18.1157 23.8609L25.4346 23.8985L25.4988 22.2427L33.2596 22.0762C33.1294 21.8882 33.2284 22.0395 33.048 21.6118C32.844 21.1281 33.0375 21.4127 32.8025 21.0084L32.8041 21.9995L18.0898 21.9485L18.1161 20.1016L32.6925 20.1262C32.6404 20.0954 32.5591 20.0748 32.5183 20.0655C31.5843 19.8519 26.331 19.9992 25.3741 20.0124L25.4992 18.2624L18.0693 18.2287L18.1595 16.3527L25.5731 16.3317L25.5107 14.5153L18.7572 14.5063L18.7444 12.6641L16.0711 12.6884C15.8529 15.1543 15.7845 34.7504 16.3036 35.6182L25.442 35.6239Z" fill="#FEFDFD"/>
<path fill-rule="evenodd" clip-rule="evenodd" d="M25.5108 14.5158L25.5732 16.3322L32.7982 16.4314L32.7753 18.2304L25.4993 18.2629L25.3742 20.0129C26.3311 19.9997 31.5844 19.8524 32.5184 20.0659C32.5592 20.0753 32.6406 20.0959 32.6926 20.1267L32.8026 21.0088C33.0376 21.4132 32.8442 21.1286 33.0481 21.6123C33.2285 22.0399 33.1296 21.8887 33.2597 22.0767L25.4989 22.2432L25.4347 23.8989L25.4229 25.729L25.4388 27.824C25.1167 28.0849 25.5056 27.8529 24.9709 28.0583C24.7314 28.1502 24.669 28.1117 24.288 28.2677L24.2903 30.0284C23.2818 29.9936 22.9914 29.8424 22.2626 30.2343L24.2811 30.0774L24.4284 28.3001L26.4555 28.2377L26.4623 30.1077L28.5599 30.1546C28.7114 32.6072 28.6882 31.846 26.5247 32.0651C26.503 32.3167 26.5123 32.7306 26.4887 32.9351C26.4875 32.9459 26.433 33.3354 26.4303 33.3486L26.2472 33.9175L24.4737 33.8538L24.9892 34.0428C25.4336 34.2316 25.143 34.0668 25.4406 34.2589L25.4421 35.6243L30.7475 35.5688L30.7496 35.4933L30.6063 32.0243L34.6552 32.1263L34.8593 31.9484L34.8743 12.5967L32.0775 12.527L31.6547 14.3866C30.9599 14.4948 31.9624 14.3816 31.1985 14.4484C29.8868 14.5628 27.3789 14.3197 25.5108 14.5158Z" fill="#C9FEEA"/>
<path fill-rule="evenodd" clip-rule="evenodd" d="M32.2079 10.868L37.3184 10.813C37.7997 12.1123 37.6472 34.8477 37.4232 37.6026L25.4948 37.5961L25.5258 35.8616L30.734 35.8303L30.7474 35.5689L25.4421 35.6244L16.3037 35.6188C15.7846 34.7508 15.853 15.1539 16.0712 12.6878L18.7445 12.6635L18.7653 10.6932L13.2208 10.8168C12.9261 13.472 12.8764 36.6983 13.3839 37.5877C14.1863 38.2656 35.4227 37.4204 37.6942 38.0888C38.1041 36.334 38.1371 11.3119 37.5767 10.8152C37.2724 10.5455 36.846 10.5685 36.1726 10.5602L32.0275 10.7257L32.2079 10.868Z" fill="#FEECB1"/>
<path fill-rule="evenodd" clip-rule="evenodd" d="M32.0774 12.5261L34.8742 12.5958L34.8592 31.9479L34.7854 35.8225L30.734 35.8298L25.5257 35.8611L25.4948 37.5956L37.4233 37.602C37.6473 34.8472 37.7998 12.1125 37.3185 10.8132L32.208 10.8682L32.0774 12.5261Z" fill="#FBD33B"/>
<path fill-rule="evenodd" clip-rule="evenodd" d="M25.258 8.87899L29.5714 8.84372L29.434 10.6935L25.5625 10.7239C25.2584 11.8873 25.2471 13.3762 25.5108 14.5141C27.3789 14.318 29.8868 14.5611 31.1984 14.4466C31.9624 14.3799 30.9598 14.4931 31.6547 14.3849L32.0774 12.5255L32.208 10.8679L32.0275 10.7256L29.7891 10.6799L29.682 8.67883L21.4379 8.77149L21.3235 8.88885L25.258 8.87899Z" fill="#95B4A4"/>
<path fill-rule="evenodd" clip-rule="evenodd" d="M18.7653 10.6936L18.7445 12.6636L18.7573 14.5057L25.5109 14.5147C25.2472 13.3768 25.2584 11.8878 25.5626 10.7244L21.3025 10.6733L21.3235 8.88934L21.438 8.77197C20.7106 9.40124 21.1332 9.5474 20.9435 10.6661L18.7653 10.6936Z" fill="#B6D6C9"/>
<path fill-rule="evenodd" clip-rule="evenodd" d="M22.2626 30.2342L22.2942 32.0422L24.3246 32.0085L24.4737 33.8537L26.2472 33.9174L26.4303 33.3485C26.433 33.3353 26.4875 32.9458 26.4887 32.935C26.5124 32.7305 26.503 32.3166 26.5247 32.065C28.6883 31.8459 28.7115 32.6071 28.5599 30.1545L26.4623 30.1075L26.4555 28.2375L24.4284 28.2999L24.2811 30.0773L22.2626 30.2342Z" fill="#B6D6C9"/>
<path fill-rule="evenodd" clip-rule="evenodd" d="M25.3418 20.144L32.437 20.198L32.4651 21.7922L25.258 21.8442L25.3418 20.144ZM32.8025 21.0076L32.6925 20.1253L18.1161 20.1007L18.0898 21.9479L32.8042 21.999L32.8025 21.0076Z" fill="#EC6819"/>
<path fill-rule="evenodd" clip-rule="evenodd" d="M25.2901 16.7271C26.9768 16.0457 30.4536 16.5142 32.4482 16.4502L32.437 18.1202L25.3305 18.174L25.2901 16.7271ZM25.4993 18.2617L32.7753 18.2292L32.7981 16.4305L25.5732 16.3313L18.1596 16.3523L18.0693 18.2279L25.4993 18.2617Z" fill="#EC6819"/>
<path fill-rule="evenodd" clip-rule="evenodd" d="M25.4228 25.7284L25.4346 23.8972L18.1157 23.8596L18.0796 25.7395L25.4228 25.7284Z" fill="#EC6819"/>
<path fill-rule="evenodd" clip-rule="evenodd" d="M25.3305 18.1743L32.437 18.1205L32.4482 16.4496C30.4536 16.5137 26.9768 16.045 25.2902 16.7267L25.3305 18.1743Z" fill="#DA2C09"/>
<path fill-rule="evenodd" clip-rule="evenodd" d="M25.2581 21.8445L32.465 21.7924L32.437 20.1981L25.3419 20.144L25.2581 21.8445Z" fill="#DA2C09"/>
<path fill-rule="evenodd" clip-rule="evenodd" d="M30.7496 35.492L30.7475 35.5675L30.7341 35.8289L34.7854 35.8216L34.8592 31.9469L34.6552 32.1249C34.1678 32.8201 33.3769 33.3269 32.7733 33.8909C32.1847 34.4407 31.5791 35.1589 30.7496 35.492Z" fill="#95B4A4"/>
<path fill-rule="evenodd" clip-rule="evenodd" d="M30.7495 35.4923C31.579 35.1591 32.1847 34.4409 32.7732 33.891C33.3769 33.3269 34.1678 32.8201 34.6551 32.1248L30.6062 32.0227L30.7495 35.4923Z" fill="#B6D6C9"/>
<path fill-rule="evenodd" clip-rule="evenodd" d="M25.5625 10.723L29.434 10.6927L29.5714 8.84399L25.2581 8.87924L25.5625 10.723Z" fill="#087C6B"/>
<path fill-rule="evenodd" clip-rule="evenodd" d="M25.5625 10.7243L25.2581 8.87891L21.3234 8.88877L21.3024 10.6732L25.5625 10.7243Z" fill="#379087"/>
<path fill-rule="evenodd" clip-rule="evenodd" d="M29.5713 8.84399L25.2581 8.87924L25.5624 10.723L29.4341 10.6927L29.5713 8.84399Z" fill="#1A252B"/>
<path fill-rule="evenodd" clip-rule="evenodd" d="M25.5625 10.7243L25.2582 8.87891L21.3235 8.88877L21.3022 10.6733L25.5625 10.7243Z" fill="#0C4B75"/>
<path fill-rule="evenodd" clip-rule="evenodd" d="M29.4341 10.6935L25.5625 10.7238C25.2584 11.8871 25.2471 13.3759 25.5108 14.5137C27.3789 14.3179 29.8868 14.561 31.1984 14.4464C31.2883 14.4386 31.3538 14.4331 31.4005 14.4296C31.4203 14.4236 31.4897 14.4104 31.6548 14.3847L32.0772 12.5254L32.208 10.8678L32.0274 10.7256L29.7891 10.6798L29.6819 8.67896L21.438 8.77151L21.3236 8.88886L25.2582 8.879L29.5713 8.84373L29.4341 10.6935Z" fill="#0C4B75"/>
<path fill-rule="evenodd" clip-rule="evenodd" d="M25.5109 14.5148C25.2472 13.3768 25.2584 11.8879 25.5626 10.7245L21.3023 10.6735L21.3236 8.88934L21.438 8.77197C20.7106 9.40136 21.1333 9.54752 20.9436 10.6662L18.7652 10.6936L18.7445 12.6638L18.7574 14.5059L25.5109 14.5148Z" fill="#3182B7"/>
<path fill-rule="evenodd" clip-rule="evenodd" d="M34.7854 35.8226L30.734 35.8299L25.5256 35.8613L25.4949 37.5957L37.4232 37.602C37.6472 34.8473 37.7999 12.1127 37.3185 10.8132L32.2079 10.8683L32.0772 12.5263L34.8742 12.5958L34.8591 31.9479L34.7854 35.8226Z" fill="#0C4B75"/>
<path fill-rule="evenodd" clip-rule="evenodd" d="M25.495 37.5958L25.5257 35.8613L30.7341 35.8299L30.7474 35.5684L25.4421 35.6241L16.3037 35.6184C15.7847 34.7504 15.8531 15.1535 16.0712 12.6874L18.7445 12.6631L18.7652 10.6927L13.2208 10.8164C12.9261 13.4717 12.8764 36.6979 13.3839 37.5873C14.1864 38.2652 35.4229 37.4202 37.6943 38.0884C38.1041 36.3336 38.1371 11.3115 37.5768 10.8148C37.2725 10.545 36.8462 10.568 36.1726 10.5597L32.0275 10.7254L32.208 10.8676L37.3185 10.8125C37.7999 12.112 37.6473 34.8473 37.4233 37.6021L25.495 37.5958Z" fill="#3182B7"/>
<path fill-rule="evenodd" clip-rule="evenodd" d="M18.08 25.7394L25.4229 25.7283L25.4347 23.8986L18.1159 23.8608L18.08 25.7394Z" fill="#3182B7"/>
<path fill-rule="evenodd" clip-rule="evenodd" d="M18.0897 21.9479L32.8041 21.9991L32.8025 21.0077L32.6925 20.1252L18.1161 20.1007L18.0897 21.9479ZM25.258 21.8443L25.3417 20.1439L32.4369 20.198L32.4649 21.7921L25.258 21.8443Z" fill="#3182B7"/>
<path fill-rule="evenodd" clip-rule="evenodd" d="M18.0695 18.2276L25.4992 18.2613L32.7754 18.2287L32.7981 16.4299L29.8552 16.3896C30.8103 16.4262 31.7262 16.4728 32.4482 16.4496L32.4369 18.1198L25.3305 18.1735L25.2901 16.7266C25.896 16.4817 26.7331 16.3853 27.6493 16.3593L25.5732 16.3308L18.1597 16.3517L18.0695 18.2276Z" fill="#3182B7"/>
<path fill-rule="evenodd" clip-rule="evenodd" d="M32.4368 20.1982L25.3417 20.144L25.2581 21.8445L32.4649 21.7924L32.4368 20.1982Z" fill="#0C4B75"/>
<path fill-rule="evenodd" clip-rule="evenodd" d="M25.3305 18.1734L32.4369 18.1197L32.4482 16.4496C31.7263 16.4728 30.8103 16.4262 29.8556 16.3896C29.1197 16.3614 28.3606 16.3392 27.6494 16.3593C26.7331 16.3853 25.8961 16.4817 25.2902 16.7265L25.3305 18.1734Z" fill="#0C4B75"/>
<path fill-rule="evenodd" clip-rule="evenodd" d="M26.4555 28.2375L24.4282 28.2999L24.29 29.9689L24.2853 30.028L24.2811 30.0774L22.2626 30.2342L22.2942 32.0422L24.3245 32.0084L24.4737 33.8538L26.2472 33.9174L26.4303 33.3486C26.4331 33.3353 26.4876 32.9458 26.4886 32.935C26.5123 32.7307 26.503 32.3164 26.5248 32.0649C28.6883 31.8458 28.7113 32.6071 28.5598 30.1546L26.4623 30.1076L26.4555 28.2375Z" fill="#1A252B"/>
</g>
<defs>
<filter id="filter0_b_34_22" x="-14.2" y="-14.8274" width="80" height="79.7602" filterUnits="userSpaceOnUse" color-interpolation-filters="sRGB">
<feFlood flood-opacity="0" result="BackgroundImageFix"/>
<feGaussianBlur in="BackgroundImage" stdDeviation="7.5"/>
<feComposite in2="SourceAlpha" operator="in" result="effect1_backgroundBlur_34_22"/>
<feBlend mode="normal" in="SourceGraphic" in2="effect1_backgroundBlur_34_22" result="shape"/>
</filter>
</defs>
</svg>
