<svg width="35" height="35" viewBox="0 0 35 35" fill="none" xmlns="http://www.w3.org/2000/svg">
<g clip-path="url(#clip0_94_278)">
<path d="M17.4996 14.0198C15.5812 14.0198 14.019 15.5812 14.019 17.4996C14.019 19.4188 15.5812 20.981 17.4996 20.981C19.4188 20.981 20.9802 19.4188 20.9802 17.4996C20.9802 15.5812 19.4188 14.0198 17.4996 14.0198ZM17.4996 14.0198C15.5812 14.0198 14.019 15.5812 14.019 17.4996C14.019 19.4188 15.5812 20.981 17.4996 20.981C19.4188 20.981 20.9802 19.4188 20.9802 17.4996C20.9802 15.5812 19.4188 14.0198 17.4996 14.0198ZM23.298 8.34507H11.702C9.85112 8.34507 8.34507 9.85112 8.34507 11.702V23.298C8.34507 25.1489 9.85112 26.6549 11.702 26.6549H23.298C25.1489 26.6549 26.6549 25.1489 26.6549 23.298V11.702C26.6549 9.85112 25.1489 8.34507 23.298 8.34507ZM17.4996 23.5276C14.1765 23.5276 11.4724 20.8235 11.4724 17.4996C11.4724 14.1765 14.1765 11.4724 17.4996 11.4724C20.8235 11.4724 23.5276 14.1765 23.5276 17.4996C23.5276 20.8235 20.8235 23.5276 17.4996 23.5276ZM23.7212 12.7188C22.9347 12.7188 22.295 12.0791 22.295 11.2927C22.295 10.5062 22.9347 9.86648 23.7212 9.86648C24.5076 9.86648 25.1473 10.5062 25.1473 11.2927C25.1473 12.0791 24.5076 12.7188 23.7212 12.7188ZM17.4996 14.0198C15.5812 14.0198 14.019 15.5812 14.019 17.4996C14.019 19.4188 15.5812 20.981 17.4996 20.981C19.4188 20.981 20.9802 19.4188 20.9802 17.4996C20.9802 15.5812 19.4188 14.0198 17.4996 14.0198ZM23.298 8.34507H11.702C9.85112 8.34507 8.34507 9.85112 8.34507 11.702V23.298C8.34507 25.1489 9.85112 26.6549 11.702 26.6549H23.298C25.1489 26.6549 26.6549 25.1489 26.6549 23.298V11.702C26.6549 9.85112 25.1489 8.34507 23.298 8.34507ZM17.4996 23.5276C14.1765 23.5276 11.4724 20.8235 11.4724 17.4996C11.4724 14.1765 14.1765 11.4724 17.4996 11.4724C20.8235 11.4724 23.5276 14.1765 23.5276 17.4996C23.5276 20.8235 20.8235 23.5276 17.4996 23.5276ZM23.7212 12.7188C22.9347 12.7188 22.295 12.0791 22.295 11.2927C22.295 10.5062 22.9347 9.86648 23.7212 9.86648C24.5076 9.86648 25.1473 10.5062 25.1473 11.2927C25.1473 12.0791 24.5076 12.7188 23.7212 12.7188ZM17.4996 14.0198C15.5812 14.0198 14.019 15.5812 14.019 17.4996C14.019 19.4188 15.5812 20.981 17.4996 20.981C19.4188 20.981 20.9802 19.4188 20.9802 17.4996C20.9802 15.5812 19.4188 14.0198 17.4996 14.0198ZM0 0V35H35V0H0ZM29.2016 23.298C29.2016 26.5535 26.5535 29.2016 23.298 29.2016H11.702C8.44645 29.2016 5.79839 26.5535 5.79839 23.298V11.702C5.79839 8.44645 8.44645 5.79839 11.702 5.79839H23.298C26.5535 5.79839 29.2016 8.44645 29.2016 11.702V23.298ZM23.298 8.34507H11.702C9.85112 8.34507 8.34507 9.85112 8.34507 11.702V23.298C8.34507 25.1489 9.85112 26.6549 11.702 26.6549H23.298C25.1489 26.6549 26.6549 25.1489 26.6549 23.298V11.702C26.6549 9.85112 25.1489 8.34507 23.298 8.34507ZM17.4996 23.5276C14.1765 23.5276 11.4724 20.8235 11.4724 17.4996C11.4724 14.1765 14.1765 11.4724 17.4996 11.4724C20.8235 11.4724 23.5276 14.1765 23.5276 17.4996C23.5276 20.8235 20.8235 23.5276 17.4996 23.5276ZM23.7212 12.7188C22.9347 12.7188 22.295 12.0791 22.295 11.2927C22.295 10.5062 22.9347 9.86648 23.7212 9.86648C24.5076 9.86648 25.1473 10.5062 25.1473 11.2927C25.1473 12.0791 24.5076 12.7188 23.7212 12.7188ZM17.4996 14.0198C15.5812 14.0198 14.019 15.5812 14.019 17.4996C14.019 19.4188 15.5812 20.981 17.4996 20.981C19.4188 20.981 20.9802 19.4188 20.9802 17.4996C20.9802 15.5812 19.4188 14.0198 17.4996 14.0198ZM17.4996 14.0198C15.5812 14.0198 14.019 15.5812 14.019 17.4996C14.019 19.4188 15.5812 20.981 17.4996 20.981C19.4188 20.981 20.9802 19.4188 20.9802 17.4996C20.9802 15.5812 19.4188 14.0198 17.4996 14.0198ZM17.4996 14.0198C15.5812 14.0198 14.019 15.5812 14.019 17.4996C14.019 19.4188 15.5812 20.981 17.4996 20.981C19.4188 20.981 20.9802 19.4188 20.9802 17.4996C20.9802 15.5812 19.4188 14.0198 17.4996 14.0198ZM23.298 8.34507H11.702C9.85112 8.34507 8.34507 9.85112 8.34507 11.702V23.298C8.34507 25.1489 9.85112 26.6549 11.702 26.6549H23.298C25.1489 26.6549 26.6549 25.1489 26.6549 23.298V11.702C26.6549 9.85112 25.1489 8.34507 23.298 8.34507ZM17.4996 23.5276C14.1765 23.5276 11.4724 20.8235 11.4724 17.4996C11.4724 14.1765 14.1765 11.4724 17.4996 11.4724C20.8235 11.4724 23.5276 14.1765 23.5276 17.4996C23.5276 20.8235 20.8235 23.5276 17.4996 23.5276ZM23.7212 12.7188C22.9347 12.7188 22.295 12.0791 22.295 11.2927C22.295 10.5062 22.9347 9.86648 23.7212 9.86648C24.5076 9.86648 25.1473 10.5062 25.1473 11.2927C25.1473 12.0791 24.5076 12.7188 23.7212 12.7188ZM17.4996 14.0198C15.5812 14.0198 14.019 15.5812 14.019 17.4996C14.019 19.4188 15.5812 20.981 17.4996 20.981C19.4188 20.981 20.9802 19.4188 20.9802 17.4996C20.9802 15.5812 19.4188 14.0198 17.4996 14.0198ZM17.4996 14.0198C15.5812 14.0198 14.019 15.5812 14.019 17.4996C14.019 19.4188 15.5812 20.981 17.4996 20.981C19.4188 20.981 20.9802 19.4188 20.9802 17.4996C20.9802 15.5812 19.4188 14.0198 17.4996 14.0198ZM17.4996 14.0198C15.5812 14.0198 14.019 15.5812 14.019 17.4996C14.019 19.4188 15.5812 20.981 17.4996 20.981C19.4188 20.981 20.9802 19.4188 20.9802 17.4996C20.9802 15.5812 19.4188 14.0198 17.4996 14.0198ZM23.298 8.34507H11.702C9.85112 8.34507 8.34507 9.85112 8.34507 11.702V23.298C8.34507 25.1489 9.85112 26.6549 11.702 26.6549H23.298C25.1489 26.6549 26.6549 25.1489 26.6549 23.298V11.702C26.6549 9.85112 25.1489 8.34507 23.298 8.34507ZM17.4996 23.5276C14.1765 23.5276 11.4724 20.8235 11.4724 17.4996C11.4724 14.1765 14.1765 11.4724 17.4996 11.4724C20.8235 11.4724 23.5276 14.1765 23.5276 17.4996C23.5276 20.8235 20.8235 23.5276 17.4996 23.5276ZM23.7212 12.7188C22.9347 12.7188 22.295 12.0791 22.295 11.2927C22.295 10.5062 22.9347 9.86648 23.7212 9.86648C24.5076 9.86648 25.1473 10.5062 25.1473 11.2927C25.1473 12.0791 24.5076 12.7188 23.7212 12.7188ZM17.4996 14.0198C15.5812 14.0198 14.019 15.5812 14.019 17.4996C14.019 19.4188 15.5812 20.981 17.4996 20.981C19.4188 20.981 20.9802 19.4188 20.9802 17.4996C20.9802 15.5812 19.4188 14.0198 17.4996 14.0198Z" fill="white"/>
</g>
<defs>
<clipPath id="clip0_94_278">
<rect width="35" height="35" rx="10" fill="white"/>
</clipPath>
</defs>
</svg>
