<svg width="50" height="50" viewBox="0 0 50 50" fill="none" xmlns="http://www.w3.org/2000/svg">
<g filter="url(#filter0_b_49_69)">
<rect width="50" height="50" rx="20" fill="#BBE1FA" fill-opacity="0.5"/>
<path fill-rule="evenodd" clip-rule="evenodd" d="M23.4312 25.0364L24.742 24.923L24.5941 23.0333C26.7017 23.106 36.2004 23.3565 37.5069 22.9633C33.317 22.9749 28.6924 22.7759 24.5669 23.0171C24.2558 23.0352 12.3577 23.3403 12.1452 22.9328C12.104 22.8538 12.0064 22.8995 11.9351 22.874L11.8941 20.2327L11.9708 17.9369L24.9591 17.9509C24.5128 16.9395 24.5924 15.4434 24.8266 14.3127C22.8293 13.3876 21.2961 11.5581 18.9628 10.6656C16.2999 9.64702 13.1009 10.1534 10.0141 10L10.0001 25.0054L23.4312 25.0364Z" fill="#B8D4C8"/>
<path fill-rule="evenodd" clip-rule="evenodd" d="M24.9591 17.9514L37.4873 17.9375L37.5165 20.4635L37.5069 22.9636C36.2004 23.3568 26.7017 23.1063 24.5941 23.0336L24.742 24.9232L23.4312 25.0367L23.4434 27.9257L25.8128 28.0031C25.8394 26.926 25.61 25.5849 26.1163 24.8688L39.402 24.9822L39.41 14.4678L24.8265 14.3132C24.5923 15.4439 24.5128 16.94 24.9591 17.9514Z" fill="#95B3A4"/>
<path fill-rule="evenodd" clip-rule="evenodd" d="M11.8942 20.2316C13.0581 20.8644 22.3231 20.4857 24.5669 20.4857C28.8827 20.4857 33.203 20.5298 37.5166 20.4619L37.4873 17.937L24.9591 17.9508L11.9708 17.9368L11.8942 20.2316Z" fill="#FDFDFD"/>
<path fill-rule="evenodd" clip-rule="evenodd" d="M37.5069 22.9638L37.5166 20.4618C33.203 20.5298 28.8827 20.4856 24.5669 20.4856C22.3231 20.4856 13.0581 20.8648 11.8942 20.2312L11.9351 22.8745C12.0064 22.9 12.104 22.8542 12.1453 22.9333C12.3577 23.3411 24.2558 23.0358 24.5669 23.0177C28.6924 22.7763 33.317 22.9754 37.5069 22.9638Z" fill="#CAFEEA"/>
<path fill-rule="evenodd" clip-rule="evenodd" d="M23.4434 27.9271L22.8127 28.0627L22.8027 30.9773L13.876 30.985L13.8874 35.684L15.9054 35.8131L15.6572 34.1775L33.6931 34.2734L33.5321 35.8308L33.9436 35.6548L33.8129 34.2077L24.5822 34.0939L24.6927 30.9248L35.6387 31.1375C35.0841 30.7555 34.9718 30.8812 33.629 30.8963L26.6263 30.848C26.7207 26.3159 26.0765 29.098 26.0222 26.5969C26.0099 26.0331 26.0641 25.4302 26.1163 24.8701C25.61 25.5862 25.8394 26.9274 25.8128 28.0045L23.4434 27.9271Z" fill="#B8D4C8"/>
<path fill-rule="evenodd" clip-rule="evenodd" d="M33.9436 35.6528L35.6084 35.7808L35.6387 31.1362L24.6926 30.9236L24.5822 34.0921L33.8129 34.206L33.9436 35.6528Z" fill="#95B3A4"/>
<path fill-rule="evenodd" clip-rule="evenodd" d="M15.9054 35.8117L13.8874 35.6826C12.3155 36.5376 12.5567 39.1623 14.4457 39.3899C15.4348 39.509 16.2646 39.0232 16.5427 38.2096C16.9573 36.9967 16.2414 36.5087 15.9054 35.8117Z" fill="#44958C"/>
<path fill-rule="evenodd" clip-rule="evenodd" d="M33.5322 35.8289C33.0772 36.5188 32.5765 36.8707 32.8404 37.9698C33.0412 38.8059 33.76 39.4077 34.7412 39.3956C36.9741 39.3682 37.0587 37.0309 35.6085 35.7809L33.9436 35.6528L33.5322 35.8289Z" fill="#0A7C6A"/>
<path fill-rule="evenodd" clip-rule="evenodd" d="M24.8265 14.3127C22.8293 13.3875 21.296 11.5581 18.9628 10.6656C16.2999 9.64702 13.1009 10.1534 10.0141 10L10 25.0054L23.4312 25.0364L24.742 24.923L24.5941 23.0333C26.7016 23.1059 36.2004 23.3565 37.5068 22.9633C33.3169 22.9749 28.6924 22.7759 24.5669 23.0171C24.2559 23.0352 12.3577 23.3404 12.1452 22.9328C12.104 22.8538 12.0064 22.8995 11.9351 22.874L11.894 20.2327L11.9708 17.9369L24.9591 17.9509C24.5127 16.9395 24.5923 15.4434 24.8265 14.3127Z" fill="#3182B7"/>
<path fill-rule="evenodd" clip-rule="evenodd" d="M22.8026 30.9755L13.876 30.9832L13.8874 35.6822L15.9054 35.8113L15.6572 34.1758L33.6931 34.2715L33.5322 35.8289L33.9437 35.6528L33.8129 34.2059L24.5822 34.092L24.6927 30.923L35.6387 31.1357C35.0842 30.7538 34.9717 30.8794 33.629 30.8945L26.6264 30.8462C26.7206 26.3141 26.0765 29.0963 26.0222 26.5952C26.0099 26.0314 26.0641 25.4285 26.1163 24.8684C25.61 25.5845 25.8394 26.9256 25.8128 28.0027L23.4434 27.9255L22.8127 28.061L22.8026 30.9755Z" fill="#3182B7"/>
<path fill-rule="evenodd" clip-rule="evenodd" d="M24.6926 30.9236L24.5822 34.0918L33.8129 34.2057L33.9437 35.6523L35.6085 35.7803L35.6386 31.1362L24.6926 30.9236Z" fill="#0C4B75"/>
<path fill-rule="evenodd" clip-rule="evenodd" d="M23.4434 27.9263L25.8128 28.0035C25.8394 26.9265 25.61 25.5854 26.1163 24.8693L39.402 24.9827L39.41 14.4683L24.8265 14.3137C24.5923 15.4444 24.5127 16.9405 24.9591 17.9519L37.4873 17.9381L37.5165 20.464L37.5068 22.9641C36.2004 23.3573 26.7017 23.1067 24.5941 23.0341L24.742 24.9237L23.4312 25.0372L23.4434 27.9263Z" fill="#0C4B75"/>
<path fill-rule="evenodd" clip-rule="evenodd" d="M16.5427 38.2114C16.9575 36.9981 16.2415 36.5099 15.9054 35.8127L13.8874 35.6836C12.3155 36.5388 12.5567 39.1645 14.4457 39.3922C15.4348 39.5114 16.2646 39.0254 16.5427 38.2114Z" fill="#1A252B"/>
<path fill-rule="evenodd" clip-rule="evenodd" d="M32.8403 37.9705C33.0411 38.8062 33.76 39.4078 34.7412 39.3958C36.9741 39.3683 37.0587 37.032 35.6085 35.7823L33.9437 35.6543L33.5321 35.8304C33.0771 36.52 32.5764 36.8718 32.8403 37.9705Z" fill="#1A252B"/>
<path fill-rule="evenodd" clip-rule="evenodd" d="M24.5669 23.0183C28.6924 22.7769 33.317 22.976 37.5068 22.9645L37.5165 20.4623C33.2029 20.5303 28.8827 20.4861 24.5669 20.4861C22.3231 20.4861 13.0581 20.8654 11.894 20.2317L11.9351 22.8751C12.0064 22.9006 12.104 22.8548 12.1452 22.934C12.3577 23.3418 24.2559 23.0364 24.5669 23.0183Z" fill="#1A252B"/>
</g>
<defs>
<filter id="filter0_b_49_69" x="-15" y="-15" width="80" height="80" filterUnits="userSpaceOnUse" color-interpolation-filters="sRGB">
<feFlood flood-opacity="0" result="BackgroundImageFix"/>
<feGaussianBlur in="BackgroundImage" stdDeviation="7.5"/>
<feComposite in2="SourceAlpha" operator="in" result="effect1_backgroundBlur_49_69"/>
<feBlend mode="normal" in="SourceGraphic" in2="effect1_backgroundBlur_49_69" result="shape"/>
</filter>
</defs>
</svg>
