<svg width="50" height="50" viewBox="0 0 50 50" fill="none" xmlns="http://www.w3.org/2000/svg">
<g filter="url(#filter0_b_49_61)">
<rect width="50" height="50" rx="20" fill="#BBE1FA" fill-opacity="0.5"/>
<path d="M29.6347 24.5159C29.6347 21.8365 27.4627 19.6644 24.7833 19.6644C22.1039 19.6644 19.9319 21.8365 19.9319 24.5159C19.9319 27.1953 22.1039 29.3674 24.7833 29.3674C27.4627 29.3674 29.6347 27.1953 29.6347 24.5159Z" fill="black"/>
<path d="M25.2238 21.8331C25.2238 20.1936 23.8946 18.8645 22.255 18.8645C20.6153 18.8645 19.2861 20.1936 19.2861 21.8331C19.2861 23.4727 20.6153 24.8018 22.255 24.8018C23.8946 24.8018 25.2238 23.4727 25.2238 21.8331Z" fill="white"/>
<path fill-rule="evenodd" clip-rule="evenodd" d="M36.0492 24.7049C35.9528 30.8421 30.9478 35.7875 24.7876 35.7875C18.6275 35.7875 13.6224 30.8421 13.526 24.7049H10C10 32.8263 16.5835 39.4099 24.705 39.4099C32.8265 39.4099 39.41 32.8263 39.41 24.7049H36.0492Z" fill="white"/>
<path fill-rule="evenodd" clip-rule="evenodd" d="M24.7874 35.7876C30.9474 35.7876 35.9523 30.8422 36.0487 24.705H33.5785C33.5785 29.6059 29.6056 33.5789 24.7047 33.5789C19.804 33.5789 15.8311 29.6059 15.8311 24.705H13.526C13.6224 30.8422 18.6274 35.7876 24.7874 35.7876Z" fill="#3182B7"/>
<path fill-rule="evenodd" clip-rule="evenodd" d="M24.706 33.5789C29.6071 33.5789 33.5802 29.6059 33.5802 24.705H29.6321C29.5328 27.2967 27.4003 29.3674 24.7842 29.3674C22.1679 29.3674 20.0354 27.2967 19.9361 24.705H15.832C15.832 29.6059 19.8051 33.5789 24.706 33.5789Z" fill="#0C4B75" stroke="#0C4B75" stroke-width="0.25" stroke-miterlimit="22.9256"/>
<path fill-rule="evenodd" clip-rule="evenodd" d="M24.7842 19.6645C27.4636 19.6645 29.6358 21.8366 29.6358 24.516C29.6358 24.5793 29.6346 24.6423 29.6321 24.7051H33.5802C33.5802 19.8042 29.6071 15.8312 24.706 15.8312C19.8051 15.8312 15.832 19.8042 15.832 24.7051H19.9361C19.9337 24.6423 19.9325 24.5793 19.9325 24.516C19.9325 24.2568 19.9528 24.0022 19.992 23.7541C19.5521 23.2363 19.2867 22.5657 19.2867 21.8332C19.2867 20.1937 20.6159 18.8646 22.2554 18.8646C23.0513 18.8646 23.774 19.1778 24.3071 19.6876C24.4641 19.6723 24.6231 19.6645 24.7842 19.6645Z" fill="#0C4B75" stroke="#0C4B75" stroke-width="0.25" stroke-miterlimit="22.9256"/>
<path fill-rule="evenodd" clip-rule="evenodd" d="M24.7044 15.8312C29.6053 15.8312 33.5783 19.8042 33.5783 24.7051H36.0486C36.0495 24.6451 36.05 24.5849 36.05 24.5246C36.05 18.3042 31.0075 13.2616 24.7871 13.2616C18.5668 13.2616 13.5242 18.3042 13.5242 24.5246C13.5242 24.5849 13.5246 24.6451 13.5256 24.7051H15.8307C15.8307 19.8042 19.8036 15.8312 24.7044 15.8312Z" fill="#1A252B"/>
<path fill-rule="evenodd" clip-rule="evenodd" d="M24.7876 13.2616C31.008 13.2616 36.0506 18.3042 36.0506 24.5246C36.0506 24.5849 36.0501 24.6451 36.0492 24.7051H39.41C39.41 16.5837 32.8265 10.0001 24.705 10.0001C16.5835 10.0001 10 16.5837 10 24.7051H13.526C13.5251 24.6451 13.5246 24.5849 13.5246 24.5246C13.5246 18.3042 18.5673 13.2616 24.7876 13.2616Z" fill="#3182B7"/>
</g>
<defs>
<filter id="filter0_b_49_61" x="-15" y="-15" width="80" height="80" filterUnits="userSpaceOnUse" color-interpolation-filters="sRGB">
<feFlood flood-opacity="0" result="BackgroundImageFix"/>
<feGaussianBlur in="BackgroundImage" stdDeviation="7.5"/>
<feComposite in2="SourceAlpha" operator="in" result="effect1_backgroundBlur_49_61"/>
<feBlend mode="normal" in="SourceGraphic" in2="effect1_backgroundBlur_49_61" result="shape"/>
</filter>
</defs>
</svg>
