<svg width="79" height="76" viewBox="0 0 79 76" fill="none" xmlns="http://www.w3.org/2000/svg">
<g filter="url(#filter0_b_21_17)">
<rect width="79" height="75.8166" rx="20" fill="#0F4C75" fill-opacity="0.3"/>
<g clip-path="url(#clip0_21_17)">
<path d="M60.8143 38.978V34.1943C60.8143 30.6501 57.9404 27.7762 54.3963 27.7762C50.8521 27.7762 47.9782 30.6501 47.9782 34.1943V46.25C47.9782 50.2716 44.7278 53.522 40.7062 53.522C36.6846 53.522 33.4342 50.2716 33.4342 46.25V42.008C39.8247 41.1541 44.8472 36.0857 45.0125 29.9798V18.6862C45.0125 17.6303 44.1494 16.7672 43.0935 16.7672C43.0567 16.7672 38.677 16.7672 38.677 16.7672C38.576 15.8031 37.7588 15.041 36.7764 15.041C35.7205 15.041 34.8574 15.9041 34.8574 16.96V20.4032C34.8574 21.4591 35.7205 22.3222 36.7764 22.3222C37.768 22.3222 38.5026 21.5601 38.6678 20.596H41.1837V29.9798C41.1837 34.5707 36.8774 38.3077 31.607 38.3077C26.3459 38.3077 22.0304 34.5707 22.0304 29.9798V20.596H24.436C24.537 21.5601 25.3542 22.3222 26.3367 22.3222C27.3926 22.3222 28.1547 21.4591 28.2557 20.4032V16.96C28.2557 15.9041 27.3926 15.041 26.3367 15.041C25.345 15.041 24.5279 15.8031 24.436 16.7672H20.1206C19.0831 16.7672 18.22 17.6303 18.22 18.677V29.9707C18.22 36.0765 23.1506 41.1541 29.6146 41.9988V46.25C29.6146 52.2824 34.5911 57.259 40.6236 57.259C46.7478 57.259 51.6325 52.3742 51.8254 46.25V34.1851C51.8254 32.7527 52.9731 31.605 54.4054 31.605C55.8378 31.605 56.9855 32.7527 56.9855 34.1851V38.9045C55.4705 39.6115 54.4054 41.1541 54.4054 42.8986C54.4054 45.2951 56.3244 47.3059 58.8127 47.3059C61.2092 47.3059 63.22 45.3869 63.22 42.8986C63.2108 41.2092 62.2559 39.7125 60.8143 38.978ZM58.8035 43.5689C58.4179 43.5689 58.1333 43.2843 58.1333 42.8986C58.1333 42.513 58.4179 42.2284 58.8035 42.2284C59.1892 42.2284 59.4738 42.614 59.4738 42.8986C59.4738 43.2843 59.1892 43.5689 58.8035 43.5689Z" fill="white"/>
</g>
</g>
<defs>
<filter id="filter0_b_21_17" x="-15" y="-15" width="109" height="105.817" filterUnits="userSpaceOnUse" color-interpolation-filters="sRGB">
<feFlood flood-opacity="0" result="BackgroundImageFix"/>
<feGaussianBlur in="BackgroundImage" stdDeviation="7.5"/>
<feComposite in2="SourceAlpha" operator="in" result="effect1_backgroundBlur_21_17"/>
<feBlend mode="normal" in="SourceGraphic" in2="effect1_backgroundBlur_21_17" result="shape"/>
</filter>
<clipPath id="clip0_21_17">
<rect width="45" height="45" fill="white" transform="translate(18.22 13.65)"/>
</clipPath>
</defs>
</svg>
