<svg width="50" height="50" viewBox="0 0 50 50" fill="none" xmlns="http://www.w3.org/2000/svg">
<g filter="url(#filter0_b_49_53)">
<rect width="50" height="50" rx="20" fill="#BBE1FA" fill-opacity="0.5"/>
<path fill-rule="evenodd" clip-rule="evenodd" d="M31.7191 17.5777L35.762 17.6151L35.6707 29.7319L31.7683 29.7459C31.6135 30.9498 31.5794 37.9606 31.6835 38.4089C34.7512 38.3064 36.7252 36.4206 37.4251 34.0197C37.7637 32.8581 37.8015 15.5134 37.5688 14.1046C37.1601 11.6297 35.1488 9.42678 32.6342 9.15161L31.7318 9.19698L31.7191 17.5777Z" fill="#FE916D"/>
<path fill-rule="evenodd" clip-rule="evenodd" d="M31.6835 38.4074C31.5794 37.9591 31.6135 30.9481 31.7683 29.7442L27.6235 29.637L27.5804 17.5853L31.7191 17.5759L31.7318 9.19502L32.6342 9.14965C29.5178 8.36347 26.9297 10.8261 26.1396 13.0071C25.5141 14.7339 25.7693 20.9365 25.7693 23.2239C25.7694 30.4114 24.2037 37.8729 31.6835 38.4074Z" fill="#FDB36C"/>
<path fill-rule="evenodd" clip-rule="evenodd" d="M27.9606 17.8209L31.7769 17.8263C31.7592 18.0389 31.7059 18.488 31.6652 18.6836C31.4271 19.8282 31.4493 18.8303 31.6356 19.6909C31.9126 20.97 31.62 27.4533 31.6692 29.1335L33.5645 29.3219C31.9043 29.3318 29.4782 29.7771 27.9593 29.3594L27.9606 17.8209ZM31.7683 29.7469L35.6707 29.7329L35.762 17.616L31.7191 17.5786L27.5804 17.588L27.6235 29.6397L31.7683 29.7469Z" fill="#FFF6D7"/>
<path fill-rule="evenodd" clip-rule="evenodd" d="M18.8278 15.8762L20.6342 15.8992L20.6029 17.7668L18.7745 17.7395L18.8278 15.8762ZM18.7046 13.9849L17.9848 13.9708C17.9931 15.1145 18.0302 15.9836 18.0135 16.8956C17.9965 17.8221 17.8583 18.2266 18.0429 19.161C18.0591 19.243 18.0864 19.3214 18.1017 19.3884L18.2472 19.8377C19.9422 19.8377 22.5211 20.3041 23.974 19.5045C23.732 16.9678 24.3421 14.8698 23.3578 12.5741C22.6611 10.9489 21.079 9.36928 18.9261 9.17848L17.8068 9.08765C18.0603 10.1627 17.8565 10.5396 17.9793 11.2525C18.1769 12.3991 17.7423 11.2799 18.8939 12.1629C18.9421 12.6305 18.9926 12.7898 18.9325 13.2844C18.8089 14.2993 18.8653 13.7172 18.7046 13.9849Z" fill="#FE916D"/>
<path fill-rule="evenodd" clip-rule="evenodd" d="M18.7103 35.4837L16.9457 35.4183L16.9083 33.5343L18.773 33.5163L18.7103 35.4837ZM15.1269 29.734L16.8987 29.7635L16.898 31.5911L15.0942 31.5534L15.1269 29.734ZM17.9679 38.4072C17.9353 38.1393 18.0347 36.8003 17.9838 35.8681C18.4886 35.4496 17.3428 35.7758 18.7103 35.4837C19.096 34.8374 18.9509 34.5304 18.9512 34.5257C18.9701 34.2284 18.9152 33.9031 18.8999 33.6106C17.7918 32.8261 18.159 33.8084 17.9606 32.6933C17.8227 31.9188 18.3099 28.9999 17.8501 27.8384L12.0365 27.6746C12.1001 30.2196 11.6397 33.3245 12.8248 35.3221C13.8932 37.1228 15.3132 38.2269 17.9679 38.4072Z" fill="#FDB36C"/>
<path fill-rule="evenodd" clip-rule="evenodd" d="M18.773 29.7331L20.6554 29.7716L20.637 31.5897L18.7658 31.5213L18.773 29.7331ZM18.7103 35.4838C17.3428 35.7759 18.4886 35.4497 17.9838 35.8681C18.0347 36.8003 17.9353 38.1392 17.9679 38.4071C20.2992 38.3336 22.2865 37.1225 23.2176 35.2948C24.3999 32.9738 23.7551 30.3406 24.0057 27.5168L23.8802 27.7063L17.8501 27.8389C18.3099 29.0004 17.8227 31.9191 17.9606 32.6935C18.159 33.8086 17.7918 32.8264 18.8999 33.6108C18.9152 33.9033 18.9701 34.2286 18.9512 34.5258C18.9509 34.5306 19.096 34.8376 18.7103 35.4838Z" fill="#FE916D"/>
<path fill-rule="evenodd" clip-rule="evenodd" d="M15.0129 15.8272L16.964 15.8649L16.9051 17.8748L15.0217 17.7176L15.0129 15.8272ZM12.0213 19.8163L17.8683 19.6568L23.8989 19.6565L23.8802 27.7059L24.0057 27.5164L23.974 19.5052C22.5211 20.3048 19.9422 19.8384 18.2472 19.8384L18.1017 19.3892C18.0864 19.3221 18.0591 19.2437 18.0429 19.1617C17.8583 18.2274 17.9965 17.8229 18.0135 16.8964C18.0302 15.9844 17.9931 15.1153 17.9848 13.9717L16.9284 13.9336L16.9229 12.0993L18.7581 12.1087L18.7046 13.9858C18.8653 13.7181 18.8089 14.3002 18.9325 13.2853C18.9926 12.7908 18.9421 12.6315 18.8939 12.1638C17.7423 11.281 18.1769 12.4001 17.9793 11.2535C17.8565 10.5406 18.0603 10.1637 17.8068 9.08873L18.9261 9.17957C16.4447 8.39038 13.9818 10.3746 13.0203 11.7869C11.4822 14.046 12.2609 16.8309 12.0213 19.8163Z" fill="#FDB36C"/>
<path fill-rule="evenodd" clip-rule="evenodd" d="M17.8501 27.8392L23.8802 27.7066L23.8989 19.656L17.8683 19.6563C18.0644 21.1674 18.1039 26.3965 17.8501 27.8392Z" fill="#D32F0C"/>
<path fill-rule="evenodd" clip-rule="evenodd" d="M12.0365 27.6732L17.8501 27.837C18.1039 26.3947 18.0644 21.1667 17.8683 19.656L12.0213 19.8155L12.0365 27.6732Z" fill="#F56919"/>
<path fill-rule="evenodd" clip-rule="evenodd" d="M27.9593 29.3589C29.4782 29.7767 31.9043 29.3314 33.5645 29.3214L31.6692 29.133C31.62 27.4527 31.9126 20.9691 31.6356 19.6899C31.4493 18.8293 31.4271 19.8272 31.6652 18.6825C31.7059 18.4869 31.7592 18.0379 31.7769 17.8253L27.9606 17.8198L27.9593 29.3589Z" fill="#FEFEFE"/>
<path fill-rule="evenodd" clip-rule="evenodd" d="M15.0217 17.7169L16.9051 17.8741L16.964 15.8641L15.0129 15.8264L15.0217 17.7169Z" fill="#FFF6D7"/>
<path fill-rule="evenodd" clip-rule="evenodd" d="M18.7103 35.4816L18.773 33.5168L16.9083 33.5347L16.9457 35.4162L18.7103 35.4816Z" fill="#FEFEFE"/>
<path fill-rule="evenodd" clip-rule="evenodd" d="M18.7745 17.7396L20.6029 17.767L20.6342 15.9001L18.8278 15.8772L18.7745 17.7396Z" fill="#FEFEFE"/>
<path fill-rule="evenodd" clip-rule="evenodd" d="M18.7658 31.521L20.637 31.5894L20.6554 29.7705L18.773 29.7319L18.7658 31.521Z" fill="#FEFEFE"/>
<path fill-rule="evenodd" clip-rule="evenodd" d="M17.9848 13.9707L18.7046 13.9849L18.7581 12.1083L16.9229 12.0989L16.9284 13.9326L17.9848 13.9707Z" fill="#FEFEFE"/>
<path fill-rule="evenodd" clip-rule="evenodd" d="M15.0942 31.5527L16.898 31.5904L16.8987 29.7614L15.1269 29.7319L15.0942 31.5527Z" fill="#FEFEFE"/>
<path fill-rule="evenodd" clip-rule="evenodd" d="M18.9263 9.18155C16.4448 8.39169 13.9819 10.3759 13.02 11.7877C11.4825 14.0474 12.2611 16.8326 12.0214 19.818L17.8686 19.6576H18.1884L18.1019 19.3905C18.0866 19.3224 18.0589 19.2443 18.0429 19.1632C17.8583 18.2287 17.9965 17.824 18.0133 16.8979C18.03 15.9861 17.9934 15.1168 17.9849 13.972L16.9284 13.9352L16.9226 12.1001L18.7579 12.1101L18.7046 13.9878C18.8652 13.7194 18.8087 14.3016 18.9323 13.2861C18.9926 12.7919 18.9418 12.6328 18.8936 12.1655C17.7425 11.2821 18.1766 12.4012 17.9792 11.2552C17.8564 10.5421 18.0602 10.1657 17.8069 9.09051L18.9263 9.18155ZM15.0218 17.7188L15.0128 15.8285L16.9637 15.8653L16.9053 17.8765L15.0218 17.7188Z" fill="#3182B7"/>
<path fill-rule="evenodd" clip-rule="evenodd" d="M16.8983 31.5902L15.0945 31.5519L15.1266 29.7326L16.8988 29.7623L16.8983 31.5902ZM17.8499 27.8363L12.0368 27.6731C12.1004 30.2182 11.64 33.3229 12.8252 35.3199C13.8932 37.1208 15.3131 38.2259 17.9676 38.4061C17.9354 38.1377 18.0344 36.7983 17.9837 35.8666C18.4885 35.4477 17.3426 35.7744 18.7103 35.4818L16.9457 35.4165L16.9085 33.5331L18.762 33.5148C17.8227 32.9069 18.1505 33.7582 17.9606 32.6924C17.8229 31.9169 18.3098 28.9982 17.8499 27.8363Z" fill="#3182B7"/>
<path fill-rule="evenodd" clip-rule="evenodd" d="M26.1395 13.0074C25.5138 14.7331 25.769 20.9357 25.769 23.224C25.769 30.4122 24.2039 37.8731 31.6832 38.4072C31.579 37.9585 31.6138 30.9476 31.768 29.7446L27.6237 29.6367L27.5805 17.5851L31.7192 17.5752L31.7314 9.19526L32.6343 9.14989C29.518 8.36298 26.9298 10.8258 26.1395 13.0074Z" fill="#3182B7"/>
<path fill-rule="evenodd" clip-rule="evenodd" d="M23.8805 27.7048L17.8499 27.8368C18.3098 28.9989 17.8229 31.9179 17.9606 32.6935C18.1505 33.7595 17.8227 32.9081 18.7619 33.516L18.7727 33.5159L18.7725 33.5228C18.8126 33.5491 18.8552 33.5779 18.9 33.6097C18.9154 33.9024 18.9702 34.2275 18.9515 34.5258C18.9508 34.5302 19.0961 34.837 18.7103 35.4833C17.3426 35.7759 18.4885 35.4492 17.9837 35.8682C18.0344 36.8 17.9354 38.1395 17.9676 38.4079C20.2993 38.3341 22.2864 37.1225 23.2175 35.2943C24.4001 32.9733 23.7551 30.3397 24.0058 27.5159L23.8805 27.7048ZM20.6369 31.5883L18.7657 31.5202L18.7727 29.7318L20.6555 29.7701L20.6369 31.5883Z" fill="#0C4B75"/>
<path fill-rule="evenodd" clip-rule="evenodd" d="M18.1884 19.6561H23.6475C23.7614 19.6114 23.8704 19.5609 23.9737 19.5041C23.7319 16.9675 24.3421 14.8711 23.3576 12.5745C22.6612 10.9496 21.0794 9.37042 18.9263 9.18015L17.8069 9.08911C18.0602 10.1643 17.8564 10.5407 17.9792 11.2538C18.1766 12.3998 17.7425 11.2807 18.8936 12.1641C18.9418 12.6313 18.9926 12.7905 18.9323 13.2847C18.8087 14.3001 18.8652 13.718 18.7046 13.9864L17.9849 13.9706C17.9934 15.1154 18.03 15.9846 18.0133 16.8964C17.9965 17.8225 17.8583 18.2272 18.0429 19.1617C18.0589 19.2427 18.0866 19.3209 18.1019 19.389L18.1884 19.6561ZM18.828 15.8767L20.6344 15.8995L20.6028 17.7671L18.7747 17.7401L18.828 15.8767Z" fill="#0C4B75"/>
<path fill-rule="evenodd" clip-rule="evenodd" d="M31.768 29.7475C31.6138 30.9505 31.579 37.9613 31.6832 38.4101C34.7512 38.3078 36.7254 36.4217 37.425 34.0212C37.764 32.8594 37.8012 15.5142 37.569 14.1052C37.1601 11.6297 35.1486 9.42664 32.6343 9.15259L31.7314 9.19796L31.7192 17.5779L35.7621 17.6163L35.6708 29.7332L31.768 29.7475Z" fill="#0C4B75"/>
<path fill-rule="evenodd" clip-rule="evenodd" d="M17.8499 27.8368C18.1039 26.3953 18.0647 21.1672 17.8686 19.656L12.0214 19.8165L12.0368 27.6736L17.8499 27.8368Z" fill="#0C4B75"/>
<path fill-rule="evenodd" clip-rule="evenodd" d="M17.8686 19.656C18.0647 21.1672 18.1039 26.3953 17.8499 27.8368L23.8805 27.7048L23.899 19.656H23.6475H18.1884H17.8686Z" fill="#1A252B"/>
</g>
<defs>
<filter id="filter0_b_49_53" x="-15" y="-15" width="80" height="80" filterUnits="userSpaceOnUse" color-interpolation-filters="sRGB">
<feFlood flood-opacity="0" result="BackgroundImageFix"/>
<feGaussianBlur in="BackgroundImage" stdDeviation="7.5"/>
<feComposite in2="SourceAlpha" operator="in" result="effect1_backgroundBlur_49_53"/>
<feBlend mode="normal" in="SourceGraphic" in2="effect1_backgroundBlur_49_53" result="shape"/>
</filter>
</defs>
</svg>
