<svg width="51" height="51" viewBox="0 0 51 51" fill="none" xmlns="http://www.w3.org/2000/svg">
<g filter="url(#filter0_b_36_75)">
<rect x="0.600098" y="0.268555" width="50" height="49.7602" rx="20" fill="white"/>
<g clip-path="url(#clip0_36_75)">
<path d="M11.529 26.2882H20.9738L22.4587 19.3259C22.5341 18.9723 22.8504 18.7213 23.2154 18.7324C23.5785 18.742 23.8829 19.0083 23.9392 19.3653L25.176 27.2109L25.948 24.7621C26.0379 24.4771 26.2892 24.2723 26.5877 24.2412C26.8862 24.21 27.1749 24.3581 27.3223 24.6184L28.4061 26.5316L38.9998 26.4499C39.4234 25.6295 39.7355 24.7307 39.8895 23.738C40.319 20.9735 39.6011 18.1922 37.9695 16.2979C36.5241 14.6199 34.4691 13.733 32.027 13.733C28.2374 13.733 26.0842 16.2655 25.3058 17.4079C24.5275 16.2655 22.3742 13.733 18.5846 13.733C16.1425 13.733 14.0875 14.6199 12.6421 16.2979C11.0106 18.1921 10.2927 20.9735 10.7222 23.738C10.8663 24.6655 11.1472 25.5117 11.529 26.2882Z" fill="#0F4C75"/>
<path d="M27.9741 28.0337C27.7033 28.0293 27.4468 27.8898 27.3123 27.6524L26.8644 26.8618L25.6494 30.7158C25.5503 31.0299 25.258 31.2408 24.9313 31.2408C24.9126 31.2408 24.894 31.2402 24.8751 31.2387C24.5263 31.2129 24.2413 30.9514 24.187 30.6076L23.0842 23.6118L22.3203 27.1933C22.2465 27.5395 21.9393 27.7871 21.5838 27.7871H12.4454C14.2355 30.217 17.0056 31.8535 19.2219 33.1612C20.3082 33.8022 21.3342 34.4077 22.0478 34.987C24.6825 37.1261 24.9236 38.2053 24.9325 38.2503C24.9557 38.4375 25.1147 38.5854 25.3054 38.5854C25.5 38.5854 25.6619 38.4446 25.6795 38.2517C25.6813 38.241 25.8858 37.1617 28.5646 34.987C29.2781 34.4077 30.3042 33.8022 31.3904 33.1612C33.5549 31.8839 36.2481 30.2934 38.0402 27.9562L27.9741 28.0337Z" fill="#0F4C75"/>
</g>
</g>
<defs>
<filter id="filter0_b_36_75" x="-14.3999" y="-14.7314" width="80" height="79.7602" filterUnits="userSpaceOnUse" color-interpolation-filters="sRGB">
<feFlood flood-opacity="0" result="BackgroundImageFix"/>
<feGaussianBlur in="BackgroundImage" stdDeviation="7.5"/>
<feComposite in2="SourceAlpha" operator="in" result="effect1_backgroundBlur_36_75"/>
<feBlend mode="normal" in="SourceGraphic" in2="effect1_backgroundBlur_36_75" result="shape"/>
</filter>
<clipPath id="clip0_36_75">
<rect x="10.6" y="9.04974" width="29.4118" height="29.2707" rx="14.6353" fill="white"/>
</clipPath>
</defs>
</svg>
