<svg width="30" height="31" viewBox="0 0 30 31" fill="none" xmlns="http://www.w3.org/2000/svg">
<path fill-rule="evenodd" clip-rule="evenodd" d="M6.16168 22.0781C7.18078 21.824 6.38598 21.8578 7.05048 22.4419C7.44328 22.7871 7.13937 22.6758 7.68237 23.0152L12.4151 18.3113C13.4002 17.3808 14.0328 16.6722 14.8429 15.8461C15.5023 15.1737 16.6416 13.8563 17.3822 13.5322L17.419 13.2489C16.7664 12.8488 15.063 10.7074 14.3044 10.3025C14.2048 11.3261 6.07538 18.4803 4.87628 20.2294C5.85628 21.7336 6.11828 20.8109 6.16168 22.0781Z" fill="#B6D4C8"/>
<path fill-rule="evenodd" clip-rule="evenodd" d="M7.68231 23.0145C7.96221 23.4091 8.00122 23.3457 8.26502 23.66C8.80661 24.305 8.57901 23.6962 8.66501 24.5596C9.21881 24.3926 10.0345 25.4769 10.4703 25.9062L19.6212 16.7591C20.2845 16.2232 19.7258 16.4677 20.4086 16.4139C19.9746 15.7197 19.4083 15.3286 18.8942 14.8418C18.3311 14.3086 18.0347 13.7365 17.3821 13.5325C16.6415 13.8566 15.5022 15.1738 14.8428 15.8461C14.0327 16.6722 13.4001 17.3807 12.415 18.3111L7.68231 23.0145Z" fill="#95B4A4"/>
<path fill-rule="evenodd" clip-rule="evenodd" d="M25.0409 11.3002C25.2527 12.6896 23.9484 12.8615 23.5875 12.1734C23.1418 11.3236 24.0281 10.3694 25.0409 11.3002ZM17.5075 10.7649C16.5896 10.1943 16.3972 9.45158 15.3504 8.91463C14.8089 9.27216 14.1886 9.62079 14.3044 10.3042C15.063 10.7092 16.7664 12.8505 17.419 13.2505C18.0024 12.6228 18.0126 12.6006 18.6037 12.1796C19.4711 12.6652 19.4223 12.8948 20.0426 13.5942C20.1358 12.2839 20.4534 13.1719 21.4375 11.6123C21.4711 11.6571 21.5068 11.6781 21.5179 11.7598C21.8458 14.1566 25.0006 15.3513 26.4399 13.2058C27.1719 12.1145 26.9862 10.6275 26.1341 9.82711C24.6913 8.47209 23.4548 9.66519 22.9583 9.02604C22.9301 8.99984 22.6268 8.76462 22.5839 8.73642C22.5604 8.72091 22.4723 8.73502 22.4544 8.67631C22.4369 8.61931 22.3669 8.64601 22.3239 8.62891C21.5491 9.09715 20.978 9.7655 20.3535 10.3691C19.709 10.9919 19.3219 11.6273 18.6037 12.0073C18.1008 11.5523 17.8465 11.3488 17.5075 10.7649Z" fill="#95B4A4"/>
<path fill-rule="evenodd" clip-rule="evenodd" d="M19.5084 7.10139C19.0807 7.38395 18.5619 7.29676 18.2967 6.85902C17.916 6.23071 18.281 5.97695 18.6443 5.75058C19.5859 5.16376 20.3474 6.54707 19.5084 7.10139ZM17.5075 10.7632C17.8465 11.347 18.1007 11.5504 18.6036 12.0053C19.3219 11.6254 19.7089 10.9901 20.3535 10.3674C20.978 9.76401 21.5491 9.09581 22.3239 8.62767C21.9951 7.78439 22.2914 8.4377 21.7577 7.80239C21.0497 7.0501 22.2491 6.12923 20.9355 4.65453C18.3194 1.71765 13.4904 6.95761 18.5988 9.02732L19.0187 9.22469L17.5075 10.7632Z" fill="#B6D4C8"/>
<path fill-rule="evenodd" clip-rule="evenodd" d="M7.39024 25.4779C7.09514 24.8565 6.93285 24.7088 6.57325 24.3456C6.44495 24.2161 6.27605 24.0347 6.16055 23.9437C5.67945 23.5645 6.09825 23.8167 5.60935 23.6237C4.76516 24.2029 2.62987 26.8182 1.97107 27.612L3.15037 28.7228C3.79297 28.382 4.58356 27.5371 5.22065 26.9955C6.96844 25.5098 6.49875 25.3038 7.39024 25.4779Z" fill="#B6D4C8"/>
<path fill-rule="evenodd" clip-rule="evenodd" d="M26.4579 4.61849C27.0103 6.05084 26.0545 6.3828 24.8323 6.23938C24.1184 6.23077 24.8678 5.85861 23.6954 7.01771C23.6676 7.04522 23.5864 7.16974 23.5656 7.13203C23.5445 7.09343 23.4802 7.21395 23.4308 7.24605C23.6031 7.37688 23.6404 7.32247 23.7724 7.5456C23.9493 7.84456 23.877 7.72454 23.9504 8.04619C25.0526 7.59071 26.0954 8.83053 27.6785 7.11033C28.7036 5.99653 28.5309 4.52057 27.7534 3.35197C26.9319 3.36777 27.5293 3.09252 26.9197 3.70353C26.3814 4.24293 26.6177 3.91317 26.4579 4.61849Z" fill="#95B4A4"/>
<path fill-rule="evenodd" clip-rule="evenodd" d="M22.8655 6.67943C23.1981 6.97929 23.0357 6.90308 23.4309 7.24626C23.4803 7.21415 23.5446 7.09362 23.5657 7.13223C23.5865 7.16994 23.6677 7.04541 23.6955 7.0179C24.8679 5.85874 24.1185 6.23093 24.8324 6.23953C24.4961 5.6725 24.3548 5.48636 24.5108 4.52524C25.4001 4.01012 25.682 3.94691 26.458 4.61856C26.6178 3.9132 26.3815 4.24298 26.9198 3.70356C27.5294 3.09252 26.932 3.36778 27.7535 3.35198C26.947 2.36035 25.316 1.88405 23.9632 2.76694C22.3477 3.82128 22.7532 5.08867 22.8655 6.67943Z" fill="#B6D4C8"/>
<path fill-rule="evenodd" clip-rule="evenodd" d="M17.419 13.25L17.3822 13.5333C18.0348 13.7373 18.3312 14.3094 18.8943 14.8426C19.4084 15.3294 19.9747 15.7204 20.4087 16.4146C20.9828 16.5532 21.5264 15.7637 21.7825 15.3392C21.3772 14.6812 20.6096 13.8404 20.0426 13.5937C19.4223 12.8943 19.4712 12.6647 18.6037 12.1792C18.0126 12.6002 18.0024 12.6224 17.419 13.25Z" fill="#439385"/>
<path fill-rule="evenodd" clip-rule="evenodd" d="M5.6093 23.6232C6.0982 23.8163 5.67941 23.564 6.16051 23.9433C6.27601 24.0343 6.44491 24.2157 6.57321 24.3452C6.93281 24.7085 7.0951 24.8562 7.3902 25.4777C8.0251 25.43 8.23851 24.9487 8.66501 24.5601C8.57901 23.6968 8.80661 24.3056 8.26501 23.6606C8.00121 23.3463 7.9622 23.4097 7.6823 23.0151C7.1393 22.6757 7.44321 22.7869 7.05041 22.4418C6.38591 21.8578 7.18071 21.824 6.16161 22.078C5.67681 22.5197 5.64191 22.4948 5.26581 23.0825C5.60291 23.7202 4.9472 23.0932 5.6093 23.6232Z" fill="#439385"/>
<path fill-rule="evenodd" clip-rule="evenodd" d="M24.8323 6.23882C26.0545 6.38228 27.0103 6.05025 26.4579 4.61759C25.6819 3.94582 25.4 4.00905 24.5107 4.52425C24.3547 5.48553 24.496 5.6717 24.8323 6.23882Z" fill="#FEFEFE"/>
<path fill-rule="evenodd" clip-rule="evenodd" d="M21.7577 7.80309C22.2914 8.43868 21.9951 7.78509 22.3239 8.62873C22.3669 8.64583 22.4369 8.61913 22.4544 8.67614C22.4723 8.73486 22.5604 8.72076 22.5839 8.73626C22.6268 8.76447 22.9301 8.99974 22.9583 9.02594L23.9504 8.04556C23.877 7.72387 23.9493 7.8439 23.7724 7.54492C23.6404 7.32175 23.6031 7.37617 23.4308 7.24533C23.0356 6.90213 23.198 6.97835 22.8654 6.67847C22.3658 6.86202 21.94 7.31555 21.7577 7.80309Z" fill="#439385"/>
<path fill-rule="evenodd" clip-rule="evenodd" d="M18.6443 5.75131C18.281 5.97761 17.916 6.2313 18.2967 6.85943C18.5619 7.29703 19.0807 7.3842 19.5084 7.10172C20.3474 6.54756 19.5859 5.16467 18.6443 5.75131Z" fill="#FEFEFE"/>
<path fill-rule="evenodd" clip-rule="evenodd" d="M25.0409 11.2994C24.0281 10.3688 23.1418 11.3228 23.5875 12.1724C23.9484 12.8603 25.2527 12.6884 25.0409 11.2994Z" fill="#FEFEFE"/>
<path fill-rule="evenodd" clip-rule="evenodd" d="M4.66444 22.941C4.1248 23.4333 4.08573 23.4049 3.66742 24.0594C4.04287 24.7682 3.31234 24.0708 4.04945 24.6601C4.59387 24.8749 4.12792 24.5945 4.66311 25.0172C4.7919 25.1182 4.9799 25.3203 5.12238 25.464C5.52299 25.8681 5.70376 26.0332 6.0318 26.7248C6.73852 26.6707 6.97606 26.1357 7.45114 25.7031C7.35541 24.7425 7.60887 25.4199 7.00578 24.7026C6.71214 24.3527 6.6685 24.4237 6.35705 23.9841C5.75263 23.6056 6.09113 23.7293 5.65368 23.3452C4.9139 22.6963 5.79871 22.6578 4.66444 22.941Z" fill="#1A252B"/>
<path fill-rule="evenodd" clip-rule="evenodd" d="M17.154 13.4289C17.8804 13.6552 18.2103 14.2928 18.8373 14.8861C19.4094 15.4284 20.0402 15.8639 20.5232 16.6367C21.162 16.7903 21.7671 15.9108 22.052 15.4383C21.6008 14.7068 20.7469 13.7705 20.1154 13.4958C19.4253 12.7174 19.4794 12.4626 18.5139 11.9219C17.856 12.39 17.8448 12.4156 17.1948 13.1131L17.154 13.4289Z" fill="#1A252B"/>
<path fill-rule="evenodd" clip-rule="evenodd" d="M22.0245 7.04908C22.6191 7.75657 22.2891 7.02927 22.6553 7.96865C22.7028 7.98713 22.7806 7.95719 22.8005 8.02131C22.8203 8.08677 22.918 8.07108 22.9445 8.08822C22.9924 8.1195 23.3297 8.38146 23.3613 8.4113L24.4653 7.31961C24.3841 6.96225 24.4646 7.09462 24.2675 6.76297C24.1202 6.51382 24.0787 6.57505 23.8873 6.42854C23.4472 6.04702 23.6279 6.1324 23.2579 5.79797C22.7016 6.00282 22.2277 6.5068 22.0245 7.04908Z" fill="#1A252B"/>
<path fill-rule="evenodd" clip-rule="evenodd" d="M18.8373 14.885C18.2104 14.2916 17.8805 13.654 17.1541 13.4277C16.3297 13.7878 15.0616 15.2551 14.3278 16.0038C13.4264 16.9217 12.7215 17.7116 11.625 18.7462L6.35718 23.9823C6.66863 24.422 6.71226 24.351 7.0059 24.7009C7.60899 25.4183 7.35553 24.7408 7.45126 25.7015C8.06759 25.5165 8.97556 26.7234 9.46054 27.2002L19.6471 17.0199C20.3847 16.4221 19.7631 16.6954 20.5232 16.6357C20.0403 15.8629 19.4095 15.4273 18.8373 14.885Z" fill="#0C4B75"/>
<path fill-rule="evenodd" clip-rule="evenodd" d="M17.1949 13.1126C17.8448 12.415 17.8561 12.3894 18.5139 11.9212C19.4795 12.462 19.4254 12.7168 20.1155 13.4954C20.219 12.0365 20.5728 13.0257 21.6682 11.2893C21.7058 11.339 21.7453 11.3633 21.758 11.453C22.1228 14.1215 25.6347 15.4509 27.2368 13.0627C28.0518 11.8486 27.8446 10.1933 26.8964 9.30235C25.2901 7.79365 23.9138 9.12156 23.3613 8.41135C23.3297 8.38152 22.9925 8.11959 22.9445 8.08831C22.918 8.07116 22.8204 8.08686 22.8006 8.0214C22.7806 7.95728 22.7028 7.98723 22.6553 7.96875C21.7929 8.48961 21.1568 9.23411 20.4619 9.9058C19.7439 10.5989 19.3137 11.3063 18.5139 11.7291C17.9544 11.2224 17.6713 10.9961 17.2939 10.3456C16.2725 9.71077 16.0579 8.8839 14.8927 8.28623C14.2901 8.68453 13.5993 9.07314 13.7287 9.83322C14.5725 10.2844 16.469 12.6669 17.1949 13.1126ZM24.0615 11.9141C23.5654 10.969 24.5518 9.9058 25.6795 10.9421C25.9152 12.4891 24.4634 12.6799 24.0615 11.9141Z" fill="#0C4B75"/>
<path fill-rule="evenodd" clip-rule="evenodd" d="M24.4653 7.31937C25.6926 6.81269 26.8535 8.19169 28.6153 6.27752C29.7563 5.03798 29.5642 3.39563 28.6984 2.09487C27.7845 2.11335 28.449 1.80592 27.7706 2.48624C27.1715 3.08686 27.4348 2.71965 27.2567 3.50526C27.8717 5.0992 26.808 5.46786 25.4472 5.30835C24.6528 5.29845 25.4868 4.88438 24.1817 6.175C24.1506 6.20505 24.0602 6.3443 24.0371 6.30178C24.0141 6.25904 23.9421 6.39283 23.8873 6.42845C24.0787 6.57493 24.1202 6.51371 24.2675 6.76282C24.4646 7.09441 24.3842 6.96206 24.4653 7.31937Z" fill="#0C4B75"/>
<path fill-rule="evenodd" clip-rule="evenodd" d="M6.03186 26.7254C5.70383 26.0338 5.52305 25.8687 5.12244 25.4646C4.97997 25.3209 4.79196 25.1188 4.66318 25.0179C4.12799 24.5951 4.59394 24.8755 4.04952 24.6607C3.10983 25.3067 0.733097 28.2168 0 29.1004L1.31237 30.337C2.02765 29.957 2.9079 29.0179 3.6174 28.4146C5.56268 26.761 5.03996 26.5318 6.03186 26.7254Z" fill="#3182B7"/>
<path fill-rule="evenodd" clip-rule="evenodd" d="M6.35713 23.9824L11.625 18.7462C12.7215 17.7115 13.4263 16.9216 14.3277 16.0037C15.0616 15.255 16.3296 13.7876 17.154 13.4275L17.1949 13.1116C16.469 12.666 14.5725 10.2835 13.7286 9.83234C13.6177 10.9723 4.56824 18.934 3.23395 20.881C4.32469 22.5562 4.61644 21.5287 4.66453 22.9392C5.7988 22.6559 4.91398 22.6944 5.65376 23.3435C6.09121 23.7276 5.75271 23.6038 6.35713 23.9824Z" fill="#3182B7"/>
<path fill-rule="evenodd" clip-rule="evenodd" d="M17.2938 10.346C17.6713 10.9964 17.9544 11.2228 18.5139 11.7295C19.3137 11.3067 19.7439 10.5993 20.4619 9.90619C21.1568 9.23449 21.7928 8.48999 22.6553 7.96913C22.2891 7.02982 22.6191 7.75706 22.0245 7.04963C21.2366 6.21274 22.5716 5.18794 21.1093 3.54554C18.1979 0.276218 12.8226 6.11021 18.5087 8.41462L18.9759 8.6337L17.2938 10.346ZM19.5209 6.26973C19.0451 6.58421 18.4678 6.48747 18.1721 6.00068C17.7485 5.30048 18.155 5.01862 18.5595 4.76515C19.6074 4.11204 20.4552 5.65336 19.5209 6.26973Z" fill="#3182B7"/>
<path fill-rule="evenodd" clip-rule="evenodd" d="M24.4799 1.4445C22.6817 2.6173 23.1332 4.02789 23.2579 5.79861C23.6279 6.13303 23.4473 6.04765 23.8873 6.42915C23.9422 6.39353 24.0141 6.25972 24.0371 6.30247C24.0603 6.34499 24.1507 6.20573 24.1817 6.17567C25.4869 4.88487 24.6528 5.29899 25.4472 5.3089C25.0731 4.67836 24.9154 4.47052 25.0889 3.40158C26.0795 2.82793 26.3929 2.7569 27.2567 3.50556C27.4348 2.71983 27.1716 3.08709 27.7706 2.48639C28.449 1.80597 27.7846 2.11345 28.6984 2.09497C27.801 0.99175 25.9858 0.461067 24.4799 1.4445Z" fill="#3182B7"/>
<path fill-rule="evenodd" clip-rule="evenodd" d="M19.5209 6.26898C20.4553 5.65252 19.6074 4.111 18.5595 4.7642C18.155 5.0177 17.7486 5.2996 18.1721 5.99988C18.4679 6.48675 19.0452 6.58349 19.5209 6.26898Z" fill="#BBE0FA"/>
<path fill-rule="evenodd" clip-rule="evenodd" d="M25.0888 3.40071C24.9153 4.46987 25.073 4.67775 25.4471 5.30842C26.8079 5.46798 27.8716 5.0992 27.2566 3.50471C26.3928 2.7559 26.0794 2.82694 25.0888 3.40071Z" fill="#BBE0FA"/>
<path fill-rule="evenodd" clip-rule="evenodd" d="M25.6795 10.9423C24.5518 9.90574 23.5653 10.9693 24.0615 11.9146C24.4634 12.6806 25.9151 12.4898 25.6795 10.9423Z" fill="#BBE0FA"/>
</svg>
