<svg width="50" height="50" viewBox="0 0 50 50" fill="none" xmlns="http://www.w3.org/2000/svg">
<g filter="url(#filter0_b_36_135)">
<rect y="0.172607" width="50" height="49.7602" rx="20" fill="#BBE1FA" fill-opacity="0.5"/>
<path fill-rule="evenodd" clip-rule="evenodd" d="M18.3238 27.467L18.339 23.602L22.552 23.4911L22.5461 22.1968L22.6052 19.005L24.7134 19.0172C24.6069 17.419 25.0313 15.2892 24.469 13.8383C25.7427 13.6469 29.454 13.5482 30.7343 13.6364C32.7242 13.773 34.6984 13.6059 36.7506 13.7669C36.2408 13.4223 36.1674 13.5451 35.4119 13.5436L33.0665 13.5451L31.145 13.4966L29.0926 13.5194L20.1494 13.5375L18.3619 13.5422L15.6953 13.5254L13.3047 13.5163C9.48388 13.9235 10.0266 17.1806 10.0266 20.9526C10.0266 24.5714 10.0214 28.19 10.0272 31.8071C10.0384 39.1644 9.18901 38.1983 24.6155 38.1147C24.7435 36.4907 24.8751 34.2134 24.4848 32.6716L22.5632 32.5894L22.5079 28.1504C21.6987 28.1338 20.9444 28.1125 20.1331 28.1535C18.992 28.2113 18.4118 28.5409 18.3238 27.467Z" fill="#3182B7"/>
<path fill-rule="evenodd" clip-rule="evenodd" d="M26.9258 28.1338L26.7893 32.6151L24.4847 32.6714C24.875 34.2132 24.7435 36.4904 24.6155 38.1144C28.0046 38.1493 31.4004 38.1159 34.7904 38.1296C39.2025 38.1478 39.3219 36.7669 39.3271 32.2901C39.3317 28.7519 39.3292 25.2139 39.3292 21.6759C39.3292 19.2438 40.1202 13.898 36.7506 13.7672C34.6983 13.6063 32.7242 13.7733 30.7343 13.6368C29.454 13.5486 25.7427 13.6472 24.469 13.8386C25.0313 15.2894 24.6068 17.4192 24.7134 19.0174L26.7472 19.0463L26.8261 23.4457L31.02 23.5763L31.0589 28.1139L26.9258 28.1338Z" fill="#0C4B75"/>
<path fill-rule="evenodd" clip-rule="evenodd" d="M20.1494 13.5369L29.0927 13.5188L28.9323 10.9612L20.2376 11.0675L20.1494 13.5369Z" fill="#BBE0FA"/>
<path fill-rule="evenodd" clip-rule="evenodd" d="M15.6953 13.5253L15.79 11.5626L13.1951 11.59L13.3047 13.5162L15.6953 13.5253Z" fill="white"/>
<path fill-rule="evenodd" clip-rule="evenodd" d="M32.9121 11.4691L33.0665 13.5449L35.4119 13.5433L35.4796 11.5497L32.9121 11.4691Z" fill="white"/>
<path fill-rule="evenodd" clip-rule="evenodd" d="M20.1494 13.5386L20.2375 11.0674L28.9323 10.961L29.0926 13.5204L31.145 13.4976L31.1069 10.9016L24.6391 10.8166L18.2786 10.8242L18.3619 13.5432L20.1494 13.5386Z" fill="white"/>
<path fill-rule="evenodd" clip-rule="evenodd" d="M18.2786 10.8253L24.6391 10.8177L24.5117 8.79163L18.3153 8.84021L18.2786 10.8253Z" fill="#3182B7"/>
<path fill-rule="evenodd" clip-rule="evenodd" d="M24.5117 8.79195L24.6391 10.8166L31.1069 10.9016L31.0306 8.79041L24.5117 8.79195Z" fill="#0C4B75"/>
</g>
<defs>
<filter id="filter0_b_36_135" x="-15" y="-14.8274" width="80" height="79.7602" filterUnits="userSpaceOnUse" color-interpolation-filters="sRGB">
<feFlood flood-opacity="0" result="BackgroundImageFix"/>
<feGaussianBlur in="BackgroundImage" stdDeviation="7.5"/>
<feComposite in2="SourceAlpha" operator="in" result="effect1_backgroundBlur_36_135"/>
<feBlend mode="normal" in="SourceGraphic" in2="effect1_backgroundBlur_36_135" result="shape"/>
</filter>
</defs>
</svg>
