<svg width="90" height="87" viewBox="0 0 90 87" fill="none" xmlns="http://www.w3.org/2000/svg">
<g filter="url(#filter0_b_8_226)">
<rect width="90" height="86.3733" rx="20" fill="#0F4C75" fill-opacity="0.3"/>
<g clip-path="url(#clip0_8_226)">
<path d="M55.8506 38.0215H51.2797V33.6301C51.2797 32.6076 50.4158 31.7785 49.3502 31.7785H41.5502C40.4848 31.7785 39.6209 32.6076 39.6209 33.6301V38.0213H35.0498C33.9844 38.0213 33.1205 38.8504 33.1205 39.8729V47.3644C33.1205 48.3869 33.9844 49.216 35.0498 49.216H39.6209V53.607C39.6209 54.6295 40.4848 55.4586 41.5502 55.4586H49.3502C50.4158 55.4586 51.2797 54.6295 51.2797 53.607V49.216H55.8506C56.916 49.216 57.7799 48.3869 57.7799 47.3644V39.8729C57.7799 38.8504 56.916 38.0215 55.8506 38.0215V38.0215ZM53.9213 45.5129H49.3502C48.2848 45.5129 47.4209 46.342 47.4209 47.3644V51.7555H43.4795V47.3644C43.4795 46.342 42.6156 45.5129 41.5502 45.5129H36.9791V41.7245H41.5502C42.6156 41.7245 43.4795 40.8954 43.4795 39.8729V35.4817H47.4209V39.8729C47.4209 40.8954 48.2848 41.7245 49.3502 41.7245H53.9213V45.5129V45.5129Z" fill="white"/>
<path d="M45.4502 24.2871C34.3504 24.2871 25.3203 32.9592 25.3203 43.6186C25.3203 54.2779 34.3506 62.95 45.4502 62.95C56.5499 62.95 65.5801 54.2779 65.5801 43.6186C65.5801 32.9592 56.5501 24.2871 45.4502 24.2871V24.2871ZM45.4502 59.2466C36.4783 59.2466 29.1791 52.236 29.1791 43.6186C29.1791 35.0011 36.4784 27.9905 45.4502 27.9905C54.422 27.9905 61.7213 35.0011 61.7213 43.6186C61.7213 52.236 54.4222 59.2466 45.4502 59.2466Z" fill="white"/>
<path d="M45.4502 22.1635C46.5156 22.1635 47.3795 21.3344 47.3795 20.312V17.3988C47.3795 16.3763 46.5156 15.5472 45.4502 15.5472C44.3848 15.5472 43.5209 16.3763 43.5209 17.3988V20.312C43.5209 21.3344 44.3848 22.1635 45.4502 22.1635Z" fill="white"/>
<path d="M45.4502 65.0735C44.3848 65.0735 43.5209 65.9026 43.5209 66.9251V69.8381C43.5209 70.8606 44.3848 71.6899 45.4502 71.6899C46.5156 71.6899 47.3795 70.8606 47.3795 69.8381V66.9251C47.3795 65.9026 46.5156 65.0735 45.4502 65.0735Z" fill="white"/>
<path d="M72.7506 41.767H69.7179C68.6525 41.767 67.7886 42.5961 67.7886 43.6185C67.7886 44.641 68.6525 45.4701 69.7179 45.4701H72.7506C73.8162 45.4701 74.6801 44.641 74.6801 43.6185C74.6801 42.5961 73.8162 41.767 72.7506 41.767Z" fill="white"/>
<path d="M21.1832 41.767H18.1501C17.0847 41.767 16.2206 42.5961 16.2206 43.6185C16.2206 44.641 17.0847 45.4701 18.1501 45.4701H21.1832C22.2486 45.4701 23.1126 44.641 23.1126 43.6185C23.1126 42.5961 22.2486 41.767 21.1832 41.767V41.767Z" fill="white"/>
<path d="M63.39 23.7692L61.2446 25.8295C60.4912 26.5527 60.4916 27.7253 61.2456 28.4481C61.6222 28.8094 62.1156 28.9899 62.6092 28.9899C63.1034 28.9899 63.5974 28.809 63.974 28.4472L66.1194 26.3869C66.8726 25.6637 66.8722 24.4913 66.1184 23.7684C65.3648 23.0454 64.143 23.0458 63.39 23.7692Z" fill="white"/>
<path d="M26.9256 58.7894L24.7806 60.8494C24.0276 61.5729 24.0282 62.745 24.7818 63.4681C25.1584 63.8293 25.652 64.0099 26.1456 64.0099C26.6396 64.0099 27.1338 63.829 27.5104 63.4671L29.6554 61.4069C30.4086 60.6835 30.408 59.5113 29.6544 58.788C28.9004 58.0656 27.6786 58.0661 26.9256 58.7894V58.7894Z" fill="white"/>
<path d="M26.9262 28.447C27.3028 28.8088 27.7968 28.9897 28.291 28.9897C28.7844 28.9897 29.278 28.8092 29.6548 28.4479C30.4086 27.7253 30.4088 26.5527 29.6556 25.8293L27.5104 23.7692C26.7574 23.0458 25.5356 23.045 24.7817 23.7682C24.0279 24.4909 24.0276 25.6633 24.7808 26.3867L26.9262 28.447V28.447Z" fill="white"/>
<path d="M63.9742 58.7894C63.2208 58.0661 61.9992 58.0656 61.2458 58.7882C60.4922 59.5113 60.4914 60.6835 61.2446 61.4071L63.3896 63.4674C63.7664 63.8292 64.2604 64.0101 64.7544 64.0101C65.248 64.0101 65.7416 63.8296 66.1182 63.4683C66.8718 62.7454 66.8724 61.5733 66.1194 60.8496L63.9742 58.7894V58.7894Z" fill="white"/>
</g>
</g>
<defs>
<filter id="filter0_b_8_226" x="-15" y="-15" width="120" height="116.373" filterUnits="userSpaceOnUse" color-interpolation-filters="sRGB">
<feFlood flood-opacity="0" result="BackgroundImageFix"/>
<feGaussianBlur in="BackgroundImage" stdDeviation="7.5"/>
<feComposite in2="SourceAlpha" operator="in" result="effect1_backgroundBlur_8_226"/>
<feBlend mode="normal" in="SourceGraphic" in2="effect1_backgroundBlur_8_226" result="shape"/>
</filter>
<clipPath id="clip0_8_226">
<rect width="58.5" height="56.1427" fill="white" transform="translate(16.2 15.5472)"/>
</clipPath>
</defs>
</svg>
