<svg width="85" height="86" viewBox="0 0 85 86" fill="none" xmlns="http://www.w3.org/2000/svg">
<g filter="url(#filter0_b_8_227)">
<rect width="85" height="85.9916" rx="20" fill="#0F4C75" fill-opacity="0.3"/>
<g clip-path="url(#clip0_8_227)">
<path d="M18.5791 44.9652H34.6353L37.1596 32.9335C37.2879 32.3225 37.8256 31.8886 38.4461 31.9078C39.0634 31.9244 39.5808 32.3846 39.6766 33.0016L41.779 46.5596L43.0914 42.3279C43.2442 41.8353 43.6715 41.4815 44.179 41.4276C44.6864 41.3738 45.1772 41.6297 45.4279 42.0796L47.2702 45.3858L65.2795 45.2446C65.9997 43.8268 66.5302 42.2736 66.7921 40.5581C67.5223 35.7807 66.3018 30.9743 63.5281 27.7007C61.0708 24.8009 57.5774 23.2683 53.4257 23.2683C46.9834 23.2683 43.3231 27.6448 41.9997 29.6189C40.6766 27.6448 37.016 23.2683 30.5737 23.2683C26.4221 23.2683 22.9287 24.8009 20.4714 27.7007C17.6979 30.9741 16.4774 35.7807 17.2076 40.5581C17.4526 42.1609 17.9301 43.6232 18.5791 44.9652Z" fill="white"/>
<path d="M46.5358 47.9816C46.0754 47.9741 45.6394 47.7329 45.4108 47.3227L44.6494 45.9564L42.5838 52.6165C42.4154 53.1594 41.9184 53.5238 41.3631 53.5238C41.3314 53.5238 41.2996 53.5228 41.2676 53.5202C40.6747 53.4757 40.19 53.0237 40.0978 52.4295L38.223 40.3401L36.9245 46.5293C36.799 47.1276 36.2767 47.5555 35.6723 47.5555H20.1371C23.1802 51.7545 27.8895 54.5827 31.6571 56.8425C33.5038 57.9503 35.248 58.9967 36.4611 59.9977C40.9402 63.6943 41.35 65.5594 41.3652 65.6371C41.4046 65.9606 41.6749 66.2163 41.9991 66.2163C42.3298 66.2163 42.6051 65.9728 42.635 65.6395C42.6381 65.6211 42.9858 63.756 47.5396 59.9977C48.7527 58.9967 50.4969 57.9503 52.3436 56.8425C56.0232 54.6352 60.6016 51.8866 63.6483 47.8477L46.5358 47.9816Z" fill="white"/>
</g>
</g>
<defs>
<filter id="filter0_b_8_227" x="-15" y="-15" width="115" height="115.992" filterUnits="userSpaceOnUse" color-interpolation-filters="sRGB">
<feFlood flood-opacity="0" result="BackgroundImageFix"/>
<feGaussianBlur in="BackgroundImage" stdDeviation="7.5"/>
<feComposite in2="SourceAlpha" operator="in" result="effect1_backgroundBlur_8_227"/>
<feBlend mode="normal" in="SourceGraphic" in2="effect1_backgroundBlur_8_227" result="shape"/>
</filter>
<clipPath id="clip0_8_227">
<rect width="50" height="50.5833" fill="white" transform="translate(16.9999 15.175)"/>
</clipPath>
</defs>
</svg>
