<svg width="25" height="31" viewBox="0 0 25 31" fill="none" xmlns="http://www.w3.org/2000/svg">
<path fill-rule="evenodd" clip-rule="evenodd" d="M12.442 27.6239L12.4405 26.2585C12.1429 26.0664 12.4335 26.2312 11.9891 26.0424L11.4736 25.8534L11.3245 24.0082L9.29414 24.0419L9.2625 22.2339C9.99133 21.842 10.2817 21.9932 11.2902 22.0279L11.288 20.2673C11.6689 20.1112 11.7313 20.1498 11.9708 20.0578C12.5055 19.8525 12.1166 20.0844 12.4387 19.8236L12.4228 17.7286L5.07962 17.7397L5.11573 15.8609L12.4346 15.8985L12.4988 14.2427L20.2596 14.0762C20.1294 13.8882 20.2284 14.0395 20.048 13.6118C19.844 13.1281 20.0375 13.4127 19.8025 13.0084L19.8041 13.9995L5.08976 13.9485L5.11606 12.1016L19.6925 12.1262C19.6404 12.0954 19.5591 12.0748 19.5183 12.0655C18.5843 11.8519 13.331 11.9992 12.3741 12.0124L12.4992 10.2624L5.06926 10.2287L5.15952 8.3527L12.5731 8.33168L12.5107 6.51531L5.75719 6.50634L5.74437 4.66406L3.0711 4.68837C2.8529 7.15431 2.78448 26.7504 3.30357 27.6182L12.442 27.6239Z" fill="#FEFDFD"/>
<path fill-rule="evenodd" clip-rule="evenodd" d="M12.5108 6.51582L12.5732 8.33218L19.7982 8.43142L19.7753 10.2304L12.4993 10.2629L12.3742 12.0129C13.3311 11.9997 18.5844 11.8524 19.5184 12.0659C19.5592 12.0753 19.6406 12.0959 19.6926 12.1267L19.8026 13.0088C20.0376 13.4132 19.8442 13.1286 20.0481 13.6123C20.2285 14.0399 20.1296 13.8887 20.2597 14.0767L12.4989 14.2432L12.4347 15.8989L12.4229 17.729L12.4388 19.824C12.1167 20.0849 12.5056 19.8529 11.9709 20.0583C11.7314 20.1502 11.669 20.1117 11.288 20.2677L11.2903 22.0284C10.2818 21.9936 9.99141 21.8424 9.26257 22.2343L11.2811 22.0774L11.4284 20.3001L13.4555 20.2377L13.4623 22.1077L15.5599 22.1546C15.7114 24.6072 15.6882 23.846 13.5247 24.0651C13.503 24.3167 13.5123 24.7306 13.4887 24.9351C13.4875 24.9459 13.433 25.3354 13.4303 25.3486L13.2472 25.9175L11.4737 25.8538L11.9892 26.0428C12.4336 26.2316 12.143 26.0668 12.4406 26.2589L12.4421 27.6243L17.7475 27.5688L17.7496 27.4933L17.6063 24.0243L21.6552 24.1263L21.8593 23.9484L21.8743 4.59673L19.0775 4.52698L18.6547 6.38658C17.9599 6.49479 18.9624 6.3816 18.1985 6.44836C16.8868 6.56285 14.3789 6.31972 12.5108 6.51582Z" fill="#C9FEEA"/>
<path fill-rule="evenodd" clip-rule="evenodd" d="M19.2079 2.86799L24.3184 2.81298C24.7997 4.11227 24.6472 26.8477 24.4232 29.6026L12.4948 29.5961L12.5258 27.8616L17.734 27.8303L17.7474 27.5689L12.4421 27.6244L3.30366 27.6188C2.78457 26.7508 2.85299 7.15388 3.07119 4.68783L5.74445 4.66352L5.76529 2.69321L0.220842 2.81677C-0.0739213 5.47205 -0.123615 28.6983 0.383891 29.5877C1.18627 30.2656 22.4227 29.4204 24.6942 30.0888C25.1041 28.334 25.1371 3.31192 24.5767 2.81518C24.2724 2.54554 23.846 2.56845 23.1726 2.56018L19.0275 2.7257L19.2079 2.86799Z" fill="#FEECB1"/>
<path fill-rule="evenodd" clip-rule="evenodd" d="M19.0774 4.5261L21.8742 4.59585L21.8592 23.9479L21.7854 27.8225L17.734 27.8298L12.5257 27.8611L12.4948 29.5956L24.4233 29.602C24.6473 26.8472 24.7998 4.11248 24.3185 2.81323L19.208 2.86824L19.0774 4.5261Z" fill="#FBD33B"/>
<path fill-rule="evenodd" clip-rule="evenodd" d="M12.258 0.878991L16.5714 0.843722L16.434 2.69353L12.5625 2.72391C12.2584 3.88728 12.2471 5.37624 12.5108 6.5141C14.3789 6.31803 16.8868 6.56112 18.1984 6.44665C18.9624 6.3799 17.9598 6.49307 18.6547 6.38488L19.0774 4.5255L19.208 2.86788L19.0275 2.72561L16.7891 2.67988L16.682 0.678833L8.43794 0.771491L8.32349 0.888851L12.258 0.878991Z" fill="#95B4A4"/>
<path fill-rule="evenodd" clip-rule="evenodd" d="M5.76535 2.69364L5.74451 4.66363L5.75733 6.5057L12.5109 6.51466C12.2472 5.37679 12.2584 3.88781 12.5626 2.72443L8.30245 2.67332L8.32351 0.889335L8.43797 0.771973C7.71058 1.40124 8.13317 1.5474 7.9435 2.66615L5.76535 2.69364Z" fill="#B6D6C9"/>
<path fill-rule="evenodd" clip-rule="evenodd" d="M9.26257 22.2342L9.29422 24.0422L11.3246 24.0085L11.4737 25.8537L13.2472 25.9174L13.4303 25.3485C13.433 25.3353 13.4875 24.9458 13.4887 24.935C13.5124 24.7305 13.503 24.3166 13.5247 24.065C15.6883 23.8459 15.7115 24.6071 15.5599 22.1545L13.4623 22.1075L13.4555 20.2375L11.4284 20.2999L11.2811 22.0773L9.26257 22.2342Z" fill="#B6D6C9"/>
<path fill-rule="evenodd" clip-rule="evenodd" d="M12.3418 12.144L19.437 12.198L19.4651 13.7922L12.258 13.8442L12.3418 12.144ZM19.8025 13.0076L19.6925 12.1253L5.11615 12.1007L5.08984 13.9479L19.8042 13.999L19.8025 13.0076Z" fill="#EC6819"/>
<path fill-rule="evenodd" clip-rule="evenodd" d="M12.2901 8.7271C13.9768 8.04568 17.4536 8.51421 19.4482 8.45015L19.437 10.1202L12.3305 10.174L12.2901 8.7271ZM12.4993 10.2617L19.7753 10.2292L19.7981 8.43052L12.5732 8.3313L5.1596 8.35232L5.06934 10.2279L12.4993 10.2617Z" fill="#EC6819"/>
<path fill-rule="evenodd" clip-rule="evenodd" d="M12.4228 17.7284L12.4346 15.8972L5.1157 15.8596L5.07959 17.7395L12.4228 17.7284Z" fill="#EC6819"/>
<path fill-rule="evenodd" clip-rule="evenodd" d="M12.3305 10.1743L19.437 10.1205L19.4482 8.44961C17.4536 8.5137 13.9768 8.04495 12.2902 8.72669L12.3305 10.1743Z" fill="#DA2C09"/>
<path fill-rule="evenodd" clip-rule="evenodd" d="M12.2581 13.8445L19.465 13.7924L19.437 12.1981L12.3419 12.144L12.2581 13.8445Z" fill="#DA2C09"/>
<path fill-rule="evenodd" clip-rule="evenodd" d="M17.7496 27.492L17.7475 27.5675L17.7341 27.8289L21.7854 27.8216L21.8592 23.9469L21.6552 24.1249C21.1678 24.8201 20.3769 25.3269 19.7733 25.8909C19.1847 26.4407 18.5791 27.1589 17.7496 27.492Z" fill="#95B4A4"/>
<path fill-rule="evenodd" clip-rule="evenodd" d="M17.7495 27.4923C18.579 27.1591 19.1847 26.4409 19.7732 25.891C20.3769 25.3269 21.1678 24.8201 21.6551 24.1248L17.6062 24.0227L17.7495 27.4923Z" fill="#B6D6C9"/>
<path fill-rule="evenodd" clip-rule="evenodd" d="M12.5625 2.72305L16.434 2.69268L16.5714 0.843994L12.2581 0.879242L12.5625 2.72305Z" fill="#087C6B"/>
<path fill-rule="evenodd" clip-rule="evenodd" d="M12.5625 2.72434L12.2581 0.878906L8.32343 0.88877L8.30237 2.67322L12.5625 2.72434Z" fill="#379087"/>
<path fill-rule="evenodd" clip-rule="evenodd" d="M16.5713 0.843994L12.2581 0.879242L12.5624 2.72305L16.4341 2.69268L16.5713 0.843994Z" fill="#1A252B"/>
<path fill-rule="evenodd" clip-rule="evenodd" d="M12.5625 2.72434L12.2582 0.878906L8.32353 0.88877L8.30225 2.67332L12.5625 2.72434Z" fill="#0C4B75"/>
<path fill-rule="evenodd" clip-rule="evenodd" d="M16.4341 2.69345L12.5625 2.72383C12.2584 3.88714 12.2471 5.37593 12.5108 6.51373C14.3789 6.31787 16.8868 6.56095 18.1984 6.44638C18.2883 6.43861 18.3538 6.43313 18.4005 6.42965C18.4203 6.42357 18.4897 6.41042 18.6548 6.38472L19.0772 4.52544L19.208 2.86779L19.0274 2.72563L16.7891 2.6798L16.6819 0.678955L8.43796 0.771506L8.32361 0.888861L12.2582 0.879001L16.5713 0.843733L16.4341 2.69345Z" fill="#0C4B75"/>
<path fill-rule="evenodd" clip-rule="evenodd" d="M12.5109 6.51476C12.2472 5.37684 12.2584 3.88791 12.5626 2.72449L8.30233 2.67348L8.32362 0.889339L8.43797 0.771973C7.71058 1.40136 8.13328 1.54752 7.94361 2.66621L5.76524 2.69361L5.74451 4.66376L5.75744 6.50589L12.5109 6.51476Z" fill="#3182B7"/>
<path fill-rule="evenodd" clip-rule="evenodd" d="M21.7854 27.8226L17.734 27.8299L12.5256 27.8613L12.4949 29.5957L24.4232 29.602C24.6472 26.8473 24.7999 4.11268 24.3185 2.81323L19.2079 2.86833L19.0772 4.5263L21.8742 4.59585L21.8591 23.9479L21.7854 27.8226Z" fill="#0C4B75"/>
<path fill-rule="evenodd" clip-rule="evenodd" d="M12.495 29.5958L12.5257 27.8613L17.7341 27.8299L17.7474 27.5684L12.4421 27.6241L3.30367 27.6184C2.78469 26.7504 2.85311 7.15349 3.0712 4.68744L5.74447 4.66313L5.7652 2.69272L0.220843 2.81638C-0.0739215 5.47166 -0.123615 28.6979 0.383892 29.5873C1.18639 30.2652 22.4229 29.4202 24.6943 30.0884C25.1041 28.3336 25.1371 3.31153 24.5768 2.81479C24.2725 2.54505 23.8462 2.56796 23.1726 2.55969L19.0275 2.7254L19.208 2.8676L24.3185 2.8125C24.7999 4.11198 24.6473 26.8473 24.4233 29.6021L12.495 29.5958Z" fill="#3182B7"/>
<path fill-rule="evenodd" clip-rule="evenodd" d="M5.07996 17.7394L12.4229 17.7283L12.4347 15.8986L5.11595 15.8608L5.07996 17.7394Z" fill="#3182B7"/>
<path fill-rule="evenodd" clip-rule="evenodd" d="M5.08972 13.9479L19.8041 13.9991L19.8025 13.0077L19.6925 12.1252L5.11613 12.1007L5.08972 13.9479ZM12.258 13.8443L12.3417 12.1439L19.4369 12.198L19.4649 13.7921L12.258 13.8443Z" fill="#3182B7"/>
<path fill-rule="evenodd" clip-rule="evenodd" d="M5.06946 10.2276L12.4992 10.2613L19.7754 10.2287L19.7981 8.42995L16.8552 8.3896C17.8103 8.42616 18.7262 8.47279 19.4482 8.44958L19.4369 10.1198L12.3305 10.1735L12.2901 8.72656C12.896 8.48166 13.7331 8.38531 14.6493 8.35931L12.5732 8.33081L5.15973 8.35173L5.06946 10.2276Z" fill="#3182B7"/>
<path fill-rule="evenodd" clip-rule="evenodd" d="M19.4368 12.1982L12.3417 12.144L12.2581 13.8445L19.4649 13.7924L19.4368 12.1982Z" fill="#0C4B75"/>
<path fill-rule="evenodd" clip-rule="evenodd" d="M12.3305 10.1734L19.4369 10.1197L19.4482 8.44958C18.7263 8.47279 17.8103 8.42617 16.8556 8.38961C16.1197 8.36141 15.3606 8.33919 14.6494 8.35932C13.7331 8.38532 12.8961 8.48166 12.2902 8.72654L12.3305 10.1734Z" fill="#0C4B75"/>
<path fill-rule="evenodd" clip-rule="evenodd" d="M13.4555 20.2375L11.4282 20.2999L11.29 21.9689L11.2853 22.028L11.2811 22.0774L9.26257 22.2342L9.29422 24.0422L11.3245 24.0084L11.4737 25.8538L13.2472 25.9174L13.4303 25.3486C13.4331 25.3353 13.4876 24.9458 13.4886 24.935C13.5123 24.7307 13.503 24.3164 13.5248 24.0649C15.6883 23.8458 15.7113 24.6071 15.5598 22.1546L13.4623 22.1076L13.4555 20.2375Z" fill="#1A252B"/>
</svg>
