<svg width="30" height="31" viewBox="0 0 30 31" fill="none" xmlns="http://www.w3.org/2000/svg">
<path fill-rule="evenodd" clip-rule="evenodd" d="M8.3238 19.467L8.33897 15.602L12.552 15.4911L12.5461 14.1968L12.6052 11.005L14.7134 11.0172C14.6069 9.41901 15.0313 7.28915 14.469 5.83826C15.7427 5.64688 19.454 5.54823 20.7343 5.63644C22.7242 5.77297 24.6984 5.60592 26.7506 5.76691C26.2408 5.42226 26.1674 5.54514 25.4119 5.5436L23.0665 5.54514L21.145 5.49658L19.0926 5.51938L10.1494 5.53754L8.36189 5.54217L5.69532 5.52543L3.30468 5.51629C-0.516125 5.9235 0.0265592 9.18062 0.0265592 12.9526C0.0265592 16.5714 0.0213529 20.19 0.0272215 23.8071C0.0384051 31.1644 -0.810994 30.1983 14.6155 30.1147C14.7435 28.4907 14.8751 26.2134 14.4848 24.6716L12.5632 24.5894L12.5079 20.1504C11.6987 20.1338 10.9444 20.1125 10.1331 20.1535C8.99205 20.2113 8.41183 20.5409 8.3238 19.467Z" fill="#3182B7"/>
<path fill-rule="evenodd" clip-rule="evenodd" d="M16.9258 20.1338L16.7893 24.6151L14.4847 24.6714C14.875 26.2132 14.7435 28.4904 14.6155 30.1144C18.0046 30.1493 21.4004 30.1159 24.7904 30.1296C29.2025 30.1478 29.3219 28.7669 29.3271 24.2901C29.3317 20.7519 29.3292 17.2139 29.3292 13.6759C29.3292 11.2438 30.1202 5.89796 26.7506 5.76725C24.6983 5.60627 22.7242 5.7733 20.7343 5.63678C19.454 5.54857 15.7427 5.64723 14.469 5.8386C15.0313 7.28945 14.6068 9.41925 14.7134 11.0174L16.7472 11.0463L16.8261 15.4457L21.02 15.5763L21.0589 20.1139L16.9258 20.1338Z" fill="#0C4B75"/>
<path fill-rule="evenodd" clip-rule="evenodd" d="M10.1494 5.53695L19.0927 5.51879L18.9323 2.96118L10.2376 3.06753L10.1494 5.53695Z" fill="#BBE0FA"/>
<path fill-rule="evenodd" clip-rule="evenodd" d="M5.69533 5.52533L5.79 3.56262L3.19507 3.59004L3.30469 5.51619L5.69533 5.52533Z" fill="white"/>
<path fill-rule="evenodd" clip-rule="evenodd" d="M22.9121 3.46906L23.0665 5.54487L25.4119 5.54332L25.4796 3.54969L22.9121 3.46906Z" fill="white"/>
<path fill-rule="evenodd" clip-rule="evenodd" d="M10.1494 5.5386L10.2375 3.06744L18.9323 2.96102L19.0926 5.52043L21.145 5.49762L21.1069 2.90163L14.6391 2.81659L8.27863 2.82419L8.36189 5.54323L10.1494 5.5386Z" fill="white"/>
<path fill-rule="evenodd" clip-rule="evenodd" d="M8.27863 2.82527L14.6391 2.81767L14.5117 0.791626L8.31527 0.84021L8.27863 2.82527Z" fill="#3182B7"/>
<path fill-rule="evenodd" clip-rule="evenodd" d="M14.5117 0.791948L14.6391 2.81658L21.1069 2.90157L21.0306 0.790405L14.5117 0.791948Z" fill="#0C4B75"/>
</svg>
