<svg width="30" height="30" viewBox="0 0 30 30" fill="none" xmlns="http://www.w3.org/2000/svg">
<path fill-rule="evenodd" clip-rule="evenodd" d="M8.9739 6.34617L10.8153 6.36814L10.97 8.6665L12.7677 8.67661L12.7381 10.7495C12.0532 11.1235 11.7508 10.9537 10.8493 11.018L10.8545 13.2668L8.9898 13.3314L8.9792 11.055L7.1072 10.981L7.1894 8.66001L8.9649 8.63854L8.9739 6.34617ZM0.303189 15.5598L19.6328 15.5979L19.5999 3.94657L19.573 3.79028L17.0978 3.8517L0.224487 3.98564L0.303189 15.5598Z" fill="#C7FEE9"/>
<path fill-rule="evenodd" clip-rule="evenodd" d="M2.0726 25.6781C2.0856 22.4641 3.2809 20.5359 5.87339 20.3629C8.18419 20.5617 9.63979 22.4856 9.55789 25.5836C10.5937 24.4559 17.5031 25.0128 19.6163 25.0933L19.7408 18.0166L0.230498 18.1513L0.191406 24.8501C1.47411 25.6367 1.2477 24.2955 2.0726 25.6781Z" fill="#B6D6C9"/>
<path fill-rule="evenodd" clip-rule="evenodd" d="M19.5999 3.94803L19.6328 15.598L0.303181 15.5599L0.243181 15.8072L19.5868 15.7555L19.5921 17.9926L0.208679 17.9171L0.230476 18.1511L19.7408 18.0164L19.6163 25.0932L19.7039 25.7855C19.7112 22.2918 20.7616 20.718 23.4043 20.2987C25.7651 20.8526 26.9745 22.1334 27.1188 25.3544L28.9575 25.0217L29.0874 18.1572L21.4959 18.0298L21.4713 7.04968L26.6299 7.11983L25.966 3.87451L22.1817 3.91221L19.5999 3.94803Z" fill="#95B6A5"/>
<path fill-rule="evenodd" clip-rule="evenodd" d="M29.0874 18.157L26.6299 7.11934L21.4713 7.04919L21.4959 18.0295L29.0874 18.157Z" fill="#C7FEE9"/>
<path fill-rule="evenodd" clip-rule="evenodd" d="M0.208679 17.9163L19.5921 17.9918L19.5868 15.7545L0.243181 15.8062L0.208679 17.9163Z" fill="#D32E0A"/>
<path fill-rule="evenodd" clip-rule="evenodd" d="M19.7039 25.7855C19.848 27.7677 21.2961 29.3464 22.5533 29.6765L23.6796 29.7013C24.1787 29.557 23.8846 29.7002 24.1662 29.447L23.2005 29.4178C23.4949 28.7825 23.4182 27.8736 23.3872 26.9429C21.2478 26.8598 21.1716 22.9265 23.9084 23.1691C23.8465 23.115 23.7647 22.9255 23.7345 22.9877L23.4043 20.2977C20.7616 20.7172 19.7112 22.2912 19.7039 25.7855Z" fill="#44958A"/>
<path fill-rule="evenodd" clip-rule="evenodd" d="M2.07257 25.6778C2.39127 27.3324 2.96497 28.1811 3.66227 28.8717C4.30857 29.512 6.02115 30.3043 6.74835 29.3982L5.61366 29.4725C5.97056 28.4726 5.89636 28.1044 5.84146 27.0105C3.84357 26.6214 3.41677 23.1974 6.21356 23.1389C5.70966 22.3842 5.81576 21.7317 5.87336 20.3622C3.28087 20.5352 2.08557 22.4636 2.07257 25.6778Z" fill="#44958A"/>
<path fill-rule="evenodd" clip-rule="evenodd" d="M6.21361 23.139C7.09392 23.6036 7.47383 24.1668 7.30932 25.6794C6.87412 26.7189 6.76822 26.7987 5.84151 27.0108C5.89641 28.1048 5.97061 28.4729 5.61371 29.4729L6.74841 29.3986C8.33592 29.3481 9.31633 27.6724 9.55793 25.5835C9.63983 22.4851 8.18422 20.561 5.87341 20.3622C5.81581 21.7318 5.70971 22.3843 6.21361 23.139Z" fill="#037D69"/>
<path fill-rule="evenodd" clip-rule="evenodd" d="M23.9084 23.1688C24.4798 23.6876 25.0505 23.9846 24.9018 25.3885C24.7776 26.5616 24.1474 26.8434 23.3872 26.9422C23.4182 27.8728 23.4949 28.7816 23.2005 29.4168L24.1662 29.446C25.8473 29.4394 26.9702 27.6118 27.1188 25.3538C26.9745 22.1326 25.7651 20.8517 23.4043 20.2977L23.7345 22.9874C23.7647 22.9253 23.8465 23.1147 23.9084 23.1688Z" fill="#037D69"/>
<path fill-rule="evenodd" clip-rule="evenodd" d="M8.96488 8.63857L7.18938 8.66004L7.10718 10.9809L8.97918 11.0549L8.98978 13.3312L10.8545 13.2666L10.8493 11.018C11.7508 10.9537 12.0532 11.1234 12.7381 10.7495L12.7677 8.67664L10.97 8.66653L10.8153 6.36828L8.97389 6.34631L8.96488 8.63857Z" fill="#D32E0A"/>
<path fill-rule="evenodd" clip-rule="evenodd" d="M5.84151 27.0101C6.76821 26.7981 6.87411 26.7184 7.30931 25.679C7.47381 24.1669 7.09391 23.6038 6.21361 23.1393C3.41682 23.1978 3.84361 26.6211 5.84151 27.0101Z" fill="#E3FEF4"/>
<path fill-rule="evenodd" clip-rule="evenodd" d="M23.3872 26.943C24.1474 26.8441 24.7776 26.5623 24.9018 25.3888C25.0505 23.9845 24.4798 23.6873 23.9084 23.1684C21.1716 22.9258 21.2478 26.8598 23.3872 26.943Z" fill="#E3FEF4"/>
<path fill-rule="evenodd" clip-rule="evenodd" d="M19.573 3.79146L19.7405 0.970434L22.0874 0.818114L22.054 3.96338L19.573 3.79146ZM17.0978 3.85289L19.573 3.79146L19.5999 3.94777L22.1817 3.91194L22.2374 0.816741C21.2557 0.555052 18.2028 0.749945 17.1816 0.930606L17.0978 3.85289Z" fill="#F38E6E"/>
<path fill-rule="evenodd" clip-rule="evenodd" d="M19.573 3.79014L22.054 3.96204L22.0874 0.817139L19.7405 0.969441L19.573 3.79014Z" fill="#D32E0A"/>
<path fill-rule="evenodd" clip-rule="evenodd" d="M6.99791 8.28264L6.91571 10.6038L8.78771 10.6777L8.79822 12.954L10.6629 12.8891L10.658 10.6405C11.5592 10.5761 11.8618 10.746 12.5467 10.3723L12.5762 8.29937L10.7785 8.28926L10.6238 5.99048L8.78242 5.96851L8.77341 8.26105L6.99791 8.28264Z" fill="white"/>
<path fill-rule="evenodd" clip-rule="evenodd" d="M19.3953 15.3785L0.0514868 15.4306L0.017395 17.5405L19.4006 17.6158L19.3953 15.3785Z" fill="#0C4B75"/>
<path fill-rule="evenodd" clip-rule="evenodd" d="M19.3816 3.41344L21.263 3.54376L21.8626 3.58521L21.8632 3.5354L21.8959 0.44043L19.5489 0.592845L19.3816 3.41344Z" fill="#0C4B75"/>
<path fill-rule="evenodd" clip-rule="evenodd" d="M19.3816 3.41459L19.5489 0.592234L21.8959 0.439724L21.8632 3.53662L21.9902 3.53487L22.0459 0.437977C21.0641 0.176426 18.0114 0.371277 16.9902 0.552264L16.9063 3.47567L19.3816 3.41459Z" fill="#3182B7"/>
<path fill-rule="evenodd" clip-rule="evenodd" d="M21.263 3.545L19.4084 3.57071L19.4413 15.2208L0.111692 15.1826L0.0514868 15.4303L19.3953 15.3783L19.4006 17.6155L0.017395 17.5401L0.0388891 17.7741L19.5493 17.6396L19.425 24.7163L19.5125 25.4084C19.5195 21.9147 20.5702 20.3411 23.2129 19.9216C25.5736 20.4758 26.783 21.7562 26.9272 24.9772L28.766 24.6444L28.8959 17.7804L21.3043 17.6528L21.2798 6.67241L26.4384 6.74269L25.7744 3.49719L21.9902 3.53489L21.8632 3.53663L21.8626 3.58644L21.263 3.545Z" fill="#0C4B75"/>
<path fill-rule="evenodd" clip-rule="evenodd" d="M19.4413 15.2201L19.4084 3.56864L19.3816 3.4126L16.9063 3.47364L0.0328979 3.60784L0.111697 15.1819L19.4413 15.2201ZM12.5762 8.29902L12.5467 10.372C11.8618 10.7456 11.5592 10.5757 10.658 10.6401L10.6629 12.8887L8.79819 12.9536L8.78769 10.6773L6.9157 10.6034L6.99789 8.2823L8.77339 8.2607L8.78239 5.96816L10.6238 5.99013L10.7785 8.28892L12.5762 8.29902Z" fill="#3182B7"/>
<path fill-rule="evenodd" clip-rule="evenodd" d="M19.5493 17.6407L0.0388965 17.7753L0 24.4725C1.2826 25.2587 1.0562 23.9181 1.8812 25.3C1.8941 22.0871 3.0894 20.1592 5.6819 19.9859C7.9928 20.1852 9.44831 22.1085 9.36641 25.2052C10.4022 24.0782 17.3116 24.6351 19.425 24.7156L19.5493 17.6407Z" fill="#1A252B"/>
<path fill-rule="evenodd" clip-rule="evenodd" d="M9.3664 25.2059C9.4483 22.1082 7.9928 20.1843 5.6819 19.985C5.6244 21.3548 5.5183 22.0071 6.0222 22.7616C6.9024 23.2266 7.28231 23.7899 7.11791 25.3023C6.68261 26.3418 6.57671 26.4213 5.65001 26.6339C5.70481 27.7273 5.7791 28.0954 5.4223 29.0955L6.5569 29.0212C8.1444 28.9705 9.1247 27.2949 9.3664 25.2059Z" fill="#1A252B"/>
<path fill-rule="evenodd" clip-rule="evenodd" d="M24.7102 25.0112C24.5861 26.1847 23.9559 26.4661 23.1957 26.5649C23.2267 27.4957 23.3034 28.4043 23.009 29.04L23.9747 29.069C25.6557 29.0625 26.7788 27.2349 26.9272 24.9764C26.783 21.7551 25.5736 20.4746 23.2129 19.9204L23.5431 22.6101C23.5732 22.5479 23.6551 22.7375 23.717 22.7917C24.2884 23.3103 24.859 23.6072 24.7102 25.0112Z" fill="#1A252B"/>
<path fill-rule="evenodd" clip-rule="evenodd" d="M5.65 26.6339C3.65201 26.2443 3.22531 22.8203 6.02219 22.7617C5.5183 22.0071 5.62439 21.3548 5.68189 19.985C3.08941 20.1584 1.89413 22.0869 1.88123 25.3008C2.19992 26.9556 2.77342 27.8042 3.47072 28.495C4.11701 29.1348 5.82969 29.9275 6.55688 29.0212L5.42229 29.0955C5.77909 28.0954 5.7048 27.7273 5.65 26.6339Z" fill="#0C4B75"/>
<path fill-rule="evenodd" clip-rule="evenodd" d="M19.5125 25.4081C19.6565 27.3905 21.1046 28.9687 22.3617 29.2991L23.4882 29.3241C23.9872 29.1799 23.6931 29.3226 23.9747 29.0697L23.009 29.0407C23.3034 28.4049 23.2267 27.4962 23.1957 26.5655C21.0562 26.4824 20.9801 22.5491 23.717 22.7919C23.6551 22.7377 23.5732 22.5481 23.5431 22.6103L23.2129 19.9204C20.5702 20.34 19.5195 21.9138 19.5125 25.4081Z" fill="#0C4B75"/>
<path fill-rule="evenodd" clip-rule="evenodd" d="M21.3043 17.6522L28.8959 17.7798L26.4384 6.74154L21.2798 6.67126L21.3043 17.6522Z" fill="#3182B7"/>
<path fill-rule="evenodd" clip-rule="evenodd" d="M7.11794 25.3022C7.28234 23.7898 6.90243 23.2265 6.02223 22.7615C3.2253 22.8201 3.65201 26.2443 5.65003 26.6339C6.57673 26.4213 6.68264 26.3418 7.11794 25.3022Z" fill="white"/>
<path fill-rule="evenodd" clip-rule="evenodd" d="M23.717 22.7939C20.9801 22.5512 21.0562 26.4821 23.1957 26.5651C23.9559 26.4663 24.5861 26.1851 24.7102 25.0122C24.859 23.6089 24.2884 23.3122 23.717 22.7939Z" fill="white"/>
</svg>
