<svg width="30" height="30" viewBox="0 0 30 30" fill="none" xmlns="http://www.w3.org/2000/svg">
<path fill-rule="evenodd" clip-rule="evenodd" d="M13.4312 15.0364L14.742 14.923L14.5941 13.0333C16.7017 13.106 26.2004 13.3565 27.5069 12.9633C23.317 12.9749 18.6924 12.7759 14.5669 13.0171C14.2558 13.0352 2.35772 13.3403 2.14524 12.9328C2.10402 12.8538 2.00642 12.8995 1.93508 12.874L1.89415 10.2327L1.9708 7.93686L14.9591 7.95094C14.5128 6.93954 14.5924 5.44335 14.8266 4.31268C12.8293 3.38757 11.2961 1.55808 8.96278 0.665557C6.29994 -0.352981 3.10094 0.153398 0.0141122 0L0.00012207 15.0054L13.4312 15.0364Z" fill="#B8D4C8"/>
<path fill-rule="evenodd" clip-rule="evenodd" d="M14.9591 7.95139L27.4873 7.9375L27.5165 10.4635L27.5069 12.9636C26.2004 13.3568 16.7017 13.1063 14.5941 13.0336L14.742 14.9232L13.4312 15.0367L13.4434 17.9257L15.8128 18.0031C15.8394 16.926 15.61 15.5849 16.1163 14.8688L29.402 14.9822L29.41 4.46779L14.8265 4.31323C14.5923 5.44387 14.5128 6.94001 14.9591 7.95139Z" fill="#95B3A4"/>
<path fill-rule="evenodd" clip-rule="evenodd" d="M1.89417 10.2316C3.0581 10.8644 12.3231 10.4857 14.5669 10.4857C18.8827 10.4857 23.203 10.5298 27.5166 10.4619L27.4873 7.93696L14.9591 7.95084L1.97082 7.93677L1.89417 10.2316Z" fill="#FDFDFD"/>
<path fill-rule="evenodd" clip-rule="evenodd" d="M27.5069 12.9638L27.5166 10.4618C23.203 10.5298 18.8827 10.4856 14.5669 10.4856C12.3231 10.4856 3.0581 10.8648 1.89417 10.2312L1.9351 12.8745C2.00644 12.9 2.10404 12.8542 2.14526 12.9333C2.35774 13.3411 14.2558 13.0358 14.5669 13.0177C18.6924 12.7763 23.317 12.9754 27.5069 12.9638Z" fill="#CAFEEA"/>
<path fill-rule="evenodd" clip-rule="evenodd" d="M13.4434 17.9271L12.8127 18.0627L12.8027 20.9773L3.87604 20.985L3.88743 25.684L5.90541 25.8131L5.65722 24.1775L23.6931 24.2734L23.5321 25.8308L23.9436 25.6548L23.8129 24.2077L14.5822 24.0939L14.6927 20.9248L25.6387 21.1375C25.0841 20.7555 24.9718 20.8812 23.629 20.8963L16.6263 20.848C16.7207 16.3159 16.0765 19.098 16.0222 16.5969C16.0099 16.0331 16.0641 15.4302 16.1163 14.8701C15.61 15.5862 15.8394 16.9274 15.8128 18.0045L13.4434 17.9271Z" fill="#B8D4C8"/>
<path fill-rule="evenodd" clip-rule="evenodd" d="M23.9436 25.6528L25.6084 25.7808L25.6387 21.1362L14.6926 20.9236L14.5822 24.0921L23.8129 24.206L23.9436 25.6528Z" fill="#95B3A4"/>
<path fill-rule="evenodd" clip-rule="evenodd" d="M5.90537 25.8117L3.88739 25.6826C2.31549 26.5376 2.55674 29.1623 4.44575 29.3899C5.43476 29.509 6.26457 29.0232 6.54269 28.2096C6.95731 26.9967 6.24141 26.5087 5.90537 25.8117Z" fill="#44958C"/>
<path fill-rule="evenodd" clip-rule="evenodd" d="M23.5322 25.8289C23.0772 26.5188 22.5765 26.8707 22.8404 27.9698C23.0412 28.8059 23.76 29.4077 24.7412 29.3956C26.9741 29.3682 27.0587 27.0309 25.6085 25.7809L23.9436 25.6528L23.5322 25.8289Z" fill="#0A7C6A"/>
<path fill-rule="evenodd" clip-rule="evenodd" d="M14.8265 4.31268C12.8293 3.38748 11.296 1.55808 8.96277 0.665557C6.29992 -0.352981 3.10092 0.153398 0.0140938 0L0 15.0054L13.4312 15.0364L14.742 14.923L14.5941 13.0333C16.7016 13.1059 26.2004 13.3565 27.5068 12.9633C23.3169 12.9749 18.6924 12.7759 14.5669 13.0171C14.2559 13.0352 2.3577 13.3404 2.14522 12.9328C2.104 12.8538 2.0064 12.8995 1.93506 12.874L1.89403 10.2327L1.97078 7.93686L14.9591 7.95094C14.5127 6.93954 14.5923 5.44335 14.8265 4.31268Z" fill="#3182B7"/>
<path fill-rule="evenodd" clip-rule="evenodd" d="M12.8026 20.9755L3.87604 20.9832L3.88743 25.6822L5.90541 25.8113L5.65722 24.1758L23.6931 24.2715L23.5322 25.8289L23.9437 25.6528L23.8129 24.2059L14.5822 24.092L14.6927 20.923L25.6387 21.1357C25.0842 20.7538 24.9717 20.8794 23.629 20.8945L16.6264 20.8462C16.7206 16.3141 16.0765 19.0963 16.0222 16.5952C16.0099 16.0314 16.0641 15.4285 16.1163 14.8684C15.61 15.5845 15.8394 16.9256 15.8128 18.0027L13.4434 17.9255L12.8127 18.061L12.8026 20.9755Z" fill="#3182B7"/>
<path fill-rule="evenodd" clip-rule="evenodd" d="M14.6926 20.9236L14.5822 24.0918L23.8129 24.2057L23.9437 25.6523L25.6085 25.7803L25.6386 21.1362L14.6926 20.9236Z" fill="#0C4B75"/>
<path fill-rule="evenodd" clip-rule="evenodd" d="M13.4434 17.9263L15.8128 18.0035C15.8394 16.9265 15.61 15.5854 16.1163 14.8693L29.402 14.9827L29.41 4.46827L14.8265 4.31372C14.5923 5.44436 14.5127 6.9405 14.9591 7.95188L27.4873 7.93809L27.5165 10.464L27.5068 12.9641C26.2004 13.3573 16.7017 13.1067 14.5941 13.0341L14.742 14.9237L13.4312 15.0372L13.4434 17.9263Z" fill="#0C4B75"/>
<path fill-rule="evenodd" clip-rule="evenodd" d="M6.54273 28.2114C6.95745 26.9981 6.24155 26.5099 5.90541 25.8127L3.88743 25.6836C2.31553 26.5388 2.55668 29.1645 4.44569 29.3922C5.4348 29.5114 6.26461 29.0254 6.54273 28.2114Z" fill="#1A252B"/>
<path fill-rule="evenodd" clip-rule="evenodd" d="M22.8403 27.9705C23.0411 28.8062 23.76 29.4078 24.7412 29.3958C26.9741 29.3683 27.0587 27.032 25.6085 25.7823L23.9437 25.6543L23.5321 25.8304C23.0771 26.52 22.5764 26.8718 22.8403 27.9705Z" fill="#1A252B"/>
<path fill-rule="evenodd" clip-rule="evenodd" d="M14.5669 13.0183C18.6924 12.7769 23.317 12.976 27.5068 12.9645L27.5165 10.4623C23.2029 10.5303 18.8827 10.4861 14.5669 10.4861C12.3231 10.4861 3.05807 10.8654 1.89404 10.2317L1.93507 12.8751C2.00641 12.9006 2.10401 12.8548 2.14523 12.934C2.35771 13.3418 14.2559 13.0364 14.5669 13.0183Z" fill="#1A252B"/>
</svg>
