<svg width="30" height="30" viewBox="0 0 30 30" fill="none" xmlns="http://www.w3.org/2000/svg">
<path d="M19.6347 14.5159C19.6347 11.8365 17.4627 9.66441 14.7833 9.66441C12.1039 9.66441 9.93188 11.8365 9.93188 14.5159C9.93188 17.1953 12.1039 19.3674 14.7833 19.3674C17.4627 19.3674 19.6347 17.1953 19.6347 14.5159Z" fill="black"/>
<path d="M15.2238 11.8331C15.2238 10.1936 13.8946 8.86454 12.255 8.86454C10.6153 8.86454 9.28613 10.1936 9.28613 11.8331C9.28613 13.4727 10.6153 14.8018 12.255 14.8018C13.8946 14.8018 15.2238 13.4727 15.2238 11.8331Z" fill="white"/>
<path fill-rule="evenodd" clip-rule="evenodd" d="M26.0492 14.7049C25.9528 20.8421 20.9478 25.7875 14.7876 25.7875C8.62748 25.7875 3.62242 20.8421 3.52599 14.7049H0C0 22.8263 6.58353 29.4099 14.705 29.4099C22.8265 29.4099 29.41 22.8263 29.41 14.7049H26.0492Z" fill="white"/>
<path fill-rule="evenodd" clip-rule="evenodd" d="M14.7874 25.7876C20.9474 25.7876 25.9523 20.8422 26.0487 14.705H23.5785C23.5785 19.6059 19.6056 23.5789 14.7047 23.5789C9.80399 23.5789 5.83114 19.6059 5.83114 14.705H3.526C3.62242 20.8422 8.62738 25.7876 14.7874 25.7876Z" fill="#3182B7"/>
<path fill-rule="evenodd" clip-rule="evenodd" d="M14.706 23.5789C19.6071 23.5789 23.5802 19.6059 23.5802 14.705H19.6321C19.5328 17.2967 17.4003 19.3674 14.7842 19.3674C12.1679 19.3674 10.0354 17.2967 9.93609 14.705H5.83203C5.83203 19.6059 9.80505 23.5789 14.706 23.5789Z" fill="#0C4B75" stroke="#0C4B75" stroke-width="0.25" stroke-miterlimit="22.9256"/>
<path fill-rule="evenodd" clip-rule="evenodd" d="M14.7842 9.66446C17.4636 9.66446 19.6358 11.8366 19.6358 14.516C19.6358 14.5793 19.6346 14.6423 19.6321 14.7051H23.5802C23.5802 9.80418 19.6071 5.8312 14.706 5.8312C9.80505 5.8312 5.83203 9.80418 5.83203 14.7051H9.93609C9.93368 14.6423 9.93247 14.5793 9.93247 14.516C9.93247 14.2568 9.9528 14.0022 9.99196 13.7541C9.55207 13.2363 9.28674 12.5657 9.28674 11.8332C9.28674 10.1937 10.6159 8.86456 12.2554 8.86456C13.0513 8.86456 13.774 9.17779 14.3071 9.68763C14.4641 9.67234 14.6231 9.66446 14.7842 9.66446Z" fill="#0C4B75" stroke="#0C4B75" stroke-width="0.25" stroke-miterlimit="22.9256"/>
<path fill-rule="evenodd" clip-rule="evenodd" d="M14.7044 5.8312C19.6053 5.8312 23.5783 9.80418 23.5783 14.7051H26.0486C26.0495 14.6451 26.05 14.5849 26.05 14.5246C26.05 8.30421 21.0075 3.26159 14.7871 3.26159C8.56678 3.26159 3.52417 8.30421 3.52417 14.5246C3.52417 14.5849 3.52463 14.6451 3.52556 14.7051H5.83073C5.83073 9.80418 9.80362 5.8312 14.7044 5.8312Z" fill="#1A252B"/>
<path fill-rule="evenodd" clip-rule="evenodd" d="M14.7876 3.26158C21.008 3.26158 26.0506 8.3042 26.0506 14.5246C26.0506 14.5849 26.0501 14.6451 26.0492 14.7051H29.41C29.41 6.58369 22.8265 6.38962e-05 14.705 6.38962e-05C6.58353 6.38962e-05 0 6.58369 0 14.7051H3.52599C3.52507 14.6451 3.52461 14.5849 3.52461 14.5246C3.52461 8.3042 8.56726 3.26158 14.7876 3.26158Z" fill="#3182B7"/>
</svg>
