<svg width="26" height="30" viewBox="0 0 26 30" fill="none" xmlns="http://www.w3.org/2000/svg">
<path fill-rule="evenodd" clip-rule="evenodd" d="M19.7191 8.57768L23.762 8.61506L23.6707 20.7319L19.7683 20.7459C19.6135 21.9498 19.5794 28.9606 19.6835 29.4089C22.7512 29.3064 24.7252 27.4206 25.4251 25.0197C25.7637 23.8581 25.8015 6.51338 25.5688 5.10458C25.1601 2.62974 23.1488 0.426776 20.6342 0.151611L19.7318 0.196979L19.7191 8.57768Z" fill="#FE916D"/>
<path fill-rule="evenodd" clip-rule="evenodd" d="M19.6835 29.4074C19.5794 28.9591 19.6135 21.9481 19.7683 20.7442L15.6235 20.637L15.5804 8.58528L19.7191 8.57586L19.7318 0.195023L20.6342 0.149655C17.5178 -0.636528 14.9297 1.82607 14.1396 4.00715C13.5141 5.73394 13.7693 11.9365 13.7693 14.2239C13.7694 21.4114 12.2037 28.8729 19.6835 29.4074Z" fill="#FDB36C"/>
<path fill-rule="evenodd" clip-rule="evenodd" d="M15.9606 8.8209L19.7769 8.82633C19.7592 9.03893 19.7059 9.48798 19.6652 9.68358C19.4271 10.8282 19.4493 9.83033 19.6356 10.6909C19.9126 11.97 19.62 18.4533 19.6692 20.1335L21.5645 20.3219C19.9043 20.3318 17.4782 20.7771 15.9593 20.3594L15.9606 8.8209ZM19.7683 20.7469L23.6707 20.7329L23.762 8.61599L19.7191 8.57861L15.5804 8.58803L15.6235 20.6397L19.7683 20.7469V20.7469Z" fill="#FFF6D7"/>
<path fill-rule="evenodd" clip-rule="evenodd" d="M6.82783 6.87622L8.63423 6.89916L8.60293 8.7668L6.77452 8.73946L6.82783 6.87622V6.87622ZM6.70462 4.98492L5.98482 4.97079C5.99312 6.11446 6.03023 6.98355 6.01353 7.89556C5.99653 8.82211 5.85832 9.22664 6.04293 10.161C6.05913 10.243 6.08642 10.3214 6.10172 10.3884L6.24722 10.8377C7.94223 10.8377 10.5211 11.3041 11.974 10.5045C11.732 7.96776 12.3421 5.86979 11.3578 3.57406C10.6611 1.94894 9.07903 0.369284 6.92613 0.178485L5.80682 0.0876465C6.06032 1.1627 5.85652 1.53958 5.97932 2.25249C6.17692 3.39913 5.74232 2.27994 6.89392 3.16286C6.94212 3.63049 6.99263 3.78984 6.93253 4.28441C6.80893 5.29934 6.86533 4.71721 6.70462 4.98492V4.98492Z" fill="#FE916D"/>
<path fill-rule="evenodd" clip-rule="evenodd" d="M6.71032 26.4837L4.94571 26.4183L4.90831 24.5343L6.77302 24.5163L6.71032 26.4837V26.4837ZM3.12691 20.734L4.89872 20.7635L4.89801 22.5911L3.09421 22.5534L3.12691 20.734V20.734ZM5.96792 29.4072C5.93532 29.1393 6.03471 27.8003 5.98381 26.8681C6.48862 26.4496 5.34281 26.7758 6.71032 26.4837C7.09602 25.8374 6.95092 25.5304 6.95122 25.5257C6.97012 25.2284 6.91522 24.9031 6.89992 24.6106C5.79181 23.8261 6.15902 24.8084 5.96062 23.6933C5.82272 22.9188 6.30992 19.9999 5.85012 18.8384L0.0365048 18.6746C0.100105 21.2196 -0.360295 24.3245 0.824807 26.3221C1.89321 28.1228 3.31321 29.2269 5.96792 29.4072Z" fill="#FDB36C"/>
<path fill-rule="evenodd" clip-rule="evenodd" d="M6.773 20.7331L8.6554 20.7716L8.637 22.5897L6.7658 22.5213L6.773 20.7331V20.7331ZM6.7103 26.4838C5.3428 26.7759 6.4886 26.4497 5.9838 26.8681C6.0347 27.8003 5.9353 29.1392 5.9679 29.4071C8.2992 29.3336 10.2865 28.1225 11.2176 26.2948C12.3999 23.9738 11.7551 21.3406 12.0057 18.5168L11.8802 18.7063L5.8501 18.8389C6.3099 20.0004 5.8227 22.9191 5.9606 23.6935C6.159 24.8086 5.7918 23.8264 6.8999 24.6108C6.9152 24.9033 6.9701 25.2286 6.9512 25.5258C6.9509 25.5306 7.096 25.8376 6.7103 26.4838V26.4838Z" fill="#FE916D"/>
<path fill-rule="evenodd" clip-rule="evenodd" d="M3.0129 6.8272L4.964 6.86488L4.90511 8.87481L3.0217 8.71761L3.0129 6.8272ZM0.0213013 10.8163L5.86831 10.6568L11.8989 10.6565L11.8802 18.7059L12.0057 18.5164L11.974 10.5052C10.5211 11.3048 7.94221 10.8384 6.24721 10.8384L6.1017 10.3892C6.0864 10.3221 6.05911 10.2437 6.04291 10.1617C5.85831 9.22741 5.99651 8.82289 6.01351 7.89638C6.03021 6.9844 5.99311 6.11534 5.98481 4.97171L4.92841 4.93361L4.92291 3.09932L6.75811 3.10874L6.70461 4.98584C6.86531 4.71814 6.80891 5.30024 6.93251 4.28535C6.99261 3.7908 6.94211 3.63145 6.89391 3.16384C5.7423 2.28095 6.17691 3.4001 5.9793 2.2535C5.8565 1.54062 6.06031 1.16374 5.8068 0.0887311L6.92611 0.179566C4.44471 -0.609616 1.9818 1.37461 1.0203 2.78686C-0.517798 5.04596 0.260901 7.83094 0.0213013 10.8163V10.8163Z" fill="#FDB36C"/>
<path fill-rule="evenodd" clip-rule="evenodd" d="M5.8501 18.8392L11.8802 18.7066L11.8989 10.656L5.8683 10.6563C6.0644 12.1674 6.1039 17.3965 5.8501 18.8392Z" fill="#D32F0C"/>
<path fill-rule="evenodd" clip-rule="evenodd" d="M0.0365015 18.6732L5.85011 18.837C6.10391 17.3947 6.06441 12.1667 5.86831 10.656L0.0213013 10.8155L0.0365015 18.6732Z" fill="#F56919"/>
<path fill-rule="evenodd" clip-rule="evenodd" d="M15.9593 20.3589C17.4782 20.7767 19.9043 20.3314 21.5645 20.3214L19.6692 20.133C19.62 18.4527 19.9126 11.9691 19.6356 10.6899C19.4493 9.8293 19.4271 10.8272 19.6652 9.68255C19.7059 9.48694 19.7592 9.03786 19.7769 8.82525L15.9606 8.81982L15.9593 20.3589V20.3589Z" fill="#FEFEFE"/>
<path fill-rule="evenodd" clip-rule="evenodd" d="M3.02168 8.71686L4.90506 8.87406L4.96396 6.8641L3.01288 6.82642L3.02168 8.71686Z" fill="#FFF6D7"/>
<path fill-rule="evenodd" clip-rule="evenodd" d="M6.71028 26.4816L6.77298 24.5168L4.90826 24.5347L4.94566 26.4162L6.71028 26.4816Z" fill="#FEFEFE"/>
<path fill-rule="evenodd" clip-rule="evenodd" d="M6.77448 8.73963L8.60289 8.76696L8.63419 6.90013L6.82778 6.8772L6.77448 8.73963Z" fill="#FEFEFE"/>
<path fill-rule="evenodd" clip-rule="evenodd" d="M6.76581 22.521L8.63699 22.5894L8.6554 20.7705L6.77301 20.7319L6.76581 22.521Z" fill="#FEFEFE"/>
<path fill-rule="evenodd" clip-rule="evenodd" d="M5.98481 4.97073L6.70462 4.98486L6.75812 3.1083L4.92291 3.09888L4.92841 4.93264L5.98481 4.97073Z" fill="#FEFEFE"/>
<path fill-rule="evenodd" clip-rule="evenodd" d="M3.09418 22.5527L4.89798 22.5904L4.89868 20.7614L3.12688 20.7319L3.09418 22.5527Z" fill="#FEFEFE"/>
<path fill-rule="evenodd" clip-rule="evenodd" d="M6.92629 0.18155C4.4448 -0.608314 1.98191 1.37592 1.02002 2.7877C-0.517473 5.04741 0.261122 7.83257 0.0214233 10.818L5.86859 10.6576H6.18839L6.10189 10.3905C6.08659 10.3224 6.05889 10.2443 6.04289 10.1632C5.85829 9.22868 5.99649 8.82397 6.01329 7.89791C6.02999 6.98607 5.99339 6.11685 5.98489 4.97204L4.9284 4.93517L4.9226 3.10014L6.75789 3.11008L6.70459 4.98781C6.86519 4.7194 6.80869 5.30159 6.93229 4.28612C6.99259 3.7919 6.94179 3.63276 6.89359 3.16548C5.74249 2.28212 6.17659 3.40122 5.97919 2.25518C5.85639 1.54212 6.06019 1.16568 5.80689 0.0905091L6.92629 0.18155V0.18155ZM3.02181 8.7188L3.01281 6.82847L4.9637 6.86534L4.9053 8.87651L3.02181 8.7188V8.7188Z" fill="#3182B7"/>
<path fill-rule="evenodd" clip-rule="evenodd" d="M4.8983 22.5902L3.0945 22.5519L3.1266 20.7326L4.8988 20.7623L4.8983 22.5902V22.5902ZM5.8499 18.8363L0.0368028 18.6731C0.100403 21.2182 -0.359996 24.3229 0.825203 26.3199C1.8932 28.1208 3.3131 29.2259 5.9676 29.4061C5.9354 29.1377 6.0344 27.7983 5.9837 26.8666C6.4885 26.4477 5.3426 26.7744 6.71029 26.4818L4.9457 26.4165L4.9085 24.5331L6.76199 24.5148C5.82269 23.9069 6.1505 24.7582 5.9606 23.6924C5.8229 22.9169 6.30979 19.9982 5.8499 18.8363V18.8363Z" fill="#3182B7"/>
<path fill-rule="evenodd" clip-rule="evenodd" d="M14.1395 4.00743C13.5138 5.73313 13.769 11.9357 13.769 14.224C13.769 21.4122 12.2039 28.8731 19.6832 29.4072C19.579 28.9585 19.6138 21.9476 19.768 20.7446L15.6237 20.6367L15.5805 8.58511L19.7192 8.57518L19.7314 0.19526L20.6343 0.149891C17.518 -0.637019 14.9298 1.82582 14.1395 4.00743V4.00743Z" fill="#3182B7"/>
<path fill-rule="evenodd" clip-rule="evenodd" d="M11.8805 18.7048L5.84991 18.8368C6.30981 19.9989 5.82292 22.9179 5.96061 23.6935C6.15051 24.7595 5.82271 23.9081 6.76191 24.516L6.77271 24.5159L6.77251 24.5228C6.81261 24.5491 6.85521 24.5779 6.90001 24.6097C6.91541 24.9024 6.97021 25.2275 6.95151 25.5258C6.95081 25.5302 7.09611 25.837 6.71031 26.4833C5.34262 26.7759 6.48851 26.4492 5.98372 26.8682C6.03442 27.8 5.93541 29.1395 5.96761 29.4079C8.29931 29.3341 10.2864 28.1225 11.2175 26.2943C12.4001 23.9733 11.7551 21.3397 12.0058 18.5159L11.8805 18.7048V18.7048ZM8.63691 22.5883L6.76571 22.5202L6.77271 20.7318L8.65551 20.7701L8.63691 22.5883Z" fill="#0C4B75"/>
<path fill-rule="evenodd" clip-rule="evenodd" d="M6.18839 10.6561H11.6475C11.7614 10.6114 11.8704 10.5609 11.9737 10.5041C11.7319 7.96749 12.3421 5.87115 11.3576 3.57449C10.6612 1.94962 9.07939 0.370421 6.92629 0.180151L5.80688 0.0891113C6.06019 1.16427 5.85638 1.54071 5.97918 2.25376C6.17659 3.39979 5.74249 2.2807 6.89359 3.16405C6.94179 3.63133 6.99259 3.79047 6.93229 4.28468C6.80869 5.30013 6.86519 4.71796 6.70459 4.98636L5.98489 4.97059C5.99339 6.11539 6.02999 6.98461 6.01329 7.89643C5.99649 8.82248 5.85829 9.22719 6.04289 10.1617C6.05889 10.2427 6.08659 10.3209 6.10189 10.389L6.18839 10.6561V10.6561ZM6.82799 6.87667L8.63439 6.89951L8.60279 8.76708L6.77469 8.74015L6.82799 6.87667V6.87667Z" fill="#0C4B75"/>
<path fill-rule="evenodd" clip-rule="evenodd" d="M19.768 20.7475C19.6138 21.9505 19.579 28.9613 19.6832 29.4101C22.7512 29.3078 24.7254 27.4217 25.425 25.0212C25.764 23.8594 25.8012 6.51417 25.569 5.10522C25.1601 2.62967 23.1486 0.426636 20.6343 0.152588L19.7314 0.197957L19.7192 8.57793L23.7621 8.61633L23.6708 20.7332L19.768 20.7475Z" fill="#0C4B75"/>
<path fill-rule="evenodd" clip-rule="evenodd" d="M5.84991 18.8368C6.10391 17.3953 6.06471 12.1672 5.86861 10.656L0.0214233 10.8165L0.0368237 18.6736L5.84991 18.8368V18.8368Z" fill="#0C4B75"/>
<path fill-rule="evenodd" clip-rule="evenodd" d="M5.86862 10.656C6.06471 12.1672 6.10391 17.3953 5.84991 18.8368L11.8805 18.7048L11.899 10.656H11.6475H6.18841H5.86862V10.656Z" fill="#1A252B"/>
</svg>
