<svg width="31" height="26" viewBox="0 0 31 26" fill="none" xmlns="http://www.w3.org/2000/svg">
<path d="M1.52896 13.2882H10.9738L12.4587 6.3259C12.5341 5.97234 12.8504 5.72129 13.2154 5.73238C13.5785 5.74198 13.8829 6.00831 13.9392 6.36532L15.176 14.2109L15.948 11.7621C16.0379 11.4771 16.2892 11.2723 16.5877 11.2412C16.8862 11.21 17.1749 11.3581 17.3223 11.6184L18.4061 13.5316L28.9998 13.4499C29.4234 12.6295 29.7355 11.7307 29.8895 10.738C30.319 7.97352 29.6011 5.19222 27.9695 3.2979C26.5241 1.61986 24.4691 0.733032 22.027 0.733032C18.2374 0.733032 16.0842 3.26553 15.3058 4.40791C14.5275 3.26553 12.3742 0.733032 8.58462 0.733032C6.14247 0.733032 4.08752 1.61986 2.64205 3.2979C1.01059 5.19207 0.292678 7.97352 0.722192 10.738C0.866317 11.6655 1.14719 12.5117 1.52896 13.2882Z" fill="#0F4C75"/>
<path d="M17.9741 15.0337C17.7033 15.0293 17.4468 14.8898 17.3123 14.6524L16.8644 13.8618L15.6494 17.7158C15.5503 18.0299 15.258 18.2408 14.9313 18.2408C14.9126 18.2408 14.894 18.2402 14.8751 18.2387C14.5263 18.2129 14.2413 17.9514 14.187 17.6076L13.0842 10.6118L12.3203 14.1933C12.2465 14.5395 11.9393 14.7871 11.5838 14.7871H2.44544C4.23548 17.217 7.00563 18.8535 9.22188 20.1612C10.3082 20.8022 11.3342 21.4077 12.0478 21.987C14.6825 24.1261 14.9236 25.2053 14.9325 25.2503C14.9557 25.4375 15.1147 25.5854 15.3054 25.5854C15.5 25.5854 15.6619 25.4446 15.6795 25.2517C15.6813 25.241 15.8858 24.1617 18.5646 21.987C19.2781 21.4077 20.3042 20.8022 21.3904 20.1612C23.5549 18.8839 26.2481 17.2934 28.0402 14.9562L17.9741 15.0337Z" fill="#0F4C75"/>
</svg>
