<svg width="27" height="30" viewBox="0 0 27 30" fill="none" xmlns="http://www.w3.org/2000/svg">
<path fill-rule="evenodd" clip-rule="evenodd" d="M14.3721 12.8572L13.751 14.8611C12.4637 16.5836 10.8036 16.6725 7.91538 16.5474C8.49048 16.9357 8.41167 16.7522 9.28327 16.8217L9.26339 18.8835C8.59119 19.2787 8.87069 18.9708 8.56089 19.113C7.66609 19.5236 7.85477 18.8823 7.92997 22.3504C8.26757 23.961 8.57507 24.8522 9.35167 26.0357C9.89147 26.8585 10.8499 27.7681 11.8827 28.3522C13.9695 29.5324 17.1075 29.8355 19.6315 28.6919C26.284 25.6778 23.673 18.1534 24.357 13.8312L23.2226 13.9886L21.7485 13.8144C21.0385 16.354 22.2808 20.0761 21.4393 22.3694C21.3494 25.1163 17.8514 27.643 14.5632 26.6565C11.2369 25.6587 10.5724 23.2711 10.5931 19.3356C11.3717 18.8935 12.3032 19.0985 13.6365 18.3703C14.7208 17.7782 15.1803 17.4492 15.7609 16.5588C16.403 15.5744 17.5099 12.5656 17.4349 11.2234L17.3579 10.8801C17.3534 10.7935 17.3296 10.7646 17.3021 10.7123L15.385 10.3501C14.6835 10.4818 14.8886 10.5606 14.6865 11.4582C14.5683 11.9825 14.5238 12.3472 14.3721 12.8572Z" fill="#811A0A"/>
<path fill-rule="evenodd" clip-rule="evenodd" d="M1.10853 10.6826C0.785827 12.1625 2.01871 15.6626 2.73251 16.6214C3.76791 18.012 5.52642 18.9878 7.89462 19.1108L7.93001 22.3502C7.85481 18.8822 7.66613 19.5234 8.56093 19.1129C8.87073 18.9707 8.59123 19.2786 9.26343 18.8833L9.28331 16.8216C8.41171 16.7521 8.49052 16.9356 7.91542 16.5473C6.54492 16.3777 5.18551 15.82 4.75401 14.707C4.26641 14.0926 4.27612 13.9161 4.13482 12.9454C4.00072 12.425 3.94032 12.0492 3.81542 11.5208C3.59572 10.5913 3.80781 10.8218 3.27501 10.3994L1.10853 10.6826Z" fill="#D3330B"/>
<path fill-rule="evenodd" clip-rule="evenodd" d="M13.2661 2.42334C18.5184 1.46284 15.4494 7.51608 15.385 10.3496L17.3021 10.7118C17.3904 8.59793 18.8674 5.86337 18.3991 3.53454C17.8337 0.722013 15.9813 0.718332 13.2728 0.291016L13.2661 2.42334Z" fill="#94B4A4"/>
<path fill-rule="evenodd" clip-rule="evenodd" d="M1.10851 10.6828L3.275 10.3996C2.8685 9.16053 2.43521 6.93251 2.14871 5.40896C1.65781 2.79815 2.76611 2.48877 5.20551 2.24632L5.19461 0.409043C2.37871 0.320996 0.480503 1.28836 0.0607028 3.73199C-0.342897 6.08128 1.41361 8.88534 1.10851 10.6828Z" fill="#BAD4CB"/>
<path fill-rule="evenodd" clip-rule="evenodd" d="M21.4393 22.3683C22.2808 20.0751 21.0385 16.353 21.7485 13.8135L23.2226 13.9877L22.9653 13.4822C22.7758 12.98 22.8909 12.7056 22.9524 12.0016C22.3668 11.9723 22.0773 11.7369 21.6723 11.4378C21.5724 10.003 21.8127 9.63009 23.2774 9.55784C23.224 9.50312 23.0865 9.29983 23.0592 9.23901C22.7579 8.56628 22.8825 8.26314 23.0333 7.61182C19.091 7.85075 18.4562 12.1061 21.403 13.6401L21.4393 22.3683Z" fill="#BAD4CB"/>
<path fill-rule="evenodd" clip-rule="evenodd" d="M23.2774 9.55779C24.5829 10.3971 24.5727 11.6706 22.9524 12.0015C22.8909 12.7055 22.7758 12.9798 22.9653 13.4821L23.2226 13.9875L24.357 13.8302C24.9886 13.1236 25.1092 13.4018 25.6855 12.5906C26.1763 11.8996 26.322 11.0095 26.1394 10.0812C25.8658 8.68935 24.5606 7.6921 23.0333 7.61182C22.8825 8.26312 22.7579 8.56626 23.0592 9.23897C23.0865 9.29979 23.224 9.50307 23.2774 9.55779Z" fill="#94B4A4"/>
<path fill-rule="evenodd" clip-rule="evenodd" d="M7.91543 16.5471C10.8036 16.6723 12.4637 16.5834 13.751 14.8607L9.12473 14.9303C7.81113 14.9493 5.64443 15.1327 4.75403 14.7065C5.18553 15.8197 6.54493 16.3775 7.91543 16.5471Z" fill="#FDFDFD"/>
<path fill-rule="evenodd" clip-rule="evenodd" d="M9.12469 14.9304L13.751 14.8608L14.3721 12.8569L9.20249 12.9238L9.12469 14.9304Z" fill="#94B4A4"/>
<path fill-rule="evenodd" clip-rule="evenodd" d="M4.75403 14.7065C5.64443 15.1326 7.81113 14.9493 9.12473 14.9303L9.20252 12.9233L4.13483 12.9447C4.27613 13.9156 4.26643 14.0921 4.75403 14.7065Z" fill="#BAD4CB"/>
<path fill-rule="evenodd" clip-rule="evenodd" d="M5.20548 2.24571C5.39188 2.92286 7.15068 2.61503 7.84348 2.57958L7.86057 0.106063C7.04177 0.0299303 5.60648 -0.199435 5.19458 0.40846L5.20548 2.24571Z" fill="#D3330B"/>
<path fill-rule="evenodd" clip-rule="evenodd" d="M13.2661 2.42314L13.2728 0.290609L12.1046 0.0267557C11.6501 0.00932044 11.0792 0.0410917 10.6048 0.0367328L10.609 2.63672C11.1108 2.62761 11.6383 2.65241 12.1029 2.63885L13.2661 2.42314Z" fill="#811A0A"/>
<path fill-rule="evenodd" clip-rule="evenodd" d="M22.9524 12.0018C24.5727 11.671 24.5829 10.3974 23.2774 9.55811C21.8127 9.63036 21.5724 10.0032 21.6723 11.4381C22.0773 11.7371 22.3668 11.9726 22.9524 12.0018Z" fill="#FDFDFD"/>
<path fill-rule="evenodd" clip-rule="evenodd" d="M3.27521 10.3985C2.86881 9.15917 2.4352 6.93172 2.149 5.40704C1.6577 2.79778 2.76611 2.48814 5.20521 2.24542L5.19441 0.40829C2.37881 0.320443 0.4806 1.28715 0.0605999 3.73039C-0.3431 6.07988 1.41371 8.88372 1.10861 10.6809L3.27521 10.3985Z" fill="#3182B7"/>
<path fill-rule="evenodd" clip-rule="evenodd" d="M13.266 2.42413C18.5187 1.46303 15.4496 7.51663 15.385 10.3503L17.3022 10.7122C17.3905 8.59842 18.8674 5.86407 18.3992 3.5343C17.8336 0.721983 15.981 0.719077 13.2728 0.291748L13.266 2.42413Z" fill="#3182B7"/>
<path fill-rule="evenodd" clip-rule="evenodd" d="M9.20263 12.9241L4.13501 12.9454C4.27631 13.9165 4.26611 14.0927 4.75401 14.7074C5.64431 15.1334 7.81092 14.9502 9.12462 14.9318L9.20263 12.9241Z" fill="#3182B7"/>
<path fill-rule="evenodd" clip-rule="evenodd" d="M23.0333 7.61035C19.0909 7.85037 18.4562 12.1053 21.4029 13.6401L21.4396 22.3687C22.281 20.0757 21.0387 16.3532 21.7489 13.8133L23.2223 13.9879L22.9653 13.4825C22.7757 12.9799 22.8906 12.7059 22.9524 12.0017C22.3666 11.9718 22.0772 11.7362 21.6721 11.438C21.5722 10.0027 21.8128 9.62923 23.2773 9.55687C23.2243 9.50283 23.0863 9.2999 23.0591 9.23878C22.7581 8.56589 22.8824 8.26213 23.0333 7.61035Z" fill="#3182B7"/>
<path fill-rule="evenodd" clip-rule="evenodd" d="M14.3725 12.8579L9.20264 12.9246L9.12463 14.9312L13.7513 14.8602L14.3725 12.8579Z" fill="#0C4B75"/>
<path fill-rule="evenodd" clip-rule="evenodd" d="M23.2773 9.5573C24.5828 10.3979 24.5726 11.6718 22.9524 12.0026C22.8906 12.707 22.7757 12.9811 22.9653 13.4837L23.2223 13.9893L24.3572 13.8317C24.9885 13.1244 25.1095 13.4029 25.6858 12.5919C26.1764 11.9003 26.3219 11.0101 26.1397 10.0813C25.8659 8.68962 24.5604 7.69125 23.0333 7.61035C22.8824 8.26227 22.7581 8.5661 23.0591 9.23914C23.0863 9.30027 23.2243 9.50324 23.2773 9.5573Z" fill="#0C4B75"/>
<path fill-rule="evenodd" clip-rule="evenodd" d="M5.2052 2.24853C5.3921 2.92589 7.151 2.61773 7.8435 2.58217L7.86049 0.108653C7.04149 0.0320251 5.6061 -0.196698 5.1944 0.411001L5.2052 2.24853Z" fill="#0C4B75"/>
<path fill-rule="evenodd" clip-rule="evenodd" d="M10.6047 0.0371319L10.6088 2.63647C11.111 2.62649 11.6384 2.65206 12.1032 2.63782L13.266 2.42349L13.2728 0.291177L12.1046 0.0271558C11.6499 0.0087538 11.079 0.0413935 10.6047 0.0371319Z" fill="#1A252B"/>
<path fill-rule="evenodd" clip-rule="evenodd" d="M13.7513 14.86C12.4634 16.5835 10.8038 16.6716 7.91548 16.5466C8.49048 16.9356 8.41159 16.751 9.28349 16.8206L9.26317 18.8835C8.59097 19.2782 8.87098 18.9701 8.56118 19.112C8.15188 19.3003 7.96928 19.2683 7.89868 19.5096L7.92978 22.3505C8.26748 23.9603 8.57537 24.8519 9.35157 26.036C9.89167 26.858 10.85 27.768 11.883 28.353C13.9694 29.5327 17.1079 29.8351 19.6318 28.6924C26.2838 25.6781 23.6729 18.1522 24.3572 13.8307L23.2223 13.9883L21.7489 13.8138C20.6698 13.4506 21.5147 14.2529 21.4396 22.3689C21.3493 25.116 17.8513 27.6431 14.5634 26.6564C11.2367 25.6584 10.572 23.2703 10.5931 19.3349C11.3719 18.8934 12.303 19.0978 13.6364 18.3695C14.721 17.7775 15.1805 17.4481 15.7608 16.5579C16.4031 15.5741 17.5101 12.5644 17.4347 11.2228L17.3579 10.879C17.3532 10.7925 17.3294 10.7641 17.3022 10.7116L15.385 10.3496C14.6837 10.4816 14.8889 10.5597 14.6864 11.457C14.5681 11.9823 14.5239 12.3471 14.3725 12.8568L13.7513 14.86Z" fill="#1A252B"/>
<path fill-rule="evenodd" clip-rule="evenodd" d="M9.28352 16.8206C8.41162 16.7509 8.49052 16.9356 7.91552 16.5465C6.54482 16.3776 5.18561 15.8196 4.75401 14.7064C4.26611 14.0916 4.27631 13.9154 4.13501 12.9443C4.00101 12.4231 3.94052 12.0482 3.81542 11.5187C3.59602 10.59 3.80802 10.82 3.27522 10.3984L1.10862 10.6809C0.785821 12.1605 2.01862 15.662 2.73282 16.6204C3.76782 18.0119 5.52672 18.9874 7.89442 19.1109L7.89872 19.5099C7.96932 19.2686 8.15192 19.3006 8.56122 19.1123C8.87102 18.9704 8.59101 19.2785 9.26321 18.8838L9.28352 16.8206Z" fill="#0C4B75"/>
<path fill-rule="evenodd" clip-rule="evenodd" d="M7.91553 16.5458C10.8038 16.6706 12.4634 16.5827 13.7513 14.8603L9.12463 14.9312C7.81093 14.9496 5.64433 15.1326 4.75403 14.707C5.18563 15.8194 6.54483 16.377 7.91553 16.5458Z" fill="#BBE0FA"/>
</svg>
