<svg width="31" height="30" viewBox="0 0 31 30" fill="none" xmlns="http://www.w3.org/2000/svg">
<g clip-path="url(#clip0_4_124)">
<path d="M30.5621 27.8512L21.9546 19.2376C23.6515 17.2026 24.6721 14.6019 24.6721 11.7614C24.6721 5.28128 19.354 0.0122986 12.8123 0.0122986C6.27065 0.0122986 0.940186 5.28743 0.940186 11.7676C0.940186 18.2478 6.25835 23.5167 12.8 23.5167C15.579 23.5167 18.1366 22.5638 20.1655 20.9714L28.8037 29.6096C29.3078 30.1137 30.0579 30.1137 30.5621 29.6096C31.0662 29.1054 31.0662 28.3554 30.5621 27.8512ZM3.46094 11.7676C3.46094 6.67691 7.65399 2.5392 12.8 2.5392C17.946 2.5392 22.1391 6.67691 22.1391 11.7676C22.1391 16.8583 17.946 20.996 12.8 20.996C7.65399 20.996 3.46094 16.8521 3.46094 11.7676Z" fill="white"/>
</g>
<defs>
<clipPath id="clip0_4_124">
<rect width="30" height="30" fill="white" transform="translate(0.940186)"/>
</clipPath>
</defs>
</svg>
