<svg width="70" height="70" viewBox="0 0 70 70" fill="none" xmlns="http://www.w3.org/2000/svg">
<path fill-rule="evenodd" clip-rule="evenodd" d="M34.9373 37.6025C43.6104 37.6025 50.6414 30.4895 50.6414 21.7152C50.6414 12.9409 43.6104 5.82796 34.9373 5.82796C26.2642 5.82796 19.2332 12.9409 19.2332 21.7152C19.2332 30.4895 26.2642 37.6025 34.9373 37.6025ZM34.9373 40.4911C45.1874 40.4911 53.4967 32.0848 53.4967 21.7152C53.4967 11.3456 45.1874 2.93937 34.9373 2.93937C24.6873 2.93937 16.378 11.3456 16.378 21.7152C16.378 32.0848 24.6873 40.4911 34.9373 40.4911Z" fill="white"/>
<path fill-rule="evenodd" clip-rule="evenodd" d="M41.6752 33.3476C43.6302 30.4906 44.9308 26.3868 44.9308 21.7152C44.9308 17.0436 43.6302 12.9399 41.6752 10.0829C39.7123 7.21463 37.2835 5.82796 34.9373 5.82796C32.591 5.82796 30.1623 7.21463 28.1994 10.0829C26.2444 12.9399 24.9438 17.0436 24.9438 21.7152C24.9438 26.3868 26.2444 30.4906 28.1994 33.3476C30.1623 36.2158 32.591 37.6025 34.9373 37.6025C37.2835 37.6025 39.7123 36.2158 41.6752 33.3476ZM34.9373 40.4911C42.0334 40.4911 47.7861 32.0848 47.7861 21.7152C47.7861 11.3456 42.0334 2.93937 34.9373 2.93937C27.8411 2.93937 22.0885 11.3456 22.0885 21.7152C22.0885 32.0848 27.8411 40.4911 34.9373 40.4911Z" fill="white"/>
<path fill-rule="evenodd" clip-rule="evenodd" d="M33.5097 39.0468V4.38367H36.365V39.0468H33.5097Z" fill="white"/>
<path fill-rule="evenodd" clip-rule="evenodd" d="M17.8056 20.2709H52.069V23.1595H17.8056V20.2709Z" fill="white"/>
<path fill-rule="evenodd" clip-rule="evenodd" d="M20.6609 11.6051H49.2137V14.4937H20.6609V11.6051Z" fill="white"/>
<path fill-rule="evenodd" clip-rule="evenodd" d="M20.6609 28.9367H49.2137V31.8253H20.6609V28.9367Z" fill="white"/>
<path d="M32.0622 63.7614H33.4899V65.2057H32.0622V63.7614ZM32.0622 56.54V55.0957H33.4899V56.54H32.0622ZM16.3581 63.7614V65.2057H14.9305V63.7614H16.3581ZM16.3581 56.54H14.9305V55.0957H16.3581V56.54ZM17.0316 56.54L18.2001 55.7104L19.7775 57.9843H17.0316V56.54ZM14.328 53.3371L15.3628 52.3421L14.328 53.3371ZM10.7491 48.7855L11.9795 48.053L10.7491 48.7855ZM9.89491 47.3688L11.1075 46.6065L9.89491 47.3688ZM7.81897 42.7671L9.23757 42.6048L7.81897 42.7671ZM8.06039 27.6903L6.71018 27.221L8.06039 27.6903ZM13.2094 28.8636L11.8442 29.2861L13.2094 28.8636ZM14.1353 35.4648L12.7117 35.573L14.1353 35.4648ZM15.0009 40.7704L16.2421 40.0568L15.0009 40.7704ZM19.5305 47.4299L20.8037 46.7764L18.381 48.2862L19.5305 47.4299ZM16.549 41.4849L17.7952 40.7802L17.8092 40.8055L17.8222 40.8315L16.549 41.4849ZM16.3333 39.0998L14.9225 38.8788L16.3333 39.0998ZM21.5386 40.3891L22.5712 39.3915L22.6146 39.4376L22.6539 39.4873L21.5386 40.3891ZM26.7567 46.993L27.8718 46.0913L27.8878 46.1114L27.9029 46.1321L26.7567 46.993ZM28.5035 50.5809L27.0769 50.6345L28.5035 50.5809ZM29.1348 56.54V57.9843H27.8707L27.7178 56.7147L29.1348 56.54ZM30.6346 63.7614V56.54H33.4899V63.7614H30.6346ZM16.3581 62.3171H32.0622V65.2057H16.3581V62.3171ZM17.7858 56.54V63.7614H14.9305V56.54H17.7858ZM17.0316 57.9843H16.3581V55.0957H17.0316V57.9843ZM15.8629 57.3697C15.0696 56.226 14.2232 55.322 13.2932 54.3321L15.3628 52.3421C16.2812 53.3195 17.2687 54.3676 18.2001 55.7104L15.8629 57.3697ZM13.2932 54.3321C12.0762 53.0367 10.7433 51.6234 9.51864 49.5179L11.9795 48.053C13.0215 49.8445 14.1466 51.0474 15.3628 52.3421L13.2932 54.3321ZM9.51864 49.5179C9.2439 49.0456 8.9638 48.5894 8.68228 48.1311L11.1075 46.6065C11.3865 47.0608 11.6846 47.5459 11.9795 48.053L9.51864 49.5179ZM8.68228 48.1311C7.72452 46.5717 6.61106 44.8137 6.40038 42.9295L9.23757 42.6048C9.36089 43.7077 10.0413 44.8706 11.1075 46.6065L8.68228 48.1311ZM6.40038 42.9295C6.28277 41.8776 6.1982 38.4558 6.21168 35.1567C6.21849 33.4883 6.2505 31.8122 6.31888 30.4356C6.35301 29.7484 6.39691 29.121 6.45336 28.5996C6.50566 28.1165 6.57989 27.6048 6.71018 27.221L9.4106 28.1594C9.4115 28.1568 9.4061 28.1727 9.39653 28.2134C9.38731 28.2528 9.3764 28.306 9.36443 28.3747C9.34027 28.5132 9.31564 28.6926 9.29167 28.914C9.24373 29.357 9.20327 29.9222 9.17057 30.5806C9.10527 31.8952 9.07366 33.5225 9.06693 35.1686C9.05334 38.4985 9.14194 41.7495 9.23757 42.6048L6.40038 42.9295ZM6.71018 27.221C7.23188 25.6846 8.84338 24.6926 10.4497 24.7309C12.268 24.7742 13.8523 26.0517 14.5746 28.4413L11.8442 29.2861C11.3953 27.8011 10.699 27.6263 10.3825 27.6188C9.85408 27.6061 9.47665 27.9648 9.4106 28.1594L6.71018 27.221ZM14.5746 28.4413C15.2086 30.5389 15.3971 33.175 15.559 35.3566L12.7117 35.573C12.5426 33.2942 12.366 31.0123 11.8442 29.2861L14.5746 28.4413ZM15.559 35.3566C15.6449 36.5152 15.7223 37.5492 15.8419 38.4132C15.9678 39.3232 16.1164 39.8332 16.2421 40.0568L13.7597 41.484C13.3417 40.7401 13.1426 39.7421 13.0142 38.8137C12.8793 37.8391 12.7957 36.704 12.7117 35.573L15.559 35.3566ZM16.2421 40.0568C16.7372 40.9381 17.8262 42.5433 18.8332 43.9818C19.3282 44.6889 19.7905 45.3376 20.1291 45.8096C20.2983 46.0454 20.4365 46.2369 20.5321 46.3692C20.58 46.4354 20.6172 46.4866 20.6424 46.5213C20.6549 46.5386 20.6645 46.5519 20.6709 46.5606C20.6741 46.5651 20.6765 46.5683 20.678 46.5704C20.6788 46.5716 20.6793 46.5723 20.6798 46.5729C20.6799 46.573 20.68 46.5733 20.68 46.5734C20.6802 46.5734 20.6802 46.5734 20.6802 46.5734C20.6802 46.5734 20.6802 46.5734 19.5305 47.4299C18.381 48.2862 18.381 48.2862 18.3808 48.2861C18.3808 48.2861 18.3808 48.2859 18.3807 48.2859C18.3805 48.2857 18.3804 48.2855 18.3801 48.2851C18.3797 48.2845 18.379 48.2836 18.3781 48.2823C18.3764 48.2799 18.3738 48.2764 18.3704 48.2717C18.3637 48.2624 18.3537 48.2487 18.3407 48.2308C18.3146 48.195 18.2766 48.1424 18.2278 48.0749C18.1301 47.94 17.9899 47.7455 17.8183 47.5063C17.4753 47.0281 17.0063 46.3701 16.5031 45.6511C15.5134 44.2376 14.3376 42.513 13.7597 41.484L16.2421 40.0568ZM18.2575 48.0833L15.2759 42.1384L17.8222 40.8315L20.8037 46.7764L18.2575 48.0833ZM16.549 41.4849C15.3028 42.1897 15.3025 42.189 15.3021 42.1884C15.3021 42.1881 15.3017 42.1876 15.3014 42.1871C15.301 42.1863 15.3005 42.1854 15.3 42.1844C15.299 42.1826 15.298 42.1808 15.297 42.1789C15.2948 42.175 15.2927 42.1709 15.2904 42.1666C15.2858 42.1581 15.2808 42.1486 15.2756 42.1382C15.265 42.1174 15.2529 42.093 15.2399 42.0649C15.2136 42.0089 15.1829 41.9384 15.1505 41.8538C15.0855 41.6842 15.0136 41.458 14.9548 41.177C14.8366 40.6114 14.7755 39.839 14.9225 38.8788L17.7441 39.3209C17.652 39.9228 17.6988 40.3429 17.7482 40.5793C17.7734 40.6994 17.8001 40.7765 17.8129 40.8101C17.8193 40.827 17.8225 40.8331 17.8202 40.8282C17.8189 40.8257 17.8165 40.8205 17.8125 40.8124C17.8103 40.8085 17.8079 40.8038 17.8051 40.7984C17.8036 40.7958 17.8021 40.7929 17.8005 40.7899C17.7996 40.7883 17.7988 40.7867 17.7979 40.7851C17.7975 40.7844 17.7971 40.7836 17.7966 40.7827C17.7964 40.7823 17.7961 40.7817 17.7959 40.7815C17.7955 40.7808 17.7952 40.7802 16.549 41.4849ZM14.9225 38.8788C15.0935 37.7612 15.7695 36.5214 16.6006 35.7763C17.0067 35.4121 17.6754 34.9652 18.5145 35.0078C19.4917 35.0575 20.1425 35.7219 20.497 36.4499L17.9355 37.7263C17.8974 37.648 17.8986 37.6852 17.9798 37.7495C18.0755 37.8252 18.2158 37.8849 18.3713 37.8928C18.628 37.9058 18.6735 37.7775 18.4945 37.938C18.3504 38.0671 18.1725 38.291 18.0175 38.5768C17.8623 38.8631 17.7729 39.1326 17.7441 39.3209L14.9225 38.8788ZM20.497 36.4499C20.8569 37.1891 21.3696 37.9243 21.8147 38.4942C22.0333 38.7742 22.2272 39.0037 22.365 39.1616C22.4336 39.2403 22.4879 39.3007 22.5237 39.34C22.5416 39.3596 22.5548 39.3739 22.563 39.3827C22.567 39.3871 22.5697 39.39 22.5711 39.3915C22.5718 39.3923 22.5722 39.3927 22.5722 39.3927C22.5722 39.3927 22.5721 39.3926 22.572 39.3924C22.5718 39.3923 22.5718 39.3923 22.5717 39.3921C22.5715 39.392 22.5715 39.3918 22.5714 39.3918C22.5712 39.3917 22.5712 39.3915 21.5386 40.3891C20.5062 41.3865 20.506 41.3864 20.5059 41.3863C20.5059 41.3861 20.5057 41.386 20.5056 41.3858C20.5054 41.3857 20.5052 41.3854 20.5049 41.3851C20.5043 41.3845 20.5037 41.3839 20.503 41.3831C20.5016 41.3816 20.4999 41.3798 20.4977 41.3774C20.4935 41.373 20.4879 41.3669 20.4809 41.3594C20.4669 41.3444 20.4476 41.3234 20.4235 41.2969C20.3751 41.2438 20.3074 41.1683 20.2243 41.0733C20.0587 40.8834 19.8306 40.6131 19.5742 40.2848C19.0694 39.6384 18.4209 38.723 17.9355 37.7263L20.497 36.4499ZM22.6539 39.4873L27.8718 46.0913L25.6415 47.8948L20.4235 41.2908L22.6539 39.4873ZM26.7567 46.993C27.9029 46.1321 27.9031 46.1324 27.9032 46.1325C27.9032 46.1325 27.9033 46.1326 27.9035 46.1328C27.9036 46.1331 27.9039 46.1334 27.9041 46.1337C27.9046 46.1344 27.9052 46.1351 27.9059 46.1361C27.9072 46.138 27.9091 46.1404 27.9112 46.1435C27.9156 46.1495 27.9216 46.1576 27.929 46.168C27.9439 46.1887 27.9647 46.2177 27.9907 46.2544C28.0425 46.3278 28.1152 46.4319 28.2019 46.56C28.3742 46.8152 28.6062 47.1721 28.8419 47.5759C29.0753 47.9759 29.3259 48.4445 29.5253 48.9203C29.7135 49.3695 29.9088 49.9457 29.9302 50.5273L27.0769 50.6345C27.0749 50.5805 27.0402 50.3906 26.8966 50.0478C26.7639 49.7317 26.5808 49.3829 26.3833 49.0448C26.1882 48.7104 25.9923 48.4087 25.8444 48.1898C25.7709 48.081 25.7102 47.9941 25.6689 47.9357C25.6484 47.9067 25.6327 47.8847 25.6225 47.8709C25.6175 47.8638 25.614 47.8589 25.6118 47.856C25.6108 47.8547 25.6103 47.8538 25.61 47.8534C25.6098 47.8532 25.6098 47.8532 25.6098 47.8532C25.61 47.8534 25.61 47.8534 25.6101 47.8535C25.6101 47.8537 25.6103 47.8537 25.6103 47.8538C25.6103 47.8538 25.6104 47.854 26.7567 46.993ZM29.9302 50.5273C29.9604 51.3525 30.3295 54.5184 30.5521 56.3652L27.7178 56.7147C27.5055 54.9531 27.1129 51.6166 27.0769 50.6345L29.9302 50.5273ZM32.0622 57.9843H29.1348V55.0957H32.0622V57.9843Z" fill="white"/>
<path d="M37.7211 63.7614H36.2935V65.2057H37.7211V63.7614ZM37.7211 56.54V55.0957H36.2935V56.54H37.7211ZM53.4252 63.7614V65.2057H54.8528V63.7614H53.4252ZM53.4252 56.54H54.8528V55.0957H53.4252V56.54ZM52.7517 56.54L51.5832 55.7104L50.0058 57.9843H52.7517V56.54ZM55.4553 53.3371L54.4205 52.3421L55.4553 53.3371ZM59.0342 48.7855L57.8039 48.053L59.0342 48.7855ZM59.8884 47.3688L58.6757 46.6065L59.8884 47.3688ZM61.9643 42.7671L60.5457 42.6048L61.9643 42.7671ZM61.7229 27.6903L63.0732 27.221L61.7229 27.6903ZM56.5738 28.8636L57.9391 29.2861L56.5738 28.8636ZM55.648 35.4648L57.0716 35.573L55.648 35.4648ZM54.7824 40.7704L53.5412 40.0568L54.7824 40.7704ZM50.2528 47.4299L48.9796 46.7764L51.4023 48.2862L50.2528 47.4299ZM53.2343 41.4849L51.9881 40.7802L51.9741 40.8055L51.9611 40.8315L53.2343 41.4849ZM53.45 39.0998L54.8608 38.8788L53.45 39.0998ZM48.2447 40.3891L47.2121 39.3915L47.1687 39.4376L47.1294 39.4873L48.2447 40.3891ZM43.0266 46.993L41.9115 46.0913L41.8955 46.1114L41.8804 46.1321L43.0266 46.993ZM41.2798 50.5809L42.7064 50.6345L41.2798 50.5809ZM40.6485 56.54V57.9843H41.9127L42.0656 56.7147L40.6485 56.54ZM39.1487 63.7614V56.54H36.2935V63.7614H39.1487ZM53.4252 62.3171H37.7211V65.2057H53.4252V62.3171ZM51.9975 56.54V63.7614H54.8528V56.54H51.9975ZM52.7517 57.9843H53.4252V55.0957H52.7517V57.9843ZM53.9204 57.3697C54.7138 56.226 55.5602 55.322 56.49 54.3321L54.4205 52.3421C53.5021 53.3195 52.5146 54.3676 51.5832 55.7104L53.9204 57.3697ZM56.49 54.3321C57.7071 53.0367 59.0401 51.6234 60.2647 49.5179L57.8039 48.053C56.7619 49.8445 55.6367 51.0474 54.4205 52.3421L56.49 54.3321ZM60.2647 49.5179C60.5394 49.0456 60.8195 48.5894 61.101 48.1311L58.6757 46.6065C58.3968 47.0608 58.0987 47.5459 57.8039 48.053L60.2647 49.5179ZM61.101 48.1311C62.0588 46.5717 63.1723 44.8137 63.383 42.9295L60.5457 42.6048C60.4225 43.7077 59.7421 44.8706 58.6757 46.6065L61.101 48.1311ZM63.383 42.9295C63.5006 41.8776 63.5851 38.4558 63.5716 35.1567C63.5649 33.4883 63.5329 31.8122 63.4645 30.4356C63.4304 29.7484 63.3864 29.121 63.33 28.5996C63.2776 28.1165 63.2034 27.6048 63.0732 27.221L60.3728 28.1594C60.3718 28.1568 60.3772 28.1727 60.3868 28.2134C60.3961 28.2528 60.4069 28.306 60.4189 28.3747C60.443 28.5132 60.4677 28.6926 60.4916 28.914C60.5395 29.357 60.5801 29.9222 60.6128 30.5806C60.678 31.8952 60.7097 33.5225 60.7164 35.1686C60.73 38.4985 60.6413 41.7495 60.5457 42.6048L63.383 42.9295ZM63.0732 27.221C62.5514 25.6846 60.94 24.6926 59.3336 24.7309C57.5154 24.7742 55.931 26.0517 55.2087 28.4413L57.9391 29.2861C58.3879 27.8011 59.0843 27.6263 59.4007 27.6188C59.9292 27.6061 60.3067 27.9648 60.3728 28.1594L63.0732 27.221ZM55.2087 28.4413C54.5747 30.5389 54.3863 33.175 54.2244 35.3566L57.0716 35.573C57.2407 33.2942 57.4174 31.0123 57.9391 29.2861L55.2087 28.4413ZM54.2244 35.3566C54.1384 36.5152 54.061 37.5492 53.9414 38.4132C53.8155 39.3232 53.6669 39.8332 53.5412 40.0568L56.0236 41.484C56.4416 40.7401 56.6406 39.7421 56.7691 38.8137C56.904 37.8391 56.9877 36.704 57.0716 35.573L54.2244 35.3566ZM53.5412 40.0568C53.0461 40.9381 51.9571 42.5433 50.9501 43.9818C50.4551 44.6889 49.9928 45.3376 49.6542 45.8096C49.485 46.0454 49.3468 46.2369 49.2512 46.3692C49.2033 46.4354 49.1661 46.4866 49.141 46.5213C49.1284 46.5386 49.1188 46.5519 49.1124 46.5606C49.1093 46.5651 49.1068 46.5683 49.1053 46.5704C49.1046 46.5716 49.104 46.5723 49.1035 46.5729C49.1034 46.573 49.1033 46.5733 49.1033 46.5734C49.1031 46.5734 49.1031 46.5734 49.1031 46.5734C49.1031 46.5734 49.1031 46.5734 50.2528 47.4299C51.4023 48.2862 51.4023 48.2862 51.4025 48.2861C51.4025 48.2861 51.4025 48.2859 51.4026 48.2859C51.4028 48.2857 51.4029 48.2855 51.4032 48.2851C51.4036 48.2845 51.4043 48.2836 51.4052 48.2823C51.4069 48.2799 51.4095 48.2764 51.4129 48.2717C51.4196 48.2624 51.4296 48.2487 51.4426 48.2308C51.4687 48.195 51.5067 48.1424 51.5555 48.0749C51.6532 47.94 51.7934 47.7455 51.965 47.5063C52.308 47.0281 52.777 46.3701 53.2803 45.6511C54.2699 44.2376 55.4457 42.513 56.0236 41.484L53.5412 40.0568ZM51.5258 48.0833L54.5075 42.1384L51.9611 40.8315L48.9796 46.7764L51.5258 48.0833ZM53.2343 41.4849C54.4805 42.1897 54.4808 42.189 54.4812 42.1884C54.4812 42.1881 54.4816 42.1876 54.4819 42.1871C54.4823 42.1863 54.4828 42.1854 54.4833 42.1844C54.4843 42.1826 54.4853 42.1808 54.4863 42.1789C54.4885 42.175 54.4906 42.1709 54.4929 42.1666C54.4975 42.1581 54.5025 42.1486 54.5077 42.1382C54.5183 42.1174 54.5304 42.093 54.5434 42.0649C54.5697 42.0089 54.6004 41.9384 54.6328 41.8538C54.6978 41.6842 54.7697 41.458 54.8285 41.177C54.9467 40.6114 55.0078 39.839 54.8608 38.8788L52.0392 39.3209C52.1313 39.9228 52.0845 40.3429 52.0351 40.5793C52.0099 40.6994 51.9832 40.7765 51.9704 40.8101C51.964 40.827 51.9608 40.8331 51.9631 40.8282C51.9644 40.8257 51.9668 40.8205 51.9708 40.8124C51.973 40.8085 51.9754 40.8038 51.9782 40.7984C51.9797 40.7958 51.9812 40.7929 51.9828 40.7899C51.9837 40.7883 51.9845 40.7867 51.9854 40.7851C51.9858 40.7844 51.9862 40.7836 51.9867 40.7827C51.987 40.7823 51.9872 40.7817 51.9874 40.7815C51.9878 40.7808 51.9881 40.7802 53.2343 41.4849ZM54.8608 38.8788C54.6898 37.7612 54.0138 36.5214 53.1828 35.7763C52.7766 35.4121 52.1079 34.9652 51.2689 35.0078C50.2916 35.0575 49.6408 35.7219 49.2863 36.4499L51.8478 37.7263C51.8859 37.648 51.8847 37.6852 51.8035 37.7495C51.7079 37.8252 51.5675 37.8849 51.412 37.8928C51.1554 37.9058 51.1098 37.7775 51.2888 37.938C51.4329 38.0671 51.6108 38.291 51.7658 38.5768C51.921 38.8631 52.0104 39.1326 52.0392 39.3209L54.8608 38.8788ZM49.2863 36.4499C48.9264 37.1891 48.4137 37.9243 47.9686 38.4942C47.75 38.7742 47.5561 39.0037 47.4184 39.1616C47.3497 39.2403 47.2954 39.3007 47.2596 39.34C47.2418 39.3596 47.2285 39.3739 47.2203 39.3827C47.2163 39.3871 47.2136 39.39 47.2122 39.3915C47.2115 39.3923 47.2111 39.3927 47.2111 39.3927C47.2111 39.3927 47.2112 39.3926 47.2113 39.3924C47.2115 39.3923 47.2115 39.3923 47.2116 39.3921C47.2118 39.392 47.2118 39.3918 47.2119 39.3918C47.2121 39.3917 47.2121 39.3915 48.2447 40.3891C49.2771 41.3865 49.2773 41.3864 49.2774 41.3863C49.2774 41.3861 49.2776 41.386 49.2777 41.3858C49.2779 41.3857 49.2782 41.3854 49.2784 41.3851C49.279 41.3845 49.2796 41.3839 49.2803 41.3831C49.2817 41.3816 49.2834 41.3798 49.2856 41.3774C49.2899 41.373 49.2954 41.3669 49.3024 41.3594C49.3164 41.3444 49.3357 41.3234 49.3598 41.2969C49.4082 41.2438 49.4759 41.1683 49.559 41.0733C49.7246 40.8834 49.9527 40.6131 50.2091 40.2848C50.7139 39.6384 51.3624 38.723 51.8478 37.7263L49.2863 36.4499ZM47.1294 39.4873L41.9115 46.0913L44.1418 47.8948L49.3598 41.2908L47.1294 39.4873ZM43.0266 46.993C41.8804 46.1321 41.8802 46.1324 41.8801 46.1325C41.8801 46.1325 41.88 46.1326 41.8798 46.1328C41.8797 46.1331 41.8794 46.1334 41.8793 46.1337C41.8787 46.1344 41.8781 46.1351 41.8774 46.1361C41.8761 46.138 41.8743 46.1404 41.8721 46.1435C41.8677 46.1495 41.8617 46.1576 41.8543 46.168C41.8394 46.1887 41.8186 46.2177 41.7926 46.2544C41.7408 46.3278 41.6681 46.4319 41.5814 46.56C41.4091 46.8152 41.1771 47.1721 40.9414 47.5759C40.708 47.9759 40.4575 48.4445 40.258 48.9203C40.0699 49.3695 39.8746 49.9457 39.8531 50.5273L42.7064 50.6345C42.7084 50.5805 42.7431 50.3906 42.8867 50.0478C43.0194 49.7317 43.2025 49.3829 43.4 49.0448C43.5951 48.7104 43.791 48.4087 43.9389 48.1898C44.0124 48.081 44.0731 47.9941 44.1144 47.9357C44.1349 47.9067 44.1506 47.8847 44.1608 47.8709C44.1658 47.8638 44.1693 47.8589 44.1715 47.856C44.1725 47.8547 44.173 47.8538 44.1733 47.8534C44.1735 47.8532 44.1735 47.8532 44.1735 47.8532C44.1733 47.8534 44.1733 47.8534 44.1732 47.8535C44.1732 47.8537 44.173 47.8537 44.173 47.8538C44.173 47.8538 44.1729 47.854 43.0266 46.993ZM39.8531 50.5273C39.8229 51.3525 39.4538 54.5184 39.2313 56.3652L42.0656 56.7147C42.2778 54.9531 42.6705 51.6166 42.7064 50.6345L39.8531 50.5273ZM37.7211 57.9843H40.6485V55.0957H37.7211V57.9843Z" fill="white"/>
</svg>
